  0
SECTION
  2
HEADER
  9
$ACADVER
  1
AC2.10
  9
$INSUNITS
 70
     1
  0
ENDSEC
  0
SECTION
  2
TABLES
  0
TABLE
  2
LAYER
 70
     8
  0
LAYER
  2
0
 62
     7
 70
0
  6
CONTINUOUS
  0
LAYER
  2
1
 62
     1
 70
0
  6
CONTINUOUS
  0
LAYER
  2
2
 62
     2
 70
0
  6
CONTINUOUS
  0
LAYER
  2
3
 62
     3
 70
0
  6
CONTINUOUS
  0
LAYER
  2
4
 62
     4
 70
0
  6
CONTINUOUS
  0
LAYER
  2
5
 62
     5
 70
0
  6
CONTINUOUS
  0
LAYER
  2
6
 62
     6
 70
0
  6
CONTINUOUS
  0
LAYER
  2
7
 62
     7
 70
0
  6
CONTINUOUS
  0
ENDTAB
  0
TABLE
  2
STYLE
 70
     1
  0
STYLE
 70
     0
  2
STANDARD
  3
TXT
 40
0.00
 41
1.00
 42
1.00
 50
0.00
 71
     0
  0
ENDTAB
  0
ENDSEC
  0
SECTION
  2
BLOCKS
  0
BLOCK
  8
0
  2
EPAD
 70
0
 10
0.0
 20
0.0
  0
POLYLINE
  8
0
 66
1
 70
1
 40
0.5
 41
0.5
  0
VERTEX
  8
0
 10
-0.25
 20
0.0
 42
1.0
  0
VERTEX
  8
0
 10
0.25
 20
0.0
 42
1.0
  0
SEQEND
  8
0
  0
ENDBLK
  8
0
  0
BLOCK
  8
0
  2
RPAD
 70
0
 10
0.0
 20
0.0
  0
TRACE
  8
0
 10
-0.5
 20
-0.5
 11
-0.5
 21
0.5
 12
0.5
 22
-0.5
 13
0.5
 23
0.5
  0
ENDBLK
  8
0
  0
ENDSEC
0
SECTION
2
ENTITIES
0
POLYLINE
8
0
66
1
40
0.025000
41
0.025000
0
VERTEX
8
0
10
-2.060000
20
-2.899000
0
VERTEX
8
0
10
-2.060000
20
-2.900000
0
VERTEX
8
0
10
-2.059000
20
-2.899000
0
VERTEX
8
0
10
-2.026000
20
-2.899000
0
VERTEX
8
0
10
-1.957000
20
-2.967000
0
VERTEX
8
0
10
-1.215000
20
-2.967000
0
VERTEX
8
0
10
-1.157000
20
-2.909000
0
VERTEX
8
0
10
-1.157000
20
-2.816000
0
SEQEND
8
0
0
POLYLINE
8
0
66
1
40
0.025000
41
0.025000
0
VERTEX
8
0
10
-0.736000
20
-2.822000
0
VERTEX
8
0
10
-0.736000
20
-2.826000
0
VERTEX
8
0
10
-0.549000
20
-2.826000
0
VERTEX
8
0
10
-0.549000
20
-2.821000
0
SEQEND
8
0
0
POLYLINE
8
0
66
1
40
0.025000
41
0.025000
0
VERTEX
8
0
10
0.609000
20
-2.839000
0
VERTEX
8
0
10
0.604000
20
-2.840000
0
VERTEX
8
0
10
0.603000
20
-2.839000
0
VERTEX
8
0
10
0.463000
20
-2.839000
0
SEQEND
8
0
0
POLYLINE
8
0
66
1
40
0.025000
41
0.025000
0
VERTEX
8
0
10
1.672000
20
1.943000
0
VERTEX
8
0
10
1.578000
20
1.943000
0
SEQEND
8
0
0
POLYLINE
8
0
66
1
40
0.025000
41
0.025000
0
VERTEX
8
0
10
1.672000
20
1.943000
0
VERTEX
8
0
10
1.733000
20
2.004000
0
SEQEND
8
0
0
POLYLINE
8
0
66
1
40
0.025000
41
0.025000
0
VERTEX
8
0
10
1.672000
20
1.943000
0
VERTEX
8
0
10
1.678000
20
1.943000
0
VERTEX
8
0
10
1.733000
20
1.888000
0
SEQEND
8
0
0
POLYLINE
8
0
66
1
40
0.025000
41
0.025000
0
VERTEX
8
0
10
1.733000
20
1.682000
0
VERTEX
8
0
10
1.734000
20
1.682000
0
VERTEX
8
0
10
1.734000
20
1.748000
0
VERTEX
8
0
10
1.733000
20
1.749000
0
VERTEX
8
0
10
1.733000
20
1.804000
0
SEQEND
8
0
0
POLYLINE
8
0
66
1
40
0.025000
41
0.025000
0
VERTEX
8
0
10
1.733000
20
1.682000
0
VERTEX
8
0
10
1.699000
20
1.682000
0
VERTEX
8
0
10
1.583000
20
1.798000
0
SEQEND
8
0
0
POLYLINE
8
0
66
1
40
0.025000
41
0.025000
0
VERTEX
8
0
10
1.965000
20
-2.808000
0
VERTEX
8
0
10
1.964000
20
-2.807000
0
VERTEX
8
0
10
1.785000
20
-2.807000
0
SEQEND
8
0
0
POLYLINE
8
0
66
1
40
0.025000
41
0.025000
0
VERTEX
8
0
10
1.733000
20
2.088000
0
VERTEX
8
0
10
1.663000
20
2.088000
0
VERTEX
8
0
10
1.658000
20
2.093000
0
VERTEX
8
0
10
1.578000
20
2.093000
0
SEQEND
8
0
0
POLYLINE
8
0
66
1
40
0.025000
41
0.025000
0
VERTEX
8
0
10
1.733000
20
2.088000
0
VERTEX
8
0
10
1.733000
20
2.182000
0
VERTEX
8
0
10
1.672000
20
2.243000
0
SEQEND
8
0
0
POLYLINE
8
0
66
1
40
0.025000
41
0.025000
0
VERTEX
8
0
10
-1.275000
20
2.723000
0
VERTEX
8
0
10
-1.361000
20
2.723000
0
VERTEX
8
0
10
-1.363000
20
2.724000
0
VERTEX
8
0
10
-1.407000
20
2.724000
0
SEQEND
8
0
0
POLYLINE
8
0
66
1
40
0.025000
41
0.025000
0
VERTEX
8
0
10
-1.011000
20
1.673000
0
VERTEX
8
0
10
-0.975000
20
1.636000
0
VERTEX
8
0
10
-0.966000
20
1.628000
0
VERTEX
8
0
10
-0.950000
20
1.612000
0
VERTEX
8
0
10
-0.911000
20
1.612000
0
SEQEND
8
0
0
POLYLINE
8
0
66
1
40
0.025000
41
0.025000
0
VERTEX
8
0
10
-0.736000
20
1.698000
0
VERTEX
8
0
10
-0.728000
20
1.690000
0
VERTEX
8
0
10
-0.728000
20
1.633000
0
SEQEND
8
0
0
POLYLINE
8
0
66
1
40
0.025000
41
0.025000
0
VERTEX
8
0
10
-1.075000
20
2.723000
0
VERTEX
8
0
10
-0.970000
20
2.723000
0
VERTEX
8
0
10
-0.963000
20
2.716000
0
SEQEND
8
0
0
POLYLINE
8
0
66
1
40
0.025000
41
0.025000
0
VERTEX
8
0
10
-0.777000
20
2.641000
0
VERTEX
8
0
10
-0.963000
20
2.641000
0
SEQEND
8
0
0
POLYLINE
8
0
66
1
40
0.025000
41
0.025000
0
VERTEX
8
0
10
-1.075000
20
2.723000
0
VERTEX
8
0
10
-1.068000
20
2.716000
0
VERTEX
8
0
10
-0.994000
20
2.641000
0
VERTEX
8
0
10
-0.963000
20
2.641000
0
SEQEND
8
0
0
POLYLINE
8
0
66
1
40
0.025000
41
0.025000
0
VERTEX
8
0
10
0.859000
20
1.673000
0
VERTEX
8
0
10
-0.054000
20
1.673000
0
VERTEX
8
0
10
-0.064000
20
1.663000
0
VERTEX
8
0
10
-0.079000
20
1.649000
0
VERTEX
8
0
10
-0.079000
20
1.611000
0
VERTEX
8
0
10
-0.079000
20
1.595000
0
SEQEND
8
0
0
POLYLINE
8
0
66
1
40
0.025000
41
0.025000
0
VERTEX
8
0
10
1.271000
20
2.801000
0
VERTEX
8
0
10
1.391000
20
2.801000
0
VERTEX
8
0
10
1.393000
20
2.803000
0
SEQEND
8
0
0
POLYLINE
8
0
66
1
40
0.025000
41
0.025000
0
VERTEX
8
0
10
1.127000
20
2.491000
0
VERTEX
8
0
10
1.126000
20
2.491000
0
VERTEX
8
0
10
1.124000
20
2.491000
0
SEQEND
8
0
0
POLYLINE
8
0
66
1
40
0.025000
41
0.025000
0
VERTEX
8
0
10
1.128000
20
2.689000
0
VERTEX
8
0
10
1.130000
20
2.691000
0
SEQEND
8
0
0
POLYLINE
8
0
66
1
40
0.025000
41
0.025000
0
VERTEX
8
0
10
1.129000
20
2.613000
0
VERTEX
8
0
10
1.126000
20
2.610000
0
SEQEND
8
0
0
POLYLINE
8
0
66
1
40
0.025000
41
0.025000
0
VERTEX
8
0
10
1.128000
20
2.689000
0
VERTEX
8
0
10
1.128000
20
2.639000
0
VERTEX
8
0
10
1.129000
20
2.639000
0
VERTEX
8
0
10
1.129000
20
2.613000
0
SEQEND
8
0
0
POLYLINE
8
0
66
1
40
0.025000
41
0.025000
0
VERTEX
8
0
10
1.127000
20
2.491000
0
VERTEX
8
0
10
1.127000
20
2.610000
0
VERTEX
8
0
10
1.126000
20
2.610000
0
SEQEND
8
0
0
POLYLINE
8
0
66
1
40
0.025000
41
0.025000
0
VERTEX
8
0
10
-0.811000
20
2.323000
0
VERTEX
8
0
10
0.263000
20
2.323000
0
VERTEX
8
0
10
0.370000
20
2.430000
0
VERTEX
8
0
10
1.022000
20
2.430000
0
VERTEX
8
0
10
1.126000
20
2.533000
0
VERTEX
8
0
10
1.126000
20
2.610000
0
SEQEND
8
0
0
POLYLINE
8
0
66
1
40
0.025000
41
0.025000
0
VERTEX
8
0
10
-0.811000
20
1.698000
0
VERTEX
8
0
10
-0.820000
20
1.698000
0
VERTEX
8
0
10
-0.845000
20
1.673000
0
VERTEX
8
0
10
-0.845000
20
1.631000
0
SEQEND
8
0
0
POLYLINE
8
0
66
1
40
0.025000
41
0.025000
0
VERTEX
8
0
10
-1.976000
20
1.403000
0
VERTEX
8
0
10
-1.194000
20
1.403000
0
VERTEX
8
0
10
-1.161000
20
1.408000
0
VERTEX
8
0
10
-1.135000
20
1.418000
0
SEQEND
8
0
0
POLYLINE
8
0
66
1
40
0.025000
41
0.025000
0
VERTEX
8
0
10
-1.976000
20
1.403000
0
VERTEX
8
0
10
-2.044000
20
1.403000
0
VERTEX
8
0
10
-2.083000
20
1.442000
0
VERTEX
8
0
10
-2.083000
20
1.676000
0
VERTEX
8
0
10
-1.961000
20
1.798000
0
VERTEX
8
0
10
-0.489000
20
1.798000
0
VERTEX
8
0
10
-0.404000
20
1.713000
0
VERTEX
8
0
10
-0.404000
20
1.628000
0
SEQEND
8
0
0
POLYLINE
8
0
66
1
40
0.025000
41
0.025000
0
VERTEX
8
0
10
-1.296000
20
1.748000
0
VERTEX
8
0
10
-1.287000
20
1.748000
0
VERTEX
8
0
10
-0.515000
20
1.748000
0
VERTEX
8
0
10
-0.465000
20
1.698000
0
VERTEX
8
0
10
-0.465000
20
1.630000
0
SEQEND
8
0
0
POLYLINE
8
0
66
1
40
0.025000
41
0.025000
0
VERTEX
8
0
10
-1.916000
20
1.663000
0
VERTEX
8
0
10
-1.489000
20
1.663000
0
SEQEND
8
0
0
POLYLINE
8
0
66
1
40
0.025000
41
0.025000
0
VERTEX
8
0
10
-1.916000
20
1.663000
0
VERTEX
8
0
10
-1.976000
20
1.603000
0
SEQEND
8
0
0
POLYLINE
8
0
66
1
40
0.025000
41
0.025000
0
VERTEX
8
0
10
-1.296000
20
1.748000
0
VERTEX
8
0
10
-1.831000
20
1.748000
0
VERTEX
8
0
10
-1.916000
20
1.663000
0
SEQEND
8
0
0
POLYLINE
8
0
66
1
40
0.025000
41
0.025000
0
VERTEX
8
0
10
-0.161000
20
-2.753000
0
VERTEX
8
0
10
-0.213000
20
-2.805000
0
VERTEX
8
0
10
-0.213000
20
-2.883000
0
SEQEND
8
0
0
POLYLINE
8
0
66
1
40
0.025000
41
0.025000
0
VERTEX
8
0
10
-0.161000
20
-2.753000
0
VERTEX
8
0
10
-0.161000
20
-2.807000
0
SEQEND
8
0
0
POLYLINE
8
0
66
1
40
0.025000
41
0.025000
0
VERTEX
8
0
10
-0.086000
20
-2.881000
0
VERTEX
8
0
10
-0.161000
20
-2.807000
0
SEQEND
8
0
0
POLYLINE
8
0
66
1
40
0.025000
41
0.025000
0
VERTEX
8
0
10
-0.086000
20
-2.881000
0
VERTEX
8
0
10
-0.160000
20
-2.881000
0
SEQEND
8
0
0
POLYLINE
8
0
66
1
40
0.025000
41
0.025000
0
VERTEX
8
0
10
0.113000
20
1.623000
0
VERTEX
8
0
10
0.148000
20
1.588000
0
VERTEX
8
0
10
0.148000
20
1.494000
0
SEQEND
8
0
0
POLYLINE
8
0
66
1
40
0.025000
41
0.025000
0
VERTEX
8
0
10
0.113000
20
1.623000
0
VERTEX
8
0
10
0.007000
20
1.623000
0
VERTEX
8
0
10
-0.009000
20
1.605000
0
SEQEND
8
0
0
POLYLINE
8
0
66
1
40
0.030000
41
0.030000
0
VERTEX
8
0
10
-0.071000
20
1.442000
0
VERTEX
8
0
10
-0.079000
20
1.442000
0
VERTEX
8
0
10
-0.079000
20
1.527000
0
SEQEND
8
0
0
POLYLINE
8
0
66
1
40
0.030000
41
0.030000
0
VERTEX
8
0
10
-0.471000
20
1.442000
0
VERTEX
8
0
10
-0.471000
20
1.442000
0
VERTEX
8
0
10
-0.586000
20
1.442000
0
VERTEX
8
0
10
-0.586000
20
1.442000
0
VERTEX
8
0
10
-0.671000
20
1.442000
0
SEQEND
8
0
0
POLYLINE
8
0
66
1
40
0.030000
41
0.030000
0
VERTEX
8
0
10
-0.165000
20
-2.440000
0
VERTEX
8
0
10
-0.161000
20
-2.526000
0
VERTEX
8
0
10
-0.161000
20
-2.685000
0
SEQEND
8
0
0
POLYLINE
8
0
66
1
40
0.030000
41
0.030000
0
VERTEX
8
0
10
-0.186000
20
-0.451000
0
VERTEX
8
0
10
0.589000
20
-0.451000
0
VERTEX
8
0
10
0.637000
20
-0.403000
0
VERTEX
8
0
10
2.093000
20
-0.403000
0
VERTEX
8
0
10
2.191000
20
-0.305000
0
VERTEX
8
0
10
2.471000
20
-0.305000
0
VERTEX
8
0
10
2.491000
20
-0.285000
0
VERTEX
8
0
10
2.491000
20
-0.227000
0
SEQEND
8
0
0
POLYLINE
8
0
66
1
40
0.030000
41
0.030000
0
VERTEX
8
0
10
-0.958000
20
1.427000
0
VERTEX
8
0
10
-0.958000
20
1.453000
0
VERTEX
8
0
10
-0.911000
20
1.499000
0
VERTEX
8
0
10
-0.911000
20
1.544000
0
VERTEX
8
0
10
-0.911000
20
1.544000
0
SEQEND
8
0
0
POLYLINE
8
0
66
1
40
0.030000
41
0.030000
0
VERTEX
8
0
10
-0.958000
20
1.427000
0
VERTEX
8
0
10
-0.958000
20
1.352000
0
VERTEX
8
0
10
-0.986000
20
1.323000
0
SEQEND
8
0
0
POLYLINE
8
0
66
1
40
0.030000
41
0.030000
0
VERTEX
8
0
10
-0.471000
20
1.442000
0
VERTEX
8
0
10
-0.404000
20
1.509000
0
SEQEND
8
0
0
POLYLINE
8
0
66
1
40
0.030000
41
0.030000
0
VERTEX
8
0
10
-0.404000
20
1.544000
0
VERTEX
8
0
10
-0.404000
20
1.509000
0
SEQEND
8
0
0
POLYLINE
8
0
66
1
40
0.030000
41
0.030000
0
VERTEX
8
0
10
-0.404000
20
1.544000
0
VERTEX
8
0
10
-0.373000
20
1.544000
0
SEQEND
8
0
0
POLYLINE
8
0
66
1
40
0.030000
41
0.030000
0
VERTEX
8
0
10
-0.336000
20
1.698000
0
VERTEX
8
0
10
-0.336000
20
1.580000
0
VERTEX
8
0
10
-0.373000
20
1.544000
0
SEQEND
8
0
0
POLYLINE
8
0
66
1
40
0.030000
41
0.030000
0
VERTEX
8
0
10
-0.203000
20
1.541000
0
VERTEX
8
0
10
-0.205000
20
1.539000
0
VERTEX
8
0
10
-0.205000
20
1.493000
0
VERTEX
8
0
10
-0.257000
20
1.442000
0
VERTEX
8
0
10
-0.271000
20
1.442000
0
SEQEND
8
0
0
POLYLINE
8
0
66
1
40
0.030000
41
0.030000
0
VERTEX
8
0
10
-0.079000
20
1.527000
0
VERTEX
8
0
10
-0.136000
20
1.527000
0
VERTEX
8
0
10
-0.151000
20
1.541000
0
VERTEX
8
0
10
-0.203000
20
1.541000
0
SEQEND
8
0
0
POLYLINE
8
0
66
1
40
0.030000
41
0.030000
0
VERTEX
8
0
10
-0.205000
20
1.541000
0
VERTEX
8
0
10
-0.203000
20
1.541000
0
SEQEND
8
0
0
POLYLINE
8
0
66
1
40
0.030000
41
0.030000
0
VERTEX
8
0
10
-0.071000
20
1.442000
0
VERTEX
8
0
10
-0.069000
20
1.440000
0
VERTEX
8
0
10
-0.007000
20
1.440000
0
VERTEX
8
0
10
0.017000
20
1.415000
0
VERTEX
8
0
10
0.017000
20
1.393000
0
SEQEND
8
0
0
POLYLINE
8
0
66
1
40
0.030000
41
0.030000
0
VERTEX
8
0
10
-2.519000
20
-0.783000
0
VERTEX
8
0
10
-2.561000
20
-0.783000
0
VERTEX
8
0
10
-2.611000
20
-0.733000
0
VERTEX
8
0
10
-2.611000
20
-0.147000
0
VERTEX
8
0
10
-2.539000
20
-0.074000
0
VERTEX
8
0
10
-2.102000
20
-0.074000
0
VERTEX
8
0
10
-2.039000
20
-0.011000
0
VERTEX
8
0
10
-2.039000
20
1.120000
0
VERTEX
8
0
10
-1.836000
20
1.323000
0
VERTEX
8
0
10
-0.986000
20
1.323000
0
SEQEND
8
0
0
POLYLINE
8
0
66
1
40
0.025000
41
0.025000
0
VERTEX
8
0
10
-0.086000
20
-0.201000
0
VERTEX
8
0
10
0.715000
20
-0.201000
0
VERTEX
8
0
10
0.791000
20
-0.126000
0
VERTEX
8
0
10
0.791000
20
0.210000
0
VERTEX
8
0
10
0.841000
20
0.260000
0
VERTEX
8
0
10
0.903000
20
0.260000
0
SEQEND
8
0
0
POLYLINE
8
0
66
1
40
0.025000
41
0.025000
0
VERTEX
8
0
10
1.070000
20
1.598000
0
VERTEX
8
0
10
0.388000
20
1.598000
0
SEQEND
8
0
0
POLYLINE
8
0
66
1
40
0.025000
41
0.025000
0
VERTEX
8
0
10
1.070000
20
1.598000
0
VERTEX
8
0
10
1.109000
20
1.598000
0
VERTEX
8
0
10
1.165000
20
1.654000
0
VERTEX
8
0
10
1.198000
20
1.687000
0
VERTEX
8
0
10
1.198000
20
2.393000
0
VERTEX
8
0
10
1.273000
20
2.468000
0
VERTEX
8
0
10
1.290000
20
2.468000
0
SEQEND
8
0
0
POLYLINE
8
0
66
1
40
0.025000
41
0.025000
0
VERTEX
8
0
10
-0.811000
20
2.698000
0
VERTEX
8
0
10
-0.829000
20
2.716000
0
VERTEX
8
0
10
-0.895000
20
2.716000
0
SEQEND
8
0
0
POLYLINE
8
0
66
1
40
0.025000
41
0.025000
0
VERTEX
8
0
10
-0.661000
20
1.948000
0
VERTEX
8
0
10
0.296000
20
1.948000
0
SEQEND
8
0
0
POLYLINE
8
0
66
1
40
0.025000
41
0.025000
0
VERTEX
8
0
10
0.338000
20
1.948000
0
VERTEX
8
0
10
0.296000
20
1.948000
0
VERTEX
8
0
10
0.296000
20
1.948000
0
SEQEND
8
0
0
POLYLINE
8
0
66
1
40
0.025000
41
0.025000
0
VERTEX
8
0
10
-0.661000
20
1.698000
0
VERTEX
8
0
10
-0.657000
20
1.693000
0
VERTEX
8
0
10
-0.657000
20
1.638000
0
VERTEX
8
0
10
-0.657000
20
1.622000
0
SEQEND
8
0
0
POLYLINE
8
0
66
1
40
0.025000
41
0.025000
0
VERTEX
8
0
10
1.063000
20
2.329000
0
VERTEX
8
0
10
1.063000
20
2.370000
0
SEQEND
8
0
0
POLYLINE
8
0
66
1
40
0.025000
41
0.025000
0
VERTEX
8
0
10
0.488000
20
1.998000
0
VERTEX
8
0
10
0.963000
20
1.998000
0
VERTEX
8
0
10
1.063000
20
2.098000
0
VERTEX
8
0
10
1.063000
20
2.305000
0
VERTEX
8
0
10
1.063000
20
2.329000
0
SEQEND
8
0
0
POLYLINE
8
0
66
1
40
0.025000
41
0.025000
0
VERTEX
8
0
10
1.127000
20
2.423000
0
VERTEX
8
0
10
1.115000
20
2.423000
0
VERTEX
8
0
10
1.063000
20
2.370000
0
SEQEND
8
0
0
POLYLINE
8
0
66
1
40
0.025000
41
0.025000
0
VERTEX
8
0
10
1.127000
20
2.423000
0
VERTEX
8
0
10
1.127000
20
2.330000
0
VERTEX
8
0
10
1.127000
20
2.329000
0
SEQEND
8
0
0
POLYLINE
8
0
66
1
40
0.025000
41
0.025000
0
VERTEX
8
0
10
-0.649000
20
0.060000
0
VERTEX
8
0
10
0.303000
20
0.060000
0
SEQEND
8
0
0
POLYLINE
8
0
66
1
40
0.025000
41
0.025000
0
VERTEX
8
0
10
-1.293000
20
1.663000
0
VERTEX
8
0
10
-1.405000
20
1.663000
0
SEQEND
8
0
0
POLYLINE
8
0
66
1
40
0.025000
41
0.025000
0
VERTEX
8
0
10
-1.293000
20
1.663000
0
VERTEX
8
0
10
-1.291000
20
1.664000
0
VERTEX
8
0
10
-1.185000
20
1.664000
0
SEQEND
8
0
0
POLYLINE
8
0
66
1
40
0.025000
41
0.025000
0
VERTEX
8
0
10
0.541000
20
1.418000
0
VERTEX
8
0
10
0.287000
20
1.418000
0
VERTEX
8
0
10
0.279000
20
1.426000
0
VERTEX
8
0
10
0.148000
20
1.426000
0
SEQEND
8
0
0
POLYLINE
8
0
66
1
40
0.025000
41
0.025000
0
VERTEX
8
0
10
0.084000
20
1.187000
0
VERTEX
8
0
10
0.068000
20
1.171000
0
SEQEND
8
0
0
POLYLINE
8
0
66
1
40
0.025000
41
0.025000
0
VERTEX
8
0
10
0.084000
20
1.187000
0
VERTEX
8
0
10
0.131000
20
1.187000
0
SEQEND
8
0
0
POLYLINE
8
0
66
1
40
0.025000
41
0.025000
0
VERTEX
8
0
10
0.538000
20
1.198000
0
VERTEX
8
0
10
0.527000
20
1.187000
0
VERTEX
8
0
10
0.131000
20
1.187000
0
SEQEND
8
0
0
POLYLINE
8
0
66
1
40
0.025000
41
0.025000
0
VERTEX
8
0
10
0.084000
20
1.187000
0
VERTEX
8
0
10
0.068000
20
1.187000
0
SEQEND
8
0
0
POLYLINE
8
0
66
1
40
0.030000
41
0.030000
0
VERTEX
8
0
10
0.303000
20
0.760000
0
VERTEX
8
0
10
0.563000
20
0.760000
0
VERTEX
8
0
10
0.663000
20
0.860000
0
VERTEX
8
0
10
0.903000
20
0.860000
0
SEQEND
8
0
0
POLYLINE
8
0
66
1
40
0.030000
41
0.030000
0
VERTEX
8
0
10
-1.992000
20
2.288000
0
VERTEX
8
0
10
-1.992000
20
2.188000
0
SEQEND
8
0
0
POLYLINE
8
0
66
1
40
0.030000
41
0.030000
0
VERTEX
8
0
10
-1.992000
20
2.488000
0
VERTEX
8
0
10
-1.992000
20
2.388000
0
SEQEND
8
0
0
POLYLINE
8
0
66
1
40
0.030000
41
0.030000
0
VERTEX
8
0
10
1.217000
20
-0.586000
0
VERTEX
8
0
10
1.323000
20
-0.586000
0
VERTEX
8
0
10
1.324000
20
-0.587000
0
VERTEX
8
0
10
1.685000
20
-0.587000
0
VERTEX
8
0
10
1.698000
20
-0.590000
0
SEQEND
8
0
0
POLYLINE
8
0
66
1
40
0.030000
41
0.030000
0
VERTEX
8
0
10
0.925000
20
-0.630000
0
VERTEX
8
0
10
0.925000
20
-0.630000
0
VERTEX
8
0
10
0.800000
20
-0.630000
0
VERTEX
8
0
10
0.728000
20
-0.701000
0
VERTEX
8
0
10
0.538000
20
-0.701000
0
VERTEX
8
0
10
0.290000
20
-0.949000
0
VERTEX
8
0
10
0.290000
20
-1.974000
0
VERTEX
8
0
10
0.213000
20
-2.051000
0
VERTEX
8
0
10
0.102000
20
-2.051000
0
SEQEND
8
0
0
POLYLINE
8
0
66
1
40
0.030000
41
0.030000
0
VERTEX
8
0
10
0.906000
20
-2.846000
0
VERTEX
8
0
10
0.948000
20
-2.894000
0
VERTEX
8
0
10
0.996000
20
-2.943000
0
SEQEND
8
0
0
POLYLINE
8
0
66
1
40
0.030000
41
0.030000
0
VERTEX
8
0
10
1.041000
20
-2.943000
0
VERTEX
8
0
10
1.659000
20
-2.943000
0
VERTEX
8
0
10
1.694000
20
-2.908000
0
VERTEX
8
0
10
1.965000
20
-2.908000
0
SEQEND
8
0
0
POLYLINE
8
0
66
1
40
0.030000
41
0.030000
0
VERTEX
8
0
10
0.335000
20
-2.930000
0
VERTEX
8
0
10
0.339000
20
-2.926000
0
SEQEND
8
0
0
POLYLINE
8
0
66
1
40
0.030000
41
0.030000
0
VERTEX
8
0
10
0.335000
20
-2.930000
0
VERTEX
8
0
10
0.332000
20
-2.927000
0
SEQEND
8
0
0
POLYLINE
8
0
66
1
40
0.030000
41
0.030000
0
VERTEX
8
0
10
0.996000
20
-2.943000
0
VERTEX
8
0
10
0.348000
20
-2.943000
0
VERTEX
8
0
10
0.335000
20
-2.930000
0
SEQEND
8
0
0
POLYLINE
8
0
66
1
40
0.030000
41
0.030000
0
VERTEX
8
0
10
0.996000
20
-2.943000
0
VERTEX
8
0
10
1.041000
20
-2.943000
0
SEQEND
8
0
0
POLYLINE
8
0
66
1
40
0.030000
41
0.030000
0
VERTEX
8
0
10
0.906000
20
-2.846000
0
VERTEX
8
0
10
0.900000
20
-2.846000
0
VERTEX
8
0
10
0.893000
20
-2.839000
0
VERTEX
8
0
10
0.709000
20
-2.839000
0
SEQEND
8
0
0
POLYLINE
8
0
66
1
40
0.030000
41
0.030000
0
VERTEX
8
0
10
-2.039000
20
-2.799000
0
VERTEX
8
0
10
-2.040000
20
-2.799000
0
SEQEND
8
0
0
POLYLINE
8
0
66
1
40
0.030000
41
0.030000
0
VERTEX
8
0
10
-2.036000
20
-2.802000
0
VERTEX
8
0
10
-2.039000
20
-2.799000
0
VERTEX
8
0
10
-2.040000
20
-2.798000
0
VERTEX
8
0
10
-2.040000
20
-2.799000
0
SEQEND
8
0
0
POLYLINE
8
0
66
1
40
0.030000
41
0.030000
0
VERTEX
8
0
10
-2.060000
20
-2.799000
0
VERTEX
8
0
10
-2.060000
20
-2.796000
0
VERTEX
8
0
10
-2.023000
20
-2.796000
0
VERTEX
8
0
10
-2.020000
20
-2.799000
0
VERTEX
8
0
10
-2.039000
20
-2.799000
0
SEQEND
8
0
0
POLYLINE
8
0
66
1
40
0.030000
41
0.030000
0
VERTEX
8
0
10
-2.036000
20
-2.802000
0
VERTEX
8
0
10
-2.040000
20
-2.802000
0
VERTEX
8
0
10
-2.040000
20
-2.799000
0
SEQEND
8
0
0
POLYLINE
8
0
66
1
40
0.030000
41
0.030000
0
VERTEX
8
0
10
-2.060000
20
-2.799000
0
VERTEX
8
0
10
-2.040000
20
-2.799000
0
SEQEND
8
0
0
POLYLINE
8
0
66
1
40
0.030000
41
0.030000
0
VERTEX
8
0
10
-1.819000
20
-2.748000
0
VERTEX
8
0
10
-1.893000
20
-2.748000
0
VERTEX
8
0
10
-1.955000
20
-2.809000
0
SEQEND
8
0
0
POLYLINE
8
0
66
1
40
0.030000
41
0.030000
0
VERTEX
8
0
10
-0.836000
20
-2.822000
0
VERTEX
8
0
10
-0.911000
20
-2.748000
0
SEQEND
8
0
0
POLYLINE
8
0
66
1
40
0.030000
41
0.030000
0
VERTEX
8
0
10
-1.819000
20
-2.748000
0
VERTEX
8
0
10
-0.911000
20
-2.748000
0
SEQEND
8
0
0
POLYLINE
8
0
66
1
40
0.030000
41
0.030000
0
VERTEX
8
0
10
-1.955000
20
-2.809000
0
VERTEX
8
0
10
-1.952000
20
-2.812000
0
VERTEX
8
0
10
-1.908000
20
-2.860000
0
SEQEND
8
0
0
POLYLINE
8
0
66
1
40
0.030000
41
0.030000
0
VERTEX
8
0
10
-1.955000
20
-2.809000
0
VERTEX
8
0
10
-1.958000
20
-2.806000
0
VERTEX
8
0
10
-2.032000
20
-2.806000
0
SEQEND
8
0
0
POLYLINE
8
0
66
1
40
0.030000
41
0.030000
0
VERTEX
8
0
10
-0.496000
20
-0.761000
0
VERTEX
8
0
10
-0.281000
20
-0.761000
0
VERTEX
8
0
10
-0.279000
20
-0.758000
0
SEQEND
8
0
0
POLYLINE
8
0
66
1
40
0.030000
41
0.030000
0
VERTEX
8
0
10
-0.836000
20
-2.822000
0
VERTEX
8
0
10
-0.837000
20
-2.824000
0
VERTEX
8
0
10
-0.837000
20
-2.853000
0
SEQEND
8
0
0
POLYLINE
8
0
66
1
40
0.030000
41
0.030000
0
VERTEX
8
0
10
-0.271000
20
-2.965000
0
VERTEX
8
0
10
-0.782000
20
-2.965000
0
VERTEX
8
0
10
-0.837000
20
-2.910000
0
VERTEX
8
0
10
-0.837000
20
-2.853000
0
VERTEX
8
0
10
-0.836000
20
-2.854000
0
SEQEND
8
0
0
POLYLINE
8
0
66
1
40
0.030000
41
0.030000
0
VERTEX
8
0
10
-2.036000
20
-2.802000
0
VERTEX
8
0
10
-2.032000
20
-2.806000
0
SEQEND
8
0
0
POLYLINE
8
0
66
1
40
0.030000
41
0.030000
0
VERTEX
8
0
10
-2.036000
20
-2.802000
0
VERTEX
8
0
10
-2.036000
20
-2.806000
0
VERTEX
8
0
10
-2.032000
20
-2.806000
0
SEQEND
8
0
0
POLYLINE
8
0
66
1
40
0.030000
41
0.030000
0
VERTEX
8
0
10
0.288000
20
-2.965000
0
VERTEX
8
0
10
-0.238000
20
-2.965000
0
SEQEND
8
0
0
POLYLINE
8
0
66
1
40
0.030000
41
0.030000
0
VERTEX
8
0
10
-0.271000
20
-2.965000
0
VERTEX
8
0
10
-0.238000
20
-2.965000
0
SEQEND
8
0
0
POLYLINE
8
0
66
1
40
0.030000
41
0.030000
0
VERTEX
8
0
10
1.583000
20
1.456000
0
VERTEX
8
0
10
1.559000
20
1.433000
0
VERTEX
8
0
10
1.558000
20
1.433000
0
SEQEND
8
0
0
POLYLINE
8
0
66
1
40
0.030000
41
0.030000
0
VERTEX
8
0
10
1.583000
20
1.538000
0
VERTEX
8
0
10
1.583000
20
1.456000
0
SEQEND
8
0
0
POLYLINE
8
0
66
1
40
0.030000
41
0.030000
0
VERTEX
8
0
10
1.655000
20
1.370000
0
VERTEX
8
0
10
1.583000
20
1.442000
0
VERTEX
8
0
10
1.583000
20
1.456000
0
SEQEND
8
0
0
POLYLINE
8
0
66
1
40
0.030000
41
0.030000
0
VERTEX
8
0
10
1.733000
20
1.598000
0
VERTEX
8
0
10
1.720000
20
1.598000
0
VERTEX
8
0
10
1.660000
20
1.538000
0
VERTEX
8
0
10
1.607000
20
1.538000
0
SEQEND
8
0
0
POLYLINE
8
0
66
1
40
0.030000
41
0.030000
0
VERTEX
8
0
10
1.583000
20
1.538000
0
VERTEX
8
0
10
1.607000
20
1.538000
0
SEQEND
8
0
0
POLYLINE
8
0
66
1
40
0.030000
41
0.030000
0
VERTEX
8
0
10
0.339000
20
-2.926000
0
VERTEX
8
0
10
0.338000
20
-2.926000
0
SEQEND
8
0
0
POLYLINE
8
0
66
1
40
0.030000
41
0.030000
0
VERTEX
8
0
10
0.332000
20
-2.927000
0
VERTEX
8
0
10
0.332000
20
-2.926000
0
SEQEND
8
0
0
POLYLINE
8
0
66
1
40
0.030000
41
0.030000
0
VERTEX
8
0
10
-0.102000
20
-2.390000
0
VERTEX
8
0
10
0.194000
20
-2.687000
0
VERTEX
8
0
10
0.194000
20
-2.789000
0
VERTEX
8
0
10
0.303000
20
-2.898000
0
VERTEX
8
0
10
0.332000
20
-2.927000
0
VERTEX
8
0
10
0.332000
20
-2.927000
0
VERTEX
8
0
10
0.332000
20
-2.926000
0
SEQEND
8
0
0
POLYLINE
8
0
66
1
40
0.030000
41
0.030000
0
VERTEX
8
0
10
0.338000
20
-2.926000
0
VERTEX
8
0
10
0.336000
20
-2.926000
0
VERTEX
8
0
10
0.332000
20
-2.926000
0
SEQEND
8
0
0
POLYLINE
8
0
66
1
40
0.030000
41
0.030000
0
VERTEX
8
0
10
0.102000
20
-2.051000
0
VERTEX
8
0
10
-0.045000
20
-2.051000
0
SEQEND
8
0
0
POLYLINE
8
0
66
1
40
0.030000
41
0.030000
0
VERTEX
8
0
10
0.013000
20
-2.058000
0
VERTEX
8
0
10
0.095000
20
-2.058000
0
VERTEX
8
0
10
0.102000
20
-2.051000
0
SEQEND
8
0
0
POLYLINE
8
0
66
1
40
0.030000
41
0.030000
0
VERTEX
8
0
10
-0.186000
20
-2.051000
0
VERTEX
8
0
10
-0.045000
20
-2.051000
0
SEQEND
8
0
0
POLYLINE
8
0
66
1
40
0.030000
41
0.030000
0
VERTEX
8
0
10
0.013000
20
-2.058000
0
VERTEX
8
0
10
-0.038000
20
-2.058000
0
VERTEX
8
0
10
-0.045000
20
-2.051000
0
SEQEND
8
0
0
POLYLINE
8
0
66
1
40
0.030000
41
0.030000
0
VERTEX
8
0
10
2.426000
20
-0.647000
0
VERTEX
8
0
10
2.426000
20
-0.747000
0
SEQEND
8
0
0
POLYLINE
8
0
66
1
40
0.030000
41
0.030000
0
VERTEX
8
0
10
2.426000
20
-0.547000
0
VERTEX
8
0
10
2.426000
20
-0.647000
0
SEQEND
8
0
0
POLYLINE
8
0
66
1
40
0.030000
41
0.030000
0
VERTEX
8
0
10
-1.714000
20
0.759000
0
VERTEX
8
0
10
-1.713000
20
0.758000
0
VERTEX
8
0
10
-1.499000
20
0.758000
0
SEQEND
8
0
0
POLYLINE
8
0
66
1
40
0.030000
41
0.030000
0
VERTEX
8
0
10
0.303000
20
0.660000
0
VERTEX
8
0
10
0.303000
20
0.659000
0
VERTEX
8
0
10
0.259000
20
0.659000
0
VERTEX
8
0
10
0.198000
20
0.599000
0
VERTEX
8
0
10
-0.814000
20
0.599000
0
VERTEX
8
0
10
-0.911000
20
0.695000
0
VERTEX
8
0
10
-0.911000
20
0.747000
0
SEQEND
8
0
0
POLYLINE
8
0
66
1
40
0.030000
41
0.030000
0
VERTEX
8
0
10
-0.911000
20
0.796000
0
VERTEX
8
0
10
-0.911000
20
0.797000
0
VERTEX
8
0
10
-0.973000
20
0.859000
0
VERTEX
8
0
10
-1.114000
20
0.859000
0
SEQEND
8
0
0
POLYLINE
8
0
66
1
40
0.030000
41
0.030000
0
VERTEX
8
0
10
-1.525000
20
2.498000
0
VERTEX
8
0
10
-1.525000
20
2.280000
0
VERTEX
8
0
10
-1.504000
20
2.259000
0
SEQEND
8
0
0
POLYLINE
8
0
66
1
40
0.030000
41
0.030000
0
VERTEX
8
0
10
0.332000
20
-2.927000
0
VERTEX
8
0
10
0.288000
20
-2.965000
0
SEQEND
8
0
0
POLYLINE
8
0
66
1
40
0.030000
41
0.030000
0
VERTEX
8
0
10
0.332000
20
-2.927000
0
VERTEX
8
0
10
0.288000
20
-2.965000
0
SEQEND
8
0
0
POLYLINE
8
0
66
1
40
0.030000
41
0.030000
0
VERTEX
8
0
10
1.655000
20
1.370000
0
VERTEX
8
0
10
1.630000
20
1.345000
0
VERTEX
8
0
10
1.395000
20
1.345000
0
SEQEND
8
0
0
POLYLINE
8
0
66
1
40
0.030000
41
0.030000
0
VERTEX
8
0
10
0.903000
20
0.860000
0
VERTEX
8
0
10
1.022000
20
0.860000
0
VERTEX
8
0
10
1.120000
20
0.959000
0
VERTEX
8
0
10
1.257000
20
0.959000
0
VERTEX
8
0
10
1.263000
20
0.952000
0
SEQEND
8
0
0
POLYLINE
8
0
66
1
40
0.030000
41
0.030000
0
VERTEX
8
0
10
-0.911000
20
0.796000
0
VERTEX
8
0
10
-0.911000
20
0.781000
0
SEQEND
8
0
0
POLYLINE
8
0
66
1
40
0.030000
41
0.030000
0
VERTEX
8
0
10
-0.911000
20
0.796000
0
VERTEX
8
0
10
-0.911000
20
0.848000
0
VERTEX
8
0
10
-0.811000
20
0.948000
0
VERTEX
8
0
10
-0.747000
20
0.948000
0
VERTEX
8
0
10
-0.744000
20
0.951000
0
SEQEND
8
0
0
POLYLINE
8
0
66
1
40
0.030000
41
0.030000
0
VERTEX
8
0
10
-0.911000
20
0.747000
0
VERTEX
8
0
10
-0.911000
20
0.781000
0
SEQEND
8
0
0
POLYLINE
8
0
66
1
40
0.030000
41
0.030000
0
VERTEX
8
0
10
1.390000
20
2.468000
0
VERTEX
8
0
10
1.391000
20
2.469000
0
VERTEX
8
0
10
1.391000
20
2.573000
0
VERTEX
8
0
10
1.311000
20
2.653000
0
VERTEX
8
0
10
1.308000
20
2.653000
0
SEQEND
8
0
0
POLYLINE
8
0
66
1
40
0.030000
41
0.030000
0
VERTEX
8
0
10
-0.111000
20
2.730000
0
VERTEX
8
0
10
-0.111000
20
2.765000
0
VERTEX
8
0
10
-0.078000
20
2.799000
0
VERTEX
8
0
10
1.146000
20
2.799000
0
VERTEX
8
0
10
1.216000
20
2.728000
0
VERTEX
8
0
10
1.215000
20
2.728000
0
VERTEX
8
0
10
1.290000
20
2.653000
0
SEQEND
8
0
0
POLYLINE
8
0
66
1
40
0.030000
41
0.030000
0
VERTEX
8
0
10
1.308000
20
2.653000
0
VERTEX
8
0
10
1.308000
20
2.635000
0
VERTEX
8
0
10
1.290000
20
2.653000
0
VERTEX
8
0
10
1.287000
20
2.653000
0
SEQEND
8
0
0
POLYLINE
8
0
66
1
40
0.030000
41
0.030000
0
VERTEX
8
0
10
1.308000
20
2.653000
0
VERTEX
8
0
10
1.290000
20
2.653000
0
SEQEND
8
0
0
POLYLINE
8
0
66
1
40
0.030000
41
0.030000
0
VERTEX
8
0
10
-1.325000
20
2.575000
0
VERTEX
8
0
10
-0.260000
20
2.575000
0
SEQEND
8
0
0
POLYLINE
8
0
66
1
40
0.030000
41
0.030000
0
VERTEX
8
0
10
-0.010000
20
2.632000
0
VERTEX
8
0
10
-0.010000
20
2.569000
0
VERTEX
8
0
10
-0.052000
20
2.528000
0
VERTEX
8
0
10
-0.213000
20
2.528000
0
VERTEX
8
0
10
-0.260000
20
2.575000
0
SEQEND
8
0
0
POLYLINE
8
0
66
1
40
0.030000
41
0.030000
0
VERTEX
8
0
10
-0.111000
20
2.730000
0
VERTEX
8
0
10
-0.116000
20
2.730000
0
VERTEX
8
0
10
-0.117000
20
2.731000
0
VERTEX
8
0
10
-0.227000
20
2.731000
0
VERTEX
8
0
10
-0.272000
20
2.685000
0
VERTEX
8
0
10
-0.272000
20
2.587000
0
VERTEX
8
0
10
-0.260000
20
2.575000
0
SEQEND
8
0
0
POLYLINE
8
0
66
1
40
0.025000
41
0.025000
0
VERTEX
8
0
10
0.212000
20
0.344000
0
VERTEX
8
0
10
0.082000
20
0.214000
0
VERTEX
8
0
10
-0.811000
20
0.214000
0
VERTEX
8
0
10
-1.056000
20
0.459000
0
VERTEX
8
0
10
-1.114000
20
0.459000
0
SEQEND
8
0
0
POLYLINE
8
0
66
1
40
0.025000
41
0.025000
0
VERTEX
8
0
10
1.038000
20
1.048000
0
VERTEX
8
0
10
0.274000
20
1.048000
0
VERTEX
8
0
10
0.206000
20
0.979000
0
VERTEX
8
0
10
0.206000
20
0.730000
0
VERTEX
8
0
10
0.213000
20
0.723000
0
SEQEND
8
0
0
POLYLINE
8
0
66
1
40
0.025000
41
0.025000
0
VERTEX
8
0
10
1.147000
20
1.098000
0
VERTEX
8
0
10
1.313000
20
1.098000
0
VERTEX
8
0
10
1.363000
20
1.047000
0
VERTEX
8
0
10
1.363000
20
0.992000
0
VERTEX
8
0
10
1.363000
20
0.952000
0
SEQEND
8
0
0
POLYLINE
8
0
66
1
40
0.025000
41
0.025000
0
VERTEX
8
0
10
-0.718000
20
0.674000
0
VERTEX
8
0
10
-0.665000
20
0.674000
0
VERTEX
8
0
10
-0.664000
20
0.673000
0
VERTEX
8
0
10
0.019000
20
0.673000
0
VERTEX
8
0
10
0.069000
20
0.722000
0
VERTEX
8
0
10
0.069000
20
0.929000
0
VERTEX
8
0
10
0.238000
20
1.098000
0
VERTEX
8
0
10
1.147000
20
1.098000
0
SEQEND
8
0
0
POLYLINE
8
0
66
1
40
0.025000
41
0.025000
0
VERTEX
8
0
10
1.337000
20
2.093000
0
VERTEX
8
0
10
1.337000
20
2.034000
0
VERTEX
8
0
10
1.326000
20
2.023000
0
VERTEX
8
0
10
1.326000
20
1.973000
0
SEQEND
8
0
0
POLYLINE
8
0
66
1
40
0.025000
41
0.025000
0
VERTEX
8
0
10
1.478000
20
2.093000
0
VERTEX
8
0
10
1.337000
20
2.093000
0
SEQEND
8
0
0
POLYLINE
8
0
66
1
40
0.025000
41
0.025000
0
VERTEX
8
0
10
-1.028000
20
-2.890000
0
VERTEX
8
0
10
-1.025000
20
-2.894000
0
VERTEX
8
0
10
-1.026000
20
-2.889000
0
VERTEX
8
0
10
-1.073000
20
-2.842000
0
VERTEX
8
0
10
-1.073000
20
-2.816000
0
SEQEND
8
0
0
POLYLINE
8
0
66
1
40
0.025000
41
0.025000
0
VERTEX
8
0
10
-1.114000
20
0.059000
0
VERTEX
8
0
10
-0.986000
20
0.059000
0
VERTEX
8
0
10
-0.937000
20
0.009000
0
VERTEX
8
0
10
0.051000
20
0.009000
0
VERTEX
8
0
10
0.055000
20
0.001000
0
SEQEND
8
0
0
POLYLINE
8
0
66
1
40
0.025000
41
0.025000
0
VERTEX
8
0
10
1.213000
20
-0.456000
0
VERTEX
8
0
10
2.134000
20
-0.456000
0
VERTEX
8
0
10
2.233000
20
-0.357000
0
VERTEX
8
0
10
2.499000
20
-0.357000
0
VERTEX
8
0
10
2.526000
20
-0.383000
0
VERTEX
8
0
10
2.526000
20
-0.447000
0
SEQEND
8
0
0
POLYLINE
8
0
66
1
40
0.025000
41
0.025000
0
VERTEX
8
0
10
-0.116000
20
-0.718000
0
VERTEX
8
0
10
-0.151000
20
-0.756000
0
VERTEX
8
0
10
-0.200000
20
-0.805000
0
VERTEX
8
0
10
-0.200000
20
-1.550000
0
VERTEX
8
0
10
-0.111000
20
-1.639000
0
VERTEX
8
0
10
-0.111000
20
-1.698000
0
SEQEND
8
0
0
POLYLINE
8
0
66
1
40
0.025000
41
0.025000
0
VERTEX
8
0
10
-1.114000
20
-0.040000
0
VERTEX
8
0
10
-0.108000
20
-0.040000
0
VERTEX
8
0
10
-0.108000
20
-0.050000
0
VERTEX
8
0
10
-0.103000
20
-0.050000
0
SEQEND
8
0
0
POLYLINE
8
0
66
1
40
0.025000
41
0.025000
0
VERTEX
8
0
10
-0.382000
20
-2.824000
0
VERTEX
8
0
10
-0.385000
20
-2.821000
0
VERTEX
8
0
10
-0.465000
20
-2.821000
0
SEQEND
8
0
0
POLYLINE
8
0
66
1
40
0.025000
41
0.025000
0
VERTEX
8
0
10
1.099000
20
-0.482000
0
VERTEX
8
0
10
1.147000
20
-0.529000
0
VERTEX
8
0
10
2.208000
20
-0.529000
0
VERTEX
8
0
10
2.277000
20
-0.598000
0
VERTEX
8
0
10
2.277000
20
-0.894000
0
VERTEX
8
0
10
2.309000
20
-0.926000
0
VERTEX
8
0
10
2.494000
20
-0.926000
0
VERTEX
8
0
10
2.526000
20
-0.894000
0
VERTEX
8
0
10
2.526000
20
-0.847000
0
SEQEND
8
0
0
POLYLINE
8
0
66
1
40
0.025000
41
0.025000
0
VERTEX
8
0
10
0.784000
20
0.531000
0
VERTEX
8
0
10
0.784000
20
0.388000
0
VERTEX
8
0
10
0.709000
20
0.273000
0
VERTEX
8
0
10
0.709000
20
-0.039000
0
SEQEND
8
0
0
POLYLINE
8
0
66
1
40
0.050000
41
0.050000
0
VERTEX
8
0
10
0.271000
20
-0.378000
0
VERTEX
8
0
10
0.270000
20
-0.378000
0
VERTEX
8
0
10
-0.518000
20
-0.378000
0
SEQEND
8
0
0
POLYLINE
8
0
66
1
40
0.025000
41
0.025000
0
VERTEX
8
0
10
-0.080000
20
-0.251000
0
VERTEX
8
0
10
1.513000
20
-0.251000
0
VERTEX
8
0
10
1.563000
20
-0.201000
0
VERTEX
8
0
10
1.563000
20
0.736000
0
SEQEND
8
0
0
POLYLINE
8
0
66
1
40
0.025000
41
0.025000
0
VERTEX
8
0
10
-0.663000
20
-0.232000
0
VERTEX
8
0
10
-0.204000
20
-0.232000
0
VERTEX
8
0
10
-0.185000
20
-0.251000
0
VERTEX
8
0
10
-0.127000
20
-0.251000
0
SEQEND
8
0
0
POLYLINE
8
0
66
1
40
0.025000
41
0.025000
0
VERTEX
8
0
10
-0.102000
20
-0.251000
0
VERTEX
8
0
10
-0.080000
20
-0.251000
0
SEQEND
8
0
0
POLYLINE
8
0
66
1
40
0.025000
41
0.025000
0
VERTEX
8
0
10
-0.127000
20
-0.251000
0
VERTEX
8
0
10
-0.102000
20
-0.251000
0
SEQEND
8
0
0
POLYLINE
8
0
66
1
40
0.025000
41
0.025000
0
VERTEX
8
0
10
1.563000
20
0.736000
0
VERTEX
8
0
10
1.563000
20
0.765000
0
VERTEX
8
0
10
1.563000
20
0.844000
0
SEQEND
8
0
0
POLYLINE
8
0
66
1
40
0.025000
41
0.025000
0
VERTEX
8
0
10
-1.114000
20
-0.140000
0
VERTEX
8
0
10
-1.018000
20
-0.140000
0
VERTEX
8
0
10
-0.857000
20
-0.301000
0
VERTEX
8
0
10
1.588000
20
-0.301000
0
VERTEX
8
0
10
1.638000
20
-0.251000
0
VERTEX
8
0
10
1.638000
20
0.927000
0
VERTEX
8
0
10
1.613000
20
0.952000
0
VERTEX
8
0
10
1.563000
20
0.952000
0
SEQEND
8
0
0
POLYLINE
8
0
66
1
40
0.025000
41
0.025000
0
VERTEX
8
0
10
-0.986000
20
1.123000
0
VERTEX
8
0
10
-1.876000
20
1.123000
0
VERTEX
8
0
10
-1.966000
20
1.033000
0
VERTEX
8
0
10
-1.966000
20
0.278000
0
VERTEX
8
0
10
-1.847000
20
0.159000
0
VERTEX
8
0
10
-1.714000
20
0.159000
0
SEQEND
8
0
0
POLYLINE
8
0
66
1
40
0.025000
41
0.025000
0
VERTEX
8
0
10
1.313000
20
1.538000
0
VERTEX
8
0
10
1.313000
20
1.654000
0
VERTEX
8
0
10
1.263000
20
1.654000
0
SEQEND
8
0
0
POLYLINE
8
0
66
1
40
0.025000
41
0.025000
0
VERTEX
8
0
10
0.988000
20
1.198000
0
VERTEX
8
0
10
0.938000
20
1.148000
0
VERTEX
8
0
10
0.188000
20
1.148000
0
VERTEX
8
0
10
0.138000
20
1.098000
0
VERTEX
8
0
10
0.138000
20
1.077000
0
VERTEX
8
0
10
0.059000
20
0.998000
0
VERTEX
8
0
10
-0.011000
20
0.998000
0
SEQEND
8
0
0
POLYLINE
8
0
66
1
40
0.025000
41
0.025000
0
VERTEX
8
0
10
1.483000
20
1.538000
0
VERTEX
8
0
10
1.482000
20
1.537000
0
VERTEX
8
0
10
1.482000
20
1.486000
0
VERTEX
8
0
10
1.495000
20
1.473000
0
VERTEX
8
0
10
1.495000
20
1.433000
0
SEQEND
8
0
0
POLYLINE
8
0
66
1
40
0.025000
41
0.025000
0
VERTEX
8
0
10
1.483000
20
1.538000
0
VERTEX
8
0
10
1.313000
20
1.538000
0
SEQEND
8
0
0
POLYLINE
8
0
66
1
40
0.025000
41
0.025000
0
VERTEX
8
0
10
0.988000
20
1.463000
0
VERTEX
8
0
10
1.063000
20
1.538000
0
VERTEX
8
0
10
1.313000
20
1.538000
0
SEQEND
8
0
0
POLYLINE
8
0
66
1
40
0.025000
41
0.025000
0
VERTEX
8
0
10
-0.305000
20
0.480000
0
VERTEX
8
0
10
-0.912000
20
0.480000
0
VERTEX
8
0
10
-0.970000
20
0.538000
0
VERTEX
8
0
10
-0.970000
20
0.706000
0
VERTEX
8
0
10
-1.023000
20
0.759000
0
VERTEX
8
0
10
-1.114000
20
0.759000
0
SEQEND
8
0
0
POLYLINE
8
0
66
1
40
0.025000
41
0.025000
0
VERTEX
8
0
10
-1.962000
20
-0.126000
0
VERTEX
8
0
10
-1.885000
20
-0.203000
0
VERTEX
8
0
10
-1.486000
20
-0.203000
0
VERTEX
8
0
10
-1.436000
20
-0.153000
0
VERTEX
8
0
10
-1.436000
20
0.798000
0
VERTEX
8
0
10
-1.497000
20
0.859000
0
VERTEX
8
0
10
-1.714000
20
0.859000
0
SEQEND
8
0
0
POLYLINE
8
0
66
1
40
0.025000
41
0.025000
0
VERTEX
8
0
10
-1.962000
20
-0.126000
0
VERTEX
8
0
10
-2.258000
20
-0.126000
0
VERTEX
8
0
10
-2.292000
20
-0.126000
0
VERTEX
8
0
10
-2.320000
20
-0.154000
0
VERTEX
8
0
10
-2.320000
20
-0.202000
0
VERTEX
8
0
10
-2.319000
20
-0.202000
0
SEQEND
8
0
0
POLYLINE
8
0
66
1
40
0.025000
41
0.025000
0
VERTEX
8
0
10
-1.114000
20
0.159000
0
VERTEX
8
0
10
-1.197000
20
0.159000
0
VERTEX
8
0
10
-1.252000
20
0.105000
0
VERTEX
8
0
10
-1.252000
20
-0.738000
0
VERTEX
8
0
10
-1.145000
20
-0.845000
0
VERTEX
8
0
10
-0.782000
20
-0.845000
0
VERTEX
8
0
10
-0.590000
20
-0.653000
0
VERTEX
8
0
10
-0.039000
20
-0.653000
0
VERTEX
8
0
10
0.193000
20
-0.886000
0
VERTEX
8
0
10
0.193000
20
-1.902000
0
VERTEX
8
0
10
0.226000
20
-1.937000
0
SEQEND
8
0
0
POLYLINE
8
0
66
1
40
0.025000
41
0.025000
0
VERTEX
8
0
10
0.312000
20
-2.837000
0
VERTEX
8
0
10
0.314000
20
-2.839000
0
VERTEX
8
0
10
0.379000
20
-2.839000
0
SEQEND
8
0
0
POLYLINE
8
0
66
1
40
0.025000
41
0.025000
0
VERTEX
8
0
10
1.352000
20
-0.638000
0
VERTEX
8
0
10
1.389000
20
-0.675000
0
VERTEX
8
0
10
1.868000
20
-0.675000
0
SEQEND
8
0
0
POLYLINE
8
0
66
1
40
0.025000
41
0.025000
0
VERTEX
8
0
10
0.903000
20
0.160000
0
VERTEX
8
0
10
1.325000
20
0.160000
0
VERTEX
8
0
10
1.338000
20
0.148000
0
SEQEND
8
0
0
POLYLINE
8
0
66
1
40
0.025000
41
0.025000
0
VERTEX
8
0
10
0.069000
20
0.372000
0
VERTEX
8
0
10
-0.078000
20
0.372000
0
SEQEND
8
0
0
POLYLINE
8
0
66
1
40
0.025000
41
0.025000
0
VERTEX
8
0
10
0.069000
20
0.372000
0
VERTEX
8
0
10
0.075000
20
0.378000
0
VERTEX
8
0
10
0.157000
20
0.460000
0
VERTEX
8
0
10
0.303000
20
0.460000
0
SEQEND
8
0
0
POLYLINE
8
0
66
1
40
0.025000
41
0.025000
0
VERTEX
8
0
10
-1.561000
20
0.458000
0
VERTEX
8
0
10
-1.572000
20
0.459000
0
VERTEX
8
0
10
-1.714000
20
0.459000
0
SEQEND
8
0
0
POLYLINE
8
0
66
1
40
0.025000
41
0.025000
0
VERTEX
8
0
10
-1.036000
20
0.973000
0
VERTEX
8
0
10
-1.036000
20
1.010000
0
VERTEX
8
0
10
-1.057000
20
1.031000
0
VERTEX
8
0
10
-1.494000
20
1.031000
0
VERTEX
8
0
10
-1.561000
20
0.946000
0
SEQEND
8
0
0
POLYLINE
8
0
66
1
40
0.025000
41
0.025000
0
VERTEX
8
0
10
-1.036000
20
0.623000
0
VERTEX
8
0
10
-1.036000
20
0.518000
0
VERTEX
8
0
10
-0.792000
20
0.274000
0
VERTEX
8
0
10
-0.028000
20
0.274000
0
VERTEX
8
0
10
0.069000
20
0.372000
0
SEQEND
8
0
0
POLYLINE
8
0
66
1
40
0.025000
41
0.025000
0
VERTEX
8
0
10
0.000000
20
0.543000
0
VERTEX
8
0
10
0.230000
20
0.543000
0
VERTEX
8
0
10
0.248000
20
0.560000
0
VERTEX
8
0
10
0.303000
20
0.560000
0
SEQEND
8
0
0
POLYLINE
8
0
66
1
40
0.025000
41
0.025000
0
VERTEX
8
0
10
-0.907000
20
0.573000
0
VERTEX
8
0
10
-0.877000
20
0.543000
0
VERTEX
8
0
10
0.000000
20
0.543000
0
VERTEX
8
0
10
-0.080000
20
0.462000
0
VERTEX
8
0
10
-0.080000
20
0.460000
0
SEQEND
8
0
0
POLYLINE
8
0
66
1
40
0.025000
41
0.025000
0
VERTEX
8
0
10
-0.956000
20
0.948000
0
VERTEX
8
0
10
-0.956000
20
0.992000
0
VERTEX
8
0
10
-1.036000
20
1.073000
0
VERTEX
8
0
10
-1.792000
20
1.073000
0
VERTEX
8
0
10
-1.890000
20
0.975000
0
VERTEX
8
0
10
-1.890000
20
0.620000
0
VERTEX
8
0
10
-1.829000
20
0.559000
0
VERTEX
8
0
10
-1.714000
20
0.559000
0
SEQEND
8
0
0
POLYLINE
8
0
66
1
40
0.025000
41
0.025000
0
VERTEX
8
0
10
-0.728000
20
1.394000
0
VERTEX
8
0
10
-0.728000
20
1.565000
0
SEQEND
8
0
0
POLYLINE
8
0
66
1
40
0.025000
41
0.025000
0
VERTEX
8
0
10
-0.671000
20
1.358000
0
VERTEX
8
0
10
-0.671000
20
1.263000
0
SEQEND
8
0
0
POLYLINE
8
0
66
1
40
0.025000
41
0.025000
0
VERTEX
8
0
10
-0.671000
20
1.358000
0
VERTEX
8
0
10
-0.692000
20
1.358000
0
VERTEX
8
0
10
-0.728000
20
1.394000
0
SEQEND
8
0
0
POLYLINE
8
0
66
1
40
0.025000
41
0.025000
0
VERTEX
8
0
10
-0.874000
20
1.427000
0
VERTEX
8
0
10
-0.874000
20
1.263000
0
VERTEX
8
0
10
-0.873000
20
1.263000
0
SEQEND
8
0
0
POLYLINE
8
0
66
1
40
0.025000
41
0.025000
0
VERTEX
8
0
10
-0.874000
20
1.427000
0
VERTEX
8
0
10
-0.854000
20
1.444000
0
VERTEX
8
0
10
-0.845000
20
1.453000
0
VERTEX
8
0
10
-0.845000
20
1.563000
0
SEQEND
8
0
0
POLYLINE
8
0
66
1
40
0.025000
41
0.025000
0
VERTEX
8
0
10
-0.471000
20
1.358000
0
VERTEX
8
0
10
-0.471000
20
1.263000
0
SEQEND
8
0
0
POLYLINE
8
0
66
1
40
0.025000
41
0.025000
0
VERTEX
8
0
10
-0.471000
20
1.358000
0
VERTEX
8
0
10
-0.526000
20
1.358000
0
VERTEX
8
0
10
-0.559000
20
1.369000
0
SEQEND
8
0
0
POLYLINE
8
0
66
1
40
0.025000
41
0.025000
0
VERTEX
8
0
10
-0.465000
20
1.546000
0
VERTEX
8
0
10
-0.465000
20
1.522000
0
SEQEND
8
0
0
POLYLINE
8
0
66
1
40
0.025000
41
0.025000
0
VERTEX
8
0
10
-0.465000
20
1.546000
0
VERTEX
8
0
10
-0.465000
20
1.548000
0
VERTEX
8
0
10
-0.464000
20
1.549000
0
SEQEND
8
0
0
POLYLINE
8
0
66
1
40
0.025000
41
0.025000
0
VERTEX
8
0
10
-0.559000
20
1.497000
0
VERTEX
8
0
10
-0.489000
20
1.498000
0
SEQEND
8
0
0
POLYLINE
8
0
66
1
40
0.025000
41
0.025000
0
VERTEX
8
0
10
-0.559000
20
1.497000
0
VERTEX
8
0
10
-0.489000
20
1.497000
0
VERTEX
8
0
10
-0.489000
20
1.498000
0
SEQEND
8
0
0
POLYLINE
8
0
66
1
40
0.025000
41
0.025000
0
VERTEX
8
0
10
-0.465000
20
1.522000
0
VERTEX
8
0
10
-0.489000
20
1.498000
0
SEQEND
8
0
0
POLYLINE
8
0
66
1
40
0.025000
41
0.025000
0
VERTEX
8
0
10
-0.271000
20
1.358000
0
VERTEX
8
0
10
-0.271000
20
1.263000
0
SEQEND
8
0
0
POLYLINE
8
0
66
1
40
0.025000
41
0.025000
0
VERTEX
8
0
10
-0.271000
20
1.358000
0
VERTEX
8
0
10
-0.303000
20
1.358000
0
SEQEND
8
0
0
POLYLINE
8
0
66
1
40
0.025000
41
0.025000
0
VERTEX
8
0
10
-0.336000
20
1.467000
0
VERTEX
8
0
10
-0.336000
20
1.484000
0
SEQEND
8
0
0
POLYLINE
8
0
66
1
40
0.025000
41
0.025000
0
VERTEX
8
0
10
-0.303000
20
1.358000
0
VERTEX
8
0
10
-0.336000
20
1.391000
0
VERTEX
8
0
10
-0.336000
20
1.467000
0
SEQEND
8
0
0
POLYLINE
8
0
66
1
40
0.025000
41
0.025000
0
VERTEX
8
0
10
-0.336000
20
1.484000
0
VERTEX
8
0
10
-0.266000
20
1.555000
0
SEQEND
8
0
0
POLYLINE
8
0
66
1
40
0.025000
41
0.025000
0
VERTEX
8
0
10
-0.071000
20
1.358000
0
VERTEX
8
0
10
-0.071000
20
1.263000
0
SEQEND
8
0
0
POLYLINE
8
0
66
1
40
0.025000
41
0.025000
0
VERTEX
8
0
10
-0.071000
20
1.358000
0
VERTEX
8
0
10
-0.192000
20
1.358000
0
SEQEND
8
0
0
POLYLINE
8
0
66
1
40
0.025000
41
0.025000
0
VERTEX
8
0
10
0.063000
20
1.498000
0
VERTEX
8
0
10
0.030000
20
1.498000
0
VERTEX
8
0
10
0.006000
20
1.521000
0
VERTEX
8
0
10
-0.009000
20
1.537000
0
SEQEND
8
0
0
POLYLINE
8
0
66
1
40
0.025000
41
0.025000
0
VERTEX
8
0
10
-0.636000
20
1.498000
0
VERTEX
8
0
10
-0.636000
20
1.502000
0
VERTEX
8
0
10
-0.657000
20
1.523000
0
VERTEX
8
0
10
-0.657000
20
1.554000
0
SEQEND
8
0
0
POLYLINE
8
0
66
1
40
0.025000
41
0.025000
0
VERTEX
8
0
10
-0.621000
20
1.103000
0
VERTEX
8
0
10
-0.621000
20
1.188000
0
VERTEX
8
0
10
-0.634000
20
1.188000
0
SEQEND
8
0
0
POLYLINE
8
0
66
1
40
0.025000
41
0.025000
0
VERTEX
8
0
10
-0.561000
20
1.273000
0
VERTEX
8
0
10
-0.561000
20
1.140000
0
VERTEX
8
0
10
-0.598000
20
1.103000
0
VERTEX
8
0
10
-0.621000
20
1.103000
0
VERTEX
8
0
10
-0.626000
20
1.103000
0
SEQEND
8
0
0
POLYLINE
8
0
66
1
40
0.025000
41
0.025000
0
VERTEX
8
0
10
-0.761000
20
1.173000
0
VERTEX
8
0
10
-0.761000
20
1.248000
0
VERTEX
8
0
10
-0.833000
20
1.248000
0
VERTEX
8
0
10
-0.833000
20
1.188000
0
VERTEX
8
0
10
-0.836000
20
1.188000
0
SEQEND
8
0
0
POLYLINE
8
0
66
1
40
0.025000
41
0.025000
0
VERTEX
8
0
10
-0.761000
20
1.173000
0
VERTEX
8
0
10
-0.761000
20
1.138000
0
VERTEX
8
0
10
-0.796000
20
1.103000
0
VERTEX
8
0
10
-0.826000
20
1.103000
0
SEQEND
8
0
0
POLYLINE
8
0
66
1
40
0.025000
41
0.025000
0
VERTEX
8
0
10
-1.086000
20
1.898000
0
VERTEX
8
0
10
1.060000
20
1.898000
0
VERTEX
8
0
10
1.127000
20
1.964000
0
VERTEX
8
0
10
1.127000
20
2.261000
0
SEQEND
8
0
0
POLYLINE
8
0
66
1
40
0.025000
41
0.025000
0
VERTEX
8
0
10
-0.425000
20
1.103000
0
VERTEX
8
0
10
-0.427000
20
1.103000
0
SEQEND
8
0
0
POLYLINE
8
0
66
1
40
0.025000
41
0.025000
0
VERTEX
8
0
10
-0.361000
20
1.247000
0
VERTEX
8
0
10
-0.361000
20
1.151000
0
VERTEX
8
0
10
-0.409000
20
1.103000
0
VERTEX
8
0
10
-0.425000
20
1.103000
0
VERTEX
8
0
10
-0.425000
20
1.188000
0
VERTEX
8
0
10
-0.434000
20
1.188000
0
SEQEND
8
0
0
POLYLINE
8
0
66
1
40
0.025000
41
0.025000
0
VERTEX
8
0
10
-0.586000
20
1.682000
0
VERTEX
8
0
10
-0.586000
20
1.573000
0
SEQEND
8
0
0
POLYLINE
8
0
66
1
40
0.025000
41
0.025000
0
VERTEX
8
0
10
-0.986000
20
1.548000
0
VERTEX
8
0
10
-1.000000
20
1.548000
0
VERTEX
8
0
10
-1.117000
20
1.664000
0
SEQEND
8
0
0
POLYLINE
8
0
66
1
40
0.025000
41
0.025000
0
VERTEX
8
0
10
-0.161000
20
1.198000
0
VERTEX
8
0
10
-0.171000
20
1.188000
0
VERTEX
8
0
10
-0.234000
20
1.188000
0
SEQEND
8
0
0
POLYLINE
8
0
66
1
40
0.025000
41
0.025000
0
VERTEX
8
0
10
-0.161000
20
1.198000
0
VERTEX
8
0
10
-0.161000
20
1.140000
0
VERTEX
8
0
10
-0.198000
20
1.103000
0
VERTEX
8
0
10
-0.227000
20
1.103000
0
SEQEND
8
0
0
POLYLINE
8
0
66
1
40
0.025000
41
0.025000
0
VERTEX
8
0
10
-0.027000
20
1.103000
0
VERTEX
8
0
10
-0.035000
20
1.103000
0
VERTEX
8
0
10
-0.035000
20
1.188000
0
VERTEX
8
0
10
-0.034000
20
1.188000
0
SEQEND
8
0
0
POLYLINE
8
0
66
1
40
0.025000
41
0.025000
0
VERTEX
8
0
10
-0.027000
20
1.103000
0
VERTEX
8
0
10
-0.027000
20
1.103000
0
VERTEX
8
0
10
0.068000
20
1.103000
0
VERTEX
8
0
10
0.068000
20
1.103000
0
SEQEND
8
0
0
POLYLINE
8
0
66
1
40
0.025000
41
0.025000
0
VERTEX
8
0
10
0.639000
20
-0.824000
0
VERTEX
8
0
10
0.919000
20
-0.824000
0
SEQEND
8
0
0
POLYLINE
8
0
66
1
40
0.025000
41
0.025000
0
VERTEX
8
0
10
1.289000
20
-0.825000
0
VERTEX
8
0
10
1.288000
20
-0.824000
0
VERTEX
8
0
10
0.977000
20
-0.824000
0
SEQEND
8
0
0
POLYLINE
8
0
66
1
40
0.025000
41
0.025000
0
VERTEX
8
0
10
0.919000
20
-0.824000
0
VERTEX
8
0
10
0.977000
20
-0.824000
0
SEQEND
8
0
0
POLYLINE
8
0
66
1
40
0.025000
41
0.025000
0
VERTEX
8
0
10
0.557000
20
-0.824000
0
VERTEX
8
0
10
0.639000
20
-0.824000
0
SEQEND
8
0
0
POLYLINE
8
0
66
1
40
0.025000
41
0.025000
0
VERTEX
8
0
10
0.263000
20
2.543000
0
VERTEX
8
0
10
0.263000
20
2.507000
0
SEQEND
8
0
0
POLYLINE
8
0
66
1
40
0.025000
41
0.025000
0
VERTEX
8
0
10
0.263000
20
2.543000
0
VERTEX
8
0
10
0.319000
20
2.600000
0
VERTEX
8
0
10
0.368000
20
2.600000
0
SEQEND
8
0
0
POLYLINE
8
0
66
1
40
0.025000
41
0.025000
0
VERTEX
8
0
10
-0.811000
20
2.398000
0
VERTEX
8
0
10
0.213000
20
2.398000
0
VERTEX
8
0
10
0.263000
20
2.448000
0
VERTEX
8
0
10
0.263000
20
2.507000
0
SEQEND
8
0
0
POLYLINE
8
0
66
1
40
0.025000
41
0.025000
0
VERTEX
8
0
10
1.030000
20
2.691000
0
VERTEX
8
0
10
1.030000
20
2.645000
0
VERTEX
8
0
10
0.985000
20
2.600000
0
VERTEX
8
0
10
0.368000
20
2.600000
0
SEQEND
8
0
0
POLYLINE
8
0
66
1
40
0.025000
41
0.025000
0
VERTEX
8
0
10
-2.036000
20
1.223000
0
VERTEX
8
0
10
-2.111000
20
1.148000
0
VERTEX
8
0
10
-2.111000
20
1.073000
0
SEQEND
8
0
0
POLYLINE
8
0
66
1
40
0.025000
41
0.025000
0
VERTEX
8
0
10
-1.686000
20
1.223000
0
VERTEX
8
0
10
-1.786000
20
1.223000
0
SEQEND
8
0
0
POLYLINE
8
0
66
1
40
0.030000
41
0.030000
0
VERTEX
8
0
10
1.253000
20
2.093000
0
VERTEX
8
0
10
1.253000
20
2.173000
0
VERTEX
8
0
10
1.323000
20
2.243000
0
VERTEX
8
0
10
1.588000
20
2.243000
0
SEQEND
8
0
0
POLYLINE
8
0
66
1
40
0.030000
41
0.030000
0
VERTEX
8
0
10
1.461000
20
2.803000
0
VERTEX
8
0
10
1.461000
20
2.859000
0
VERTEX
8
0
10
-1.800000
20
2.859000
0
VERTEX
8
0
10
-1.836000
20
2.823000
0
SEQEND
8
0
0
POLYLINE
8
0
66
1
40
0.030000
41
0.030000
0
VERTEX
8
0
10
1.253000
20
2.093000
0
VERTEX
8
0
10
1.253000
20
2.033000
0
VERTEX
8
0
10
1.263000
20
2.023000
0
VERTEX
8
0
10
1.263000
20
1.973000
0
SEQEND
8
0
0
POLYLINE
8
0
66
1
40
0.030000
41
0.030000
0
VERTEX
8
0
10
-0.710000
20
1.103000
0
VERTEX
8
0
10
-0.708000
20
1.103000
0
VERTEX
8
0
10
-0.708000
20
1.188000
0
SEQEND
8
0
0
POLYLINE
8
0
66
1
40
0.030000
41
0.030000
0
VERTEX
8
0
10
1.263000
20
1.973000
0
VERTEX
8
0
10
1.263000
20
1.738000
0
SEQEND
8
0
0
POLYLINE
8
0
66
1
40
0.030000
41
0.030000
0
VERTEX
8
0
10
-0.910000
20
1.103000
0
VERTEX
8
0
10
-0.910000
20
1.188000
0
SEQEND
8
0
0
POLYLINE
8
0
66
1
40
0.030000
41
0.030000
0
VERTEX
8
0
10
-0.710000
20
1.103000
0
VERTEX
8
0
10
-0.710000
20
1.035000
0
SEQEND
8
0
0
POLYLINE
8
0
66
1
40
0.030000
41
0.030000
0
VERTEX
8
0
10
-1.550000
20
2.816000
0
VERTEX
8
0
10
-1.536000
20
2.816000
0
SEQEND
8
0
0
POLYLINE
8
0
66
1
40
0.030000
41
0.030000
0
VERTEX
8
0
10
1.466000
20
2.803000
0
VERTEX
8
0
10
1.705000
20
2.803000
0
VERTEX
8
0
10
1.761000
20
2.747000
0
VERTEX
8
0
10
1.761000
20
2.593000
0
SEQEND
8
0
0
POLYLINE
8
0
66
1
40
0.030000
41
0.030000
0
VERTEX
8
0
10
1.461000
20
2.803000
0
VERTEX
8
0
10
1.466000
20
2.803000
0
SEQEND
8
0
0
POLYLINE
8
0
66
1
40
0.030000
41
0.030000
0
VERTEX
8
0
10
1.531000
20
2.653000
0
VERTEX
8
0
10
1.531000
20
2.737000
0
VERTEX
8
0
10
1.466000
20
2.803000
0
SEQEND
8
0
0
POLYLINE
8
0
66
1
40
0.030000
41
0.030000
0
VERTEX
8
0
10
1.531000
20
2.653000
0
VERTEX
8
0
10
1.701000
20
2.653000
0
VERTEX
8
0
10
1.761000
20
2.593000
0
SEQEND
8
0
0
POLYLINE
8
0
66
1
40
0.030000
41
0.030000
0
VERTEX
8
0
10
1.490000
20
2.468000
0
VERTEX
8
0
10
1.531000
20
2.509000
0
VERTEX
8
0
10
1.531000
20
2.551000
0
VERTEX
8
0
10
1.531000
20
2.615000
0
SEQEND
8
0
0
POLYLINE
8
0
66
1
40
0.030000
41
0.030000
0
VERTEX
8
0
10
1.531000
20
2.653000
0
VERTEX
8
0
10
1.531000
20
2.615000
0
SEQEND
8
0
0
POLYLINE
8
0
66
1
40
0.030000
41
0.030000
0
VERTEX
8
0
10
1.569000
20
-2.843000
0
VERTEX
8
0
10
1.609000
20
-2.847000
0
VERTEX
8
0
10
1.660000
20
-2.847000
0
VERTEX
8
0
10
1.701000
20
-2.807000
0
SEQEND
8
0
0
POLYLINE
8
0
66
1
40
0.030000
41
0.030000
0
VERTEX
8
0
10
1.245000
20
-2.751000
0
VERTEX
8
0
10
1.471000
20
-2.751000
0
SEQEND
8
0
0
POLYLINE
8
0
66
1
40
0.030000
41
0.030000
0
VERTEX
8
0
10
0.013000
20
-2.302000
0
VERTEX
8
0
10
0.094000
20
-2.302000
0
VERTEX
8
0
10
0.234000
20
-2.442000
0
VERTEX
8
0
10
0.234000
20
-2.697000
0
VERTEX
8
0
10
0.288000
20
-2.751000
0
VERTEX
8
0
10
1.245000
20
-2.751000
0
VERTEX
8
0
10
1.150000
20
-2.846000
0
SEQEND
8
0
0
POLYLINE
8
0
66
1
40
0.030000
41
0.030000
0
VERTEX
8
0
10
1.471000
20
-2.751000
0
VERTEX
8
0
10
1.539000
20
-2.751000
0
VERTEX
8
0
10
1.569000
20
-2.781000
0
VERTEX
8
0
10
1.569000
20
-2.837000
0
SEQEND
8
0
0
POLYLINE
8
0
66
1
40
0.030000
41
0.030000
0
VERTEX
8
0
10
-1.502000
20
-2.888000
0
VERTEX
8
0
10
-1.530000
20
-2.861000
0
VERTEX
8
0
10
-1.664000
20
-2.861000
0
VERTEX
8
0
10
-1.664000
20
-2.860000
0
SEQEND
8
0
0
POLYLINE
8
0
66
1
40
0.030000
41
0.030000
0
VERTEX
8
0
10
-1.560000
20
2.816000
0
VERTEX
8
0
10
-1.744000
20
2.816000
0
SEQEND
8
0
0
POLYLINE
8
0
66
1
40
0.030000
41
0.030000
0
VERTEX
8
0
10
-1.516000
20
2.816000
0
VERTEX
8
0
10
-1.536000
20
2.816000
0
SEQEND
8
0
0
POLYLINE
8
0
66
1
40
0.030000
41
0.030000
0
VERTEX
8
0
10
-1.560000
20
2.816000
0
VERTEX
8
0
10
-1.550000
20
2.816000
0
SEQEND
8
0
0
POLYLINE
8
0
66
1
40
0.030000
41
0.030000
0
VERTEX
8
0
10
-1.795000
20
2.719000
0
VERTEX
8
0
10
-1.795000
20
2.765000
0
VERTEX
8
0
10
-1.744000
20
2.816000
0
SEQEND
8
0
0
POLYLINE
8
0
66
1
40
0.030000
41
0.030000
0
VERTEX
8
0
10
-1.475000
20
2.728000
0
VERTEX
8
0
10
-1.475000
20
2.776000
0
SEQEND
8
0
0
POLYLINE
8
0
66
1
40
0.030000
41
0.030000
0
VERTEX
8
0
10
-1.516000
20
2.816000
0
VERTEX
8
0
10
-1.475000
20
2.776000
0
SEQEND
8
0
0
POLYLINE
8
0
66
1
40
0.030000
41
0.030000
0
VERTEX
8
0
10
-2.287000
20
-0.761000
0
VERTEX
8
0
10
-2.240000
20
-0.714000
0
VERTEX
8
0
10
-2.113000
20
-0.714000
0
VERTEX
8
0
10
-1.877000
20
-0.478000
0
VERTEX
8
0
10
-1.624000
20
-0.478000
0
VERTEX
8
0
10
-1.206000
20
-0.896000
0
VERTEX
8
0
10
-0.324000
20
-0.896000
0
VERTEX
8
0
10
-0.261000
20
-0.959000
0
VERTEX
8
0
10
-0.261000
20
-2.407000
0
SEQEND
8
0
0
POLYLINE
8
0
66
1
40
0.030000
41
0.030000
0
VERTEX
8
0
10
-2.287000
20
-0.761000
0
VERTEX
8
0
10
-2.287000
20
-0.743000
0
VERTEX
8
0
10
-2.329000
20
-0.701000
0
VERTEX
8
0
10
-2.530000
20
-0.701000
0
VERTEX
8
0
10
-2.566000
20
-0.665000
0
VERTEX
8
0
10
-2.566000
20
-0.473000
0
VERTEX
8
0
10
-2.561000
20
-0.468000
0
SEQEND
8
0
0
POLYLINE
8
0
66
1
40
0.030000
41
0.030000
0
VERTEX
8
0
10
-2.287000
20
-0.761000
0
VERTEX
8
0
10
-2.287000
20
-0.803000
0
VERTEX
8
0
10
-2.287000
20
-0.803000
0
VERTEX
8
0
10
-2.287000
20
-0.822000
0
SEQEND
8
0
0
POLYLINE
8
0
66
1
40
0.030000
41
0.030000
0
VERTEX
8
0
10
-0.281000
20
-2.818000
0
VERTEX
8
0
10
-0.281000
20
-2.883000
0
SEQEND
8
0
0
POLYLINE
8
0
66
1
40
0.030000
41
0.030000
0
VERTEX
8
0
10
-0.535000
20
-2.748000
0
VERTEX
8
0
10
-0.351000
20
-2.748000
0
VERTEX
8
0
10
-0.281000
20
-2.818000
0
SEQEND
8
0
0
POLYLINE
8
0
66
1
40
0.030000
41
0.030000
0
VERTEX
8
0
10
-0.511000
20
1.103000
0
VERTEX
8
0
10
-0.508000
20
1.103000
0
VERTEX
8
0
10
-0.508000
20
1.188000
0
SEQEND
8
0
0
POLYLINE
8
0
66
1
40
0.030000
41
0.030000
0
VERTEX
8
0
10
-0.111000
20
1.103000
0
VERTEX
8
0
10
-0.108000
20
1.103000
0
VERTEX
8
0
10
-0.108000
20
1.188000
0
SEQEND
8
0
0
POLYLINE
8
0
66
1
40
0.030000
41
0.030000
0
VERTEX
8
0
10
-1.263000
20
1.472000
0
VERTEX
8
0
10
-1.264000
20
1.471000
0
VERTEX
8
0
10
-1.263000
20
1.471000
0
SEQEND
8
0
0
POLYLINE
8
0
66
1
40
0.030000
41
0.030000
0
VERTEX
8
0
10
-1.263000
20
1.472000
0
VERTEX
8
0
10
-1.233000
20
1.502000
0
VERTEX
8
0
10
-1.232000
20
1.502000
0
SEQEND
8
0
0
POLYLINE
8
0
66
1
40
0.030000
41
0.030000
0
VERTEX
8
0
10
-1.263000
20
1.471000
0
VERTEX
8
0
10
-1.232000
20
1.502000
0
VERTEX
8
0
10
-1.160000
20
1.502000
0
VERTEX
8
0
10
-1.135000
20
1.502000
0
SEQEND
8
0
0
POLYLINE
8
0
66
1
40
0.030000
41
0.030000
0
VERTEX
8
0
10
-1.261000
20
1.198000
0
VERTEX
8
0
10
-1.251000
20
1.188000
0
SEQEND
8
0
0
POLYLINE
8
0
66
1
40
0.030000
41
0.030000
0
VERTEX
8
0
10
-0.910000
20
1.188000
0
VERTEX
8
0
10
-1.251000
20
1.188000
0
SEQEND
8
0
0
POLYLINE
8
0
66
1
40
0.030000
41
0.030000
0
VERTEX
8
0
10
-1.269000
20
2.342000
0
VERTEX
8
0
10
-1.260000
20
2.333000
0
VERTEX
8
0
10
-1.260000
20
2.259000
0
SEQEND
8
0
0
POLYLINE
8
0
66
1
40
0.030000
41
0.030000
0
VERTEX
8
0
10
-1.269000
20
2.342000
0
VERTEX
8
0
10
-1.271000
20
2.344000
0
SEQEND
8
0
0
POLYLINE
8
0
66
1
40
0.030000
41
0.030000
0
VERTEX
8
0
10
-1.425000
20
2.498000
0
VERTEX
8
0
10
-1.271000
20
2.344000
0
SEQEND
8
0
0
POLYLINE
8
0
66
1
40
0.030000
41
0.030000
0
VERTEX
8
0
10
0.013000
20
-2.302000
0
VERTEX
8
0
10
-0.156000
20
-2.302000
0
VERTEX
8
0
10
-0.261000
20
-2.407000
0
VERTEX
8
0
10
-0.261000
20
-2.464000
0
VERTEX
8
0
10
-0.261000
20
-2.798000
0
VERTEX
8
0
10
-0.281000
20
-2.818000
0
SEQEND
8
0
0
POLYLINE
8
0
66
1
40
0.030000
41
0.030000
0
VERTEX
8
0
10
-1.361000
20
0.548000
0
VERTEX
8
0
10
-1.250000
20
0.659000
0
VERTEX
8
0
10
-1.114000
20
0.659000
0
SEQEND
8
0
0
POLYLINE
8
0
66
1
40
0.030000
41
0.030000
0
VERTEX
8
0
10
-0.866000
20
2.474000
0
VERTEX
8
0
10
-0.866000
20
2.478000
0
SEQEND
8
0
0
POLYLINE
8
0
66
1
40
0.030000
41
0.030000
0
VERTEX
8
0
10
-0.866000
20
2.474000
0
VERTEX
8
0
10
-0.866000
20
2.460000
0
SEQEND
8
0
0
POLYLINE
8
0
66
1
40
0.030000
41
0.030000
0
VERTEX
8
0
10
-0.866000
20
2.474000
0
VERTEX
8
0
10
-0.870000
20
2.478000
0
SEQEND
8
0
0
POLYLINE
8
0
66
1
40
0.030000
41
0.030000
0
VERTEX
8
0
10
-1.475000
20
2.728000
0
VERTEX
8
0
10
-1.475000
20
2.724000
0
SEQEND
8
0
0
POLYLINE
8
0
66
1
40
0.030000
41
0.030000
0
VERTEX
8
0
10
-1.425000
20
2.498000
0
VERTEX
8
0
10
-1.425000
20
2.588000
0
VERTEX
8
0
10
-1.475000
20
2.637000
0
VERTEX
8
0
10
-1.475000
20
2.728000
0
VERTEX
8
0
10
-1.475000
20
2.728000
0
SEQEND
8
0
0
POLYLINE
8
0
66
1
40
0.030000
41
0.030000
0
VERTEX
8
0
10
-0.162000
20
0.372000
0
VERTEX
8
0
10
-0.164000
20
0.374000
0
VERTEX
8
0
10
-0.164000
20
0.460000
0
SEQEND
8
0
0
POLYLINE
8
0
66
1
40
0.030000
41
0.030000
0
VERTEX
8
0
10
1.569000
20
-2.843000
0
VERTEX
8
0
10
1.569000
20
-2.837000
0
SEQEND
8
0
0
POLYLINE
8
0
66
1
40
0.030000
41
0.030000
0
VERTEX
8
0
10
-0.910000
20
1.103000
0
VERTEX
8
0
10
-0.910000
20
1.065000
0
VERTEX
8
0
10
-0.861000
20
1.016000
0
VERTEX
8
0
10
-0.861000
20
0.972000
0
SEQEND
8
0
0
POLYLINE
8
0
66
1
40
0.030000
41
0.030000
0
VERTEX
8
0
10
-0.544000
20
0.843000
0
VERTEX
8
0
10
-0.544000
20
0.951000
0
SEQEND
8
0
0
POLYLINE
8
0
66
1
40
0.030000
41
0.030000
0
VERTEX
8
0
10
-0.511000
20
1.103000
0
VERTEX
8
0
10
-0.581000
20
1.033000
0
VERTEX
8
0
10
-0.700000
20
1.033000
0
VERTEX
8
0
10
-0.710000
20
1.035000
0
SEQEND
8
0
0
POLYLINE
8
0
66
1
40
0.030000
41
0.030000
0
VERTEX
8
0
10
-0.861000
20
0.972000
0
VERTEX
8
0
10
-0.801000
20
1.033000
0
VERTEX
8
0
10
-0.710000
20
1.033000
0
VERTEX
8
0
10
-0.710000
20
1.035000
0
SEQEND
8
0
0
POLYLINE
8
0
66
1
40
0.030000
41
0.030000
0
VERTEX
8
0
10
-0.510000
20
1.023000
0
VERTEX
8
0
10
-0.527000
20
1.005000
0
SEQEND
8
0
0
POLYLINE
8
0
66
1
40
0.030000
41
0.030000
0
VERTEX
8
0
10
-0.510000
20
1.023000
0
VERTEX
8
0
10
-0.507000
20
1.025000
0
VERTEX
8
0
10
-0.490000
20
1.043000
0
SEQEND
8
0
0
POLYLINE
8
0
66
1
40
0.030000
41
0.030000
0
VERTEX
8
0
10
-0.308000
20
1.103000
0
VERTEX
8
0
10
-0.308000
20
1.188000
0
SEQEND
8
0
0
POLYLINE
8
0
66
1
40
0.030000
41
0.030000
0
VERTEX
8
0
10
-0.308000
20
1.103000
0
VERTEX
8
0
10
-0.311000
20
1.100000
0
SEQEND
8
0
0
POLYLINE
8
0
66
1
40
0.030000
41
0.030000
0
VERTEX
8
0
10
-0.311000
20
1.103000
0
VERTEX
8
0
10
-0.308000
20
1.103000
0
SEQEND
8
0
0
POLYLINE
8
0
66
1
40
0.030000
41
0.030000
0
VERTEX
8
0
10
-0.311000
20
1.100000
0
VERTEX
8
0
10
-0.368000
20
1.043000
0
SEQEND
8
0
0
POLYLINE
8
0
66
1
40
0.030000
41
0.030000
0
VERTEX
8
0
10
-0.311000
20
1.103000
0
VERTEX
8
0
10
-0.311000
20
1.100000
0
SEQEND
8
0
0
POLYLINE
8
0
66
1
40
0.030000
41
0.030000
0
VERTEX
8
0
10
-0.311000
20
1.043000
0
VERTEX
8
0
10
-0.175000
20
1.043000
0
SEQEND
8
0
0
POLYLINE
8
0
66
1
40
0.030000
41
0.030000
0
VERTEX
8
0
10
-0.111000
20
1.103000
0
VERTEX
8
0
10
-0.131000
20
1.085000
0
VERTEX
8
0
10
-0.173000
20
1.043000
0
VERTEX
8
0
10
-0.175000
20
1.043000
0
VERTEX
8
0
10
-0.115000
20
1.103000
0
SEQEND
8
0
0
POLYLINE
8
0
66
1
40
0.030000
41
0.030000
0
VERTEX
8
0
10
-0.511000
20
1.103000
0
VERTEX
8
0
10
-0.511000
20
1.070000
0
VERTEX
8
0
10
-0.484000
20
1.043000
0
SEQEND
8
0
0
POLYLINE
8
0
66
1
40
0.030000
41
0.030000
0
VERTEX
8
0
10
-0.490000
20
1.043000
0
VERTEX
8
0
10
-0.484000
20
1.043000
0
SEQEND
8
0
0
POLYLINE
8
0
66
1
40
0.030000
41
0.030000
0
VERTEX
8
0
10
-0.368000
20
1.043000
0
VERTEX
8
0
10
-0.311000
20
1.043000
0
SEQEND
8
0
0
POLYLINE
8
0
66
1
40
0.030000
41
0.030000
0
VERTEX
8
0
10
1.463000
20
0.952000
0
VERTEX
8
0
10
1.463000
20
1.056000
0
VERTEX
8
0
10
1.532000
20
1.126000
0
VERTEX
8
0
10
1.646000
20
1.126000
0
SEQEND
8
0
0
POLYLINE
8
0
66
1
40
0.030000
41
0.030000
0
VERTEX
8
0
10
1.655000
20
1.126000
0
VERTEX
8
0
10
1.646000
20
1.126000
0
SEQEND
8
0
0
POLYLINE
8
0
66
1
40
0.030000
41
0.030000
0
VERTEX
8
0
10
1.588000
20
2.243000
0
VERTEX
8
0
10
1.588000
20
2.292000
0
SEQEND
8
0
0
POLYLINE
8
0
66
1
40
0.030000
41
0.030000
0
VERTEX
8
0
10
1.490000
20
2.468000
0
VERTEX
8
0
10
1.588000
20
2.370000
0
VERTEX
8
0
10
1.588000
20
2.292000
0
SEQEND
8
0
0
POLYLINE
8
0
66
1
40
0.030000
41
0.030000
0
VERTEX
8
0
10
-0.866000
20
2.460000
0
VERTEX
8
0
10
0.119000
20
2.460000
0
VERTEX
8
0
10
0.189000
20
2.530000
0
VERTEX
8
0
10
0.189000
20
2.632000
0
SEQEND
8
0
0
POLYLINE
8
0
66
1
40
0.030000
41
0.030000
0
VERTEX
8
0
10
-1.269000
20
2.342000
0
VERTEX
8
0
10
-0.944000
20
2.342000
0
VERTEX
8
0
10
-0.866000
20
2.420000
0
VERTEX
8
0
10
-0.866000
20
2.460000
0
SEQEND
8
0
0
POLYLINE
8
0
66
1
40
0.030000
41
0.030000
0
VERTEX
8
0
10
-2.561000
20
-0.468000
0
VERTEX
8
0
10
-2.561000
20
-0.245000
0
VERTEX
8
0
10
-2.519000
20
-0.202000
0
SEQEND
8
0
0
POLYLINE
8
0
66
1
40
0.030000
41
0.030000
0
VERTEX
8
0
10
-1.361000
20
0.548000
0
VERTEX
8
0
10
-1.361000
20
-0.213000
0
VERTEX
8
0
10
-1.449000
20
-0.301000
0
VERTEX
8
0
10
-2.090000
20
-0.301000
0
VERTEX
8
0
10
-2.215000
20
-0.426000
0
VERTEX
8
0
10
-2.519000
20
-0.426000
0
VERTEX
8
0
10
-2.561000
20
-0.468000
0
SEQEND
8
0
0
POLYLINE
8
0
66
1
40
0.030000
41
0.030000
0
VERTEX
8
0
10
-0.162000
20
0.372000
0
VERTEX
8
0
10
-0.515000
20
0.372000
0
SEQEND
8
0
0
POLYLINE
8
0
66
1
40
0.030000
41
0.030000
0
VERTEX
8
0
10
-0.542000
20
0.399000
0
VERTEX
8
0
10
-0.515000
20
0.372000
0
SEQEND
8
0
0
POLYLINE
8
0
66
1
40
0.030000
41
0.030000
0
VERTEX
8
0
10
-0.544000
20
0.951000
0
VERTEX
8
0
10
-0.544000
20
0.967000
0
SEQEND
8
0
0
POLYLINE
8
0
66
1
40
0.030000
41
0.030000
0
VERTEX
8
0
10
-0.484000
20
1.043000
0
VERTEX
8
0
10
-0.468000
20
1.043000
0
SEQEND
8
0
0
POLYLINE
8
0
66
1
40
0.030000
41
0.030000
0
VERTEX
8
0
10
-0.368000
20
1.043000
0
VERTEX
8
0
10
-0.468000
20
1.043000
0
SEQEND
8
0
0
POLYLINE
8
0
66
1
40
0.030000
41
0.030000
0
VERTEX
8
0
10
-0.544000
20
0.967000
0
VERTEX
8
0
10
-0.468000
20
1.043000
0
SEQEND
8
0
0
POLYLINE
8
0
66
1
40
0.030000
41
0.030000
0
VERTEX
8
0
10
-0.527000
20
1.005000
0
VERTEX
8
0
10
-0.544000
20
0.989000
0
VERTEX
8
0
10
-0.544000
20
0.967000
0
SEQEND
8
0
0
POLYLINE
8
0
66
1
40
0.030000
41
0.030000
0
VERTEX
8
0
10
1.263000
20
0.753000
0
VERTEX
8
0
10
1.263000
20
0.844000
0
SEQEND
8
0
0
POLYLINE
8
0
66
1
40
0.030000
41
0.030000
0
VERTEX
8
0
10
1.263000
20
0.753000
0
VERTEX
8
0
10
1.263000
20
0.753000
0
VERTEX
8
0
10
1.171000
20
0.660000
0
SEQEND
8
0
0
POLYLINE
8
0
66
1
40
0.030000
41
0.030000
0
VERTEX
8
0
10
1.263000
20
0.753000
0
VERTEX
8
0
10
1.171000
20
0.660000
0
SEQEND
8
0
0
POLYLINE
8
0
66
1
40
0.030000
41
0.030000
0
VERTEX
8
0
10
1.106000
20
0.660000
0
VERTEX
8
0
10
1.123000
20
0.660000
0
VERTEX
8
0
10
1.171000
20
0.660000
0
VERTEX
8
0
10
1.171000
20
0.660000
0
VERTEX
8
0
10
1.385000
20
0.660000
0
VERTEX
8
0
10
1.463000
20
0.738000
0
SEQEND
8
0
0
POLYLINE
8
0
66
1
40
0.030000
41
0.030000
0
VERTEX
8
0
10
1.463000
20
0.844000
0
VERTEX
8
0
10
1.463000
20
0.738000
0
SEQEND
8
0
0
POLYLINE
8
0
66
1
40
0.030000
41
0.030000
0
VERTEX
8
0
10
1.106000
20
0.660000
0
VERTEX
8
0
10
0.903000
20
0.660000
0
SEQEND
8
0
0
POLYLINE
8
0
66
1
40
0.040000
41
0.040000
0
VERTEX
8
0
10
1.152000
20
-0.746000
0
VERTEX
8
0
10
1.152000
20
-0.755000
0
VERTEX
8
0
10
1.488000
20
-0.755000
0
VERTEX
8
0
10
1.489000
20
-0.753000
0
VERTEX
8
0
10
2.168000
20
-0.753000
0
VERTEX
8
0
10
2.186000
20
-0.735000
0
SEQEND
8
0
0
POLYLINE
8
0
66
1
40
0.050000
41
0.050000
0
VERTEX
8
0
10
1.152000
20
-0.746000
0
VERTEX
8
0
10
1.152000
20
-0.650000
0
VERTEX
8
0
10
1.036000
20
-0.533000
0
VERTEX
8
0
10
-0.749000
20
-0.533000
0
VERTEX
8
0
10
-0.855000
20
-0.639000
0
VERTEX
8
0
10
-0.855000
20
-0.747000
0
SEQEND
8
0
0
POLYLINE
8
0
66
1
40
0.025000
41
0.025000
0
VERTEX
8
0
10
1.713000
20
0.648000
0
VERTEX
8
0
10
1.713000
20
0.021000
0
VERTEX
8
0
10
1.889000
20
-0.126000
0
SEQEND
8
0
0
POLYLINE
8
0
66
1
40
0.025000
41
0.025000
0
VERTEX
8
0
10
2.137000
20
-0.123000
0
VERTEX
8
0
10
2.519000
20
-0.126000
0
VERTEX
8
0
10
2.613000
20
-0.232000
0
VERTEX
8
0
10
2.613000
20
-0.622000
0
VERTEX
8
0
10
2.588000
20
-0.647000
0
VERTEX
8
0
10
2.526000
20
-0.647000
0
SEQEND
8
0
0
POLYLINE
8
0
66
1
40
0.030000
41
0.030000
0
VERTEX
8
0
10
1.733000
20
1.598000
0
VERTEX
8
0
10
1.768000
20
1.598000
0
VERTEX
8
0
10
1.838000
20
1.668000
0
VERTEX
8
0
10
1.838000
20
1.668000
0
VERTEX
8
0
10
1.867000
20
1.698000
0
VERTEX
8
0
10
1.910000
20
1.698000
0
SEQEND
8
0
0
POLYLINE
8
0
66
1
40
0.025000
41
0.025000
0
VERTEX
8
0
10
0.313000
20
1.348000
0
VERTEX
8
0
10
1.082000
20
1.348000
0
VERTEX
8
0
10
1.152000
20
1.278000
0
VERTEX
8
0
10
1.692000
20
1.278000
0
VERTEX
8
0
10
1.777000
20
1.363000
0
VERTEX
8
0
10
1.777000
20
1.365000
0
VERTEX
8
0
10
1.910000
20
1.498000
0
VERTEX
8
0
10
1.910000
20
1.598000
0
SEQEND
8
0
0
POLYLINE
8
0
66
1
40
0.030000
41
0.030000
0
VERTEX
8
0
10
1.910000
20
1.798000
0
VERTEX
8
0
10
1.787000
20
1.921000
0
VERTEX
8
0
10
1.787000
20
2.253000
0
VERTEX
8
0
10
1.712000
20
2.328000
0
VERTEX
8
0
10
1.711000
20
2.329000
0
VERTEX
8
0
10
1.734000
20
2.329000
0
VERTEX
8
0
10
1.733000
20
2.328000
0
VERTEX
8
0
10
1.712000
20
2.328000
0
VERTEX
8
0
10
1.623000
20
2.328000
0
VERTEX
8
0
10
1.588000
20
2.292000
0
SEQEND
8
0
0
POLYLINE
8
0
66
1
40
0.025000
41
0.025000
0
VERTEX
8
0
10
1.734000
20
2.397000
0
VERTEX
8
0
10
1.853000
20
2.397000
0
VERTEX
8
0
10
1.899000
20
2.350000
0
VERTEX
8
0
10
1.899000
20
2.295000
0
VERTEX
8
0
10
1.899000
20
2.294000
0
SEQEND
8
0
0
POLYLINE
8
0
66
1
40
0.025000
41
0.025000
0
VERTEX
8
0
10
1.899000
20
2.094000
0
VERTEX
8
0
10
1.894000
20
2.089000
0
VERTEX
8
0
10
1.894000
20
1.963000
0
VERTEX
8
0
10
1.933000
20
1.963000
0
SEQEND
8
0
0
POLYLINE
8
0
66
1
40
0.025000
41
0.025000
0
VERTEX
8
0
10
1.038000
20
1.773000
0
VERTEX
8
0
10
-0.216000
20
1.773000
0
VERTEX
8
0
10
-0.266000
20
1.723000
0
VERTEX
8
0
10
-0.266000
20
1.623000
0
SEQEND
8
0
0
POLYLINE
8
0
66
1
40
0.030000
41
0.030000
0
VERTEX
8
0
10
1.655000
20
1.126000
0
VERTEX
8
0
10
1.937000
20
1.126000
0
VERTEX
8
0
10
1.983000
20
1.081000
0
VERTEX
8
0
10
1.983000
20
0.269000
0
VERTEX
8
0
10
1.982000
20
0.268000
0
VERTEX
8
0
10
1.982000
20
0.165000
0
VERTEX
8
0
10
1.955000
20
0.139000
0
SEQEND
8
0
0
POLYLINE
8
0
66
1
40
0.030000
41
0.030000
0
VERTEX
8
0
10
2.226000
20
-0.468000
0
VERTEX
8
0
10
2.276000
20
-0.468000
0
VERTEX
8
0
10
2.338000
20
-0.530000
0
VERTEX
8
0
10
2.338000
20
-0.826000
0
VERTEX
8
0
10
2.359000
20
-0.847000
0
VERTEX
8
0
10
2.426000
20
-0.847000
0
SEQEND
8
0
0
POLYLINE
8
0
66
1
40
0.025000
41
0.025000
0
VERTEX
8
0
10
0.038000
20
1.298000
0
VERTEX
8
0
10
1.013000
20
1.298000
0
VERTEX
8
0
10
1.088000
20
1.223000
0
VERTEX
8
0
10
1.745000
20
1.223000
0
VERTEX
8
0
10
1.897000
20
1.375000
0
VERTEX
8
0
10
1.911000
20
1.375000
0
SEQEND
8
0
0
POLYLINE
8
0
66
1
40
0.025000
41
0.025000
0
VERTEX
8
0
10
0.488000
20
-0.351000
0
VERTEX
8
0
10
2.038000
20
-0.351000
0
VERTEX
8
0
10
2.024000
20
-0.337000
0
VERTEX
8
0
10
2.024000
20
1.372000
0
VERTEX
8
0
10
2.021000
20
1.372000
0
VERTEX
8
0
10
2.021000
20
1.372000
0
VERTEX
8
0
10
2.017000
20
1.372000
0
SEQEND
8
0
0
POLYLINE
8
0
66
1
40
0.025000
41
0.025000
0
VERTEX
8
0
10
2.021000
20
1.372000
0
VERTEX
8
0
10
2.017000
20
1.372000
0
SEQEND
8
0
0
POLYLINE
8
0
66
1
40
0.025000
41
0.025000
0
VERTEX
8
0
10
2.015000
20
1.394000
0
VERTEX
8
0
10
2.015000
20
1.961000
0
VERTEX
8
0
10
2.017000
20
1.963000
0
VERTEX
8
0
10
2.001000
20
1.963000
0
SEQEND
8
0
0
POLYLINE
8
0
66
1
40
0.025000
41
0.025000
0
VERTEX
8
0
10
2.015000
20
1.394000
0
VERTEX
8
0
10
2.015000
20
1.376000
0
VERTEX
8
0
10
2.013000
20
1.375000
0
VERTEX
8
0
10
1.979000
20
1.375000
0
SEQEND
8
0
0
POLYLINE
8
0
66
1
40
0.025000
41
0.025000
0
VERTEX
8
0
10
2.017000
20
1.372000
0
VERTEX
8
0
10
2.015000
20
1.372000
0
VERTEX
8
0
10
2.015000
20
1.376000
0
SEQEND
8
0
0
POLYLINE
8
0
66
1
40
0.025000
41
0.025000
0
VERTEX
8
0
10
1.734000
20
2.397000
0
VERTEX
8
0
10
1.691000
20
2.397000
0
VERTEX
8
0
10
1.581000
20
2.508000
0
SEQEND
8
0
0
POLYLINE
8
0
66
1
40
0.025000
41
0.025000
0
VERTEX
8
0
10
1.125000
20
1.806000
0
VERTEX
8
0
10
1.123000
20
1.806000
0
VERTEX
8
0
10
1.123000
20
1.797000
0
VERTEX
8
0
10
1.045000
20
1.718000
0
VERTEX
8
0
10
-0.097000
20
1.718000
0
VERTEX
8
0
10
-0.205000
20
1.609000
0
SEQEND
8
0
0
POLYLINE
8
0
66
1
40
0.030000
41
0.030000
0
VERTEX
8
0
10
1.703000
20
2.500000
0
VERTEX
8
0
10
1.715000
20
2.500000
0
VERTEX
8
0
10
1.703000
20
2.497000
0
VERTEX
8
0
10
1.703000
20
2.508000
0
SEQEND
8
0
0
POLYLINE
8
0
66
1
40
0.030000
41
0.030000
0
VERTEX
8
0
10
1.703000
20
2.500000
0
VERTEX
8
0
10
1.703000
20
2.508000
0
SEQEND
8
0
0
POLYLINE
8
0
66
1
40
0.030000
41
0.030000
0
VERTEX
8
0
10
1.761000
20
2.593000
0
VERTEX
8
0
10
1.703000
20
2.593000
0
VERTEX
8
0
10
1.703000
20
2.508000
0
SEQEND
8
0
0
POLYLINE
8
0
66
1
40
0.025000
41
0.025000
0
VERTEX
8
0
10
0.713000
20
2.098000
0
VERTEX
8
0
10
-1.503000
20
2.098000
0
VERTEX
8
0
10
-1.703000
20
2.298000
0
VERTEX
8
0
10
-1.703000
20
2.593000
0
VERTEX
8
0
10
-1.685000
20
2.611000
0
VERTEX
8
0
10
-1.642000
20
2.611000
0
VERTEX
8
0
10
-1.595000
20
2.658000
0
VERTEX
8
0
10
-1.595000
20
2.719000
0
SEQEND
8
0
0
POLYLINE
8
0
66
1
40
0.025000
41
0.025000
0
VERTEX
8
0
10
-1.755000
20
2.378000
0
VERTEX
8
0
10
-1.755000
20
2.567000
0
VERTEX
8
0
10
-1.811000
20
2.623000
0
SEQEND
8
0
0
POLYLINE
8
0
66
1
40
0.025000
41
0.025000
0
VERTEX
8
0
10
0.913000
20
2.048000
0
VERTEX
8
0
10
0.913000
20
2.039000
0
VERTEX
8
0
10
-1.621000
20
2.039000
0
VERTEX
8
0
10
-1.868000
20
2.286000
0
VERTEX
8
0
10
-1.891000
20
2.286000
0
VERTEX
8
0
10
-1.892000
20
2.288000
0
SEQEND
8
0
0
POLYLINE
8
0
66
1
40
0.025000
41
0.025000
0
VERTEX
8
0
10
-1.114000
20
0.159000
0
VERTEX
8
0
10
0.002000
20
0.159000
0
VERTEX
8
0
10
0.038000
20
0.123000
0
SEQEND
8
0
0
POLYLINE
8
0
66
1
40
0.025000
41
0.025000
0
VERTEX
8
0
10
-0.448000
20
1.848000
0
VERTEX
8
0
10
-1.861000
20
1.848000
0
SEQEND
8
0
0
POLYLINE
8
0
66
1
40
0.025000
41
0.025000
0
VERTEX
8
0
10
-1.236000
20
0.223000
0
VERTEX
8
0
10
-1.311000
20
0.148000
0
VERTEX
8
0
10
-1.311000
20
-0.301000
0
VERTEX
8
0
10
-1.384000
20
-0.374000
0
VERTEX
8
0
10
-1.866000
20
-0.374000
0
VERTEX
8
0
10
-1.969000
20
-0.476000
0
VERTEX
8
0
10
-2.311000
20
-0.476000
0
SEQEND
8
0
0
POLYLINE
8
0
66
1
40
0.025000
41
0.025000
0
VERTEX
8
0
10
-2.311000
20
-0.351000
0
VERTEX
8
0
10
-2.229000
20
-0.351000
0
VERTEX
8
0
10
-2.102000
20
-0.224000
0
VERTEX
8
0
10
-2.102000
20
-0.222000
0
VERTEX
8
0
10
-2.056000
20
-0.176000
0
VERTEX
8
0
10
-2.011000
20
-0.176000
0
SEQEND
8
0
0
POLYLINE
8
0
66
1
40
0.025000
41
0.025000
0
VERTEX
8
0
10
-1.114000
20
-0.040000
0
VERTEX
8
0
10
-1.181000
20
-0.040000
0
VERTEX
8
0
10
-1.186000
20
-0.045000
0
VERTEX
8
0
10
-1.186000
20
-0.276000
0
SEQEND
8
0
0
POLYLINE
8
0
66
1
40
0.025000
41
0.025000
0
VERTEX
8
0
10
-1.586000
20
-0.251000
0
VERTEX
8
0
10
-2.021000
20
-0.251000
0
VERTEX
8
0
10
-2.037000
20
-0.236000
0
SEQEND
8
0
0
POLYLINE
8
0
66
1
40
0.030000
41
0.030000
0
VERTEX
8
0
10
-1.408000
20
1.977000
0
VERTEX
8
0
10
-1.934000
20
1.977000
0
VERTEX
8
0
10
-1.992000
20
2.035000
0
VERTEX
8
0
10
-1.992000
20
2.088000
0
SEQEND
8
0
0
POLYLINE
8
0
66
1
40
0.025000
41
0.025000
0
VERTEX
8
0
10
-1.275000
20
2.723000
0
VERTEX
8
0
10
-1.275000
20
2.598000
0
VERTEX
8
0
10
-1.211000
20
2.534000
0
VERTEX
8
0
10
-1.211000
20
2.323000
0
VERTEX
8
0
10
-1.011000
20
2.123000
0
VERTEX
8
0
10
-1.011000
20
1.673000
0
SEQEND
8
0
0
POLYLINE
8
0
66
1
40
0.025000
41
0.025000
0
VERTEX
8
0
10
-0.777000
20
2.641000
0
VERTEX
8
0
10
-0.738000
20
2.564000
0
VERTEX
8
0
10
-0.736000
20
1.698000
0
SEQEND
8
0
0
POLYLINE
8
0
66
1
40
0.025000
41
0.025000
0
VERTEX
8
0
10
0.930000
20
2.703000
0
VERTEX
8
0
10
0.931000
20
2.705000
0
SEQEND
8
0
0
POLYLINE
8
0
66
1
40
0.025000
41
0.025000
0
VERTEX
8
0
10
0.930000
20
2.703000
0
VERTEX
8
0
10
0.930000
20
2.691000
0
SEQEND
8
0
0
POLYLINE
8
0
66
1
40
0.025000
41
0.025000
0
VERTEX
8
0
10
1.271000
20
2.801000
0
VERTEX
8
0
10
1.011000
20
2.801000
0
VERTEX
8
0
10
1.002000
20
2.792000
0
VERTEX
8
0
10
0.930000
20
2.719000
0
VERTEX
8
0
10
0.930000
20
2.712000
0
VERTEX
8
0
10
0.930000
20
2.703000
0
SEQEND
8
0
0
POLYLINE
8
0
66
1
40
0.025000
41
0.025000
0
VERTEX
8
0
10
0.859000
20
1.673000
0
VERTEX
8
0
10
0.859000
20
2.631000
0
SEQEND
8
0
0
POLYLINE
8
0
66
1
40
0.025000
41
0.025000
0
VERTEX
8
0
10
0.859000
20
2.632000
0
VERTEX
8
0
10
0.858000
20
2.631000
0
VERTEX
8
0
10
0.859000
20
2.631000
0
SEQEND
8
0
0
POLYLINE
8
0
66
1
40
0.025000
41
0.025000
0
VERTEX
8
0
10
0.930000
20
2.703000
0
VERTEX
8
0
10
0.859000
20
2.632000
0
VERTEX
8
0
10
0.859000
20
2.631000
0
SEQEND
8
0
0
POLYLINE
8
0
66
1
40
0.025000
41
0.025000
0
VERTEX
8
0
10
-0.811000
20
1.698000
0
VERTEX
8
0
10
-0.811000
20
2.323000
0
SEQEND
8
0
0
POLYLINE
8
0
66
1
40
0.025000
41
0.025000
0
VERTEX
8
0
10
0.113000
20
1.623000
0
VERTEX
8
0
10
0.113000
20
-0.151000
0
VERTEX
8
0
10
0.095000
20
-0.169000
0
VERTEX
8
0
10
0.095000
20
-0.788000
0
VERTEX
8
0
10
0.177000
20
-0.870000
0
VERTEX
8
0
10
0.177000
20
-1.687000
0
VERTEX
8
0
10
0.113000
20
-1.751000
0
VERTEX
8
0
10
0.113000
20
-2.881000
0
SEQEND
8
0
0
POLYLINE
8
0
66
1
40
0.030000
41
0.030000
0
VERTEX
8
0
10
-0.711000
20
1.323000
0
VERTEX
8
0
10
-0.561000
20
1.173000
0
VERTEX
8
0
10
-0.411000
20
1.173000
0
VERTEX
8
0
10
-0.361000
20
1.123000
0
VERTEX
8
0
10
-0.361000
20
-0.269000
0
SEQEND
8
0
0
POLYLINE
8
0
66
1
40
0.030000
41
0.030000
0
VERTEX
8
0
10
-0.986000
20
1.323000
0
VERTEX
8
0
10
-0.711000
20
1.323000
0
SEQEND
8
0
0
POLYLINE
8
0
66
1
40
0.030000
41
0.030000
0
VERTEX
8
0
10
-0.165000
20
-2.440000
0
VERTEX
8
0
10
-0.282000
20
-2.323000
0
VERTEX
8
0
10
-0.282000
20
-0.914000
0
VERTEX
8
0
10
-0.362000
20
-0.835000
0
VERTEX
8
0
10
-0.362000
20
-0.440000
0
VERTEX
8
0
10
-0.361000
20
-0.440000
0
VERTEX
8
0
10
-0.361000
20
-0.281000
0
SEQEND
8
0
0
POLYLINE
8
0
66
1
40
0.030000
41
0.030000
0
VERTEX
8
0
10
-2.519000
20
-0.783000
0
VERTEX
8
0
10
-2.519000
20
-0.625000
0
VERTEX
8
0
10
-2.500000
20
-0.606000
0
VERTEX
8
0
10
-2.496000
20
-0.607000
0
SEQEND
8
0
0
POLYLINE
8
0
66
1
40
0.025000
41
0.025000
0
VERTEX
8
0
10
-0.336000
20
1.698000
0
VERTEX
8
0
10
-0.336000
20
1.860000
0
VERTEX
8
0
10
-0.391000
20
1.915000
0
VERTEX
8
0
10
-0.485000
20
1.915000
0
VERTEX
8
0
10
-0.536000
20
1.864000
0
VERTEX
8
0
10
-0.536000
20
1.639000
0
VERTEX
8
0
10
-0.552000
20
1.623000
0
VERTEX
8
0
10
-0.615000
20
1.623000
0
VERTEX
8
0
10
-0.711000
20
1.527000
0
VERTEX
8
0
10
-0.711000
20
1.323000
0
SEQEND
8
0
0
POLYLINE
8
0
66
1
40
0.030000
41
0.030000
0
VERTEX
8
0
10
-0.186000
20
-0.451000
0
VERTEX
8
0
10
-0.261000
20
-0.376000
0
VERTEX
8
0
10
-0.262000
20
-0.376000
0
VERTEX
8
0
10
-0.357000
20
-0.281000
0
VERTEX
8
0
10
-0.361000
20
-0.281000
0
VERTEX
8
0
10
-0.361000
20
-0.269000
0
SEQEND
8
0
0
POLYLINE
8
0
66
1
40
0.030000
41
0.030000
0
VERTEX
8
0
10
0.017000
20
1.393000
0
VERTEX
8
0
10
0.017000
20
1.372000
0
VERTEX
8
0
10
-0.074000
20
1.280000
0
VERTEX
8
0
10
-0.222000
20
1.280000
0
VERTEX
8
0
10
-0.257000
20
1.315000
0
VERTEX
8
0
10
-0.257000
20
1.619000
0
VERTEX
8
0
10
-0.336000
20
1.698000
0
SEQEND
8
0
0
POLYLINE
8
0
66
1
40
0.025000
41
0.025000
0
VERTEX
8
0
10
-0.086000
20
-0.201000
0
VERTEX
8
0
10
-0.031000
20
-0.256000
0
VERTEX
8
0
10
-0.031000
20
-0.535000
0
VERTEX
8
0
10
-0.206000
20
-0.710000
0
VERTEX
8
0
10
-0.206000
20
-1.893000
0
VERTEX
8
0
10
-0.031000
20
-2.067000
0
VERTEX
8
0
10
-0.031000
20
-2.422000
0
VERTEX
8
0
10
-0.348000
20
-2.739000
0
VERTEX
8
0
10
-0.407000
20
-2.739000
0
VERTEX
8
0
10
-0.557000
20
-2.888000
0
VERTEX
8
0
10
-0.934000
20
-2.888000
0
VERTEX
8
0
10
-1.000000
20
-2.822000
0
VERTEX
8
0
10
-1.236000
20
-2.822000
0
VERTEX
8
0
10
-1.302000
20
-2.888000
0
SEQEND
8
0
0
POLYLINE
8
0
66
1
40
0.025000
41
0.025000
0
VERTEX
8
0
10
0.903000
20
0.360000
0
VERTEX
8
0
10
1.018000
20
0.360000
0
VERTEX
8
0
10
1.290000
20
0.089000
0
VERTEX
8
0
10
1.290000
20
-0.741000
0
VERTEX
8
0
10
1.143000
20
-0.887000
0
VERTEX
8
0
10
0.351000
20
-0.887000
0
VERTEX
8
0
10
0.290000
20
-0.949000
0
VERTEX
8
0
10
0.290000
20
-2.717000
0
VERTEX
8
0
10
0.324000
20
-2.751000
0
VERTEX
8
0
10
1.317000
20
-2.751000
0
VERTEX
8
0
10
1.369000
20
-2.803000
0
VERTEX
8
0
10
1.369000
20
-2.843000
0
SEQEND
8
0
0
POLYLINE
8
0
66
1
40
0.025000
41
0.025000
0
VERTEX
8
0
10
0.303000
20
-0.139000
0
VERTEX
8
0
10
0.213000
20
-0.139000
0
VERTEX
8
0
10
0.163000
20
-0.089000
0
VERTEX
8
0
10
0.163000
20
1.960000
0
VERTEX
8
0
10
-0.411000
20
2.535000
0
VERTEX
8
0
10
-0.411000
20
2.648000
0
VERTEX
8
0
10
-0.513000
20
2.749000
0
VERTEX
8
0
10
-0.864000
20
2.749000
0
VERTEX
8
0
10
-1.065000
20
2.548000
0
VERTEX
8
0
10
-1.066000
20
2.548000
0
VERTEX
8
0
10
-1.066000
20
2.478000
0
SEQEND
8
0
0
POLYLINE
8
0
66
1
40
0.025000
41
0.025000
0
VERTEX
8
0
10
-1.714000
20
-0.040000
0
VERTEX
8
0
10
-1.625000
20
-0.040000
0
VERTEX
8
0
10
-1.625000
20
2.498000
0
SEQEND
8
0
0
POLYLINE
8
0
66
1
40
0.025000
41
0.025000
0
VERTEX
8
0
10
0.388000
20
1.598000
0
VERTEX
8
0
10
0.388000
20
0.360000
0
VERTEX
8
0
10
0.303000
20
0.360000
0
SEQEND
8
0
0
POLYLINE
8
0
66
1
40
0.025000
41
0.025000
0
VERTEX
8
0
10
0.438000
20
1.849000
0
VERTEX
8
0
10
0.438000
20
0.323000
0
VERTEX
8
0
10
0.375000
20
0.260000
0
VERTEX
8
0
10
0.303000
20
0.260000
0
SEQEND
8
0
0
POLYLINE
8
0
66
1
40
0.025000
41
0.025000
0
VERTEX
8
0
10
-0.661000
20
1.948000
0
VERTEX
8
0
10
-0.661000
20
2.648000
0
VERTEX
8
0
10
-0.711000
20
2.698000
0
VERTEX
8
0
10
-0.811000
20
2.698000
0
SEQEND
8
0
0
POLYLINE
8
0
66
1
40
0.025000
41
0.025000
0
VERTEX
8
0
10
-0.661000
20
1.698000
0
VERTEX
8
0
10
-0.661000
20
1.948000
0
SEQEND
8
0
0
POLYLINE
8
0
66
1
40
0.025000
41
0.025000
0
VERTEX
8
0
10
0.338000
20
1.948000
0
VERTEX
8
0
10
0.339000
20
1.948000
0
VERTEX
8
0
10
0.438000
20
1.849000
0
SEQEND
8
0
0
POLYLINE
8
0
66
1
40
0.025000
41
0.025000
0
VERTEX
8
0
10
0.488000
20
1.998000
0
VERTEX
8
0
10
0.488000
20
0.253000
0
VERTEX
8
0
10
0.395000
20
0.160000
0
VERTEX
8
0
10
0.303000
20
0.160000
0
SEQEND
8
0
0
POLYLINE
8
0
66
1
40
0.025000
41
0.025000
0
VERTEX
8
0
10
-1.293000
20
1.663000
0
VERTEX
8
0
10
-1.186000
20
1.573000
0
VERTEX
8
0
10
-1.186000
20
1.123000
0
VERTEX
8
0
10
-1.286000
20
1.023000
0
VERTEX
8
0
10
-1.286000
20
-0.176000
0
VERTEX
8
0
10
-1.236000
20
-0.226000
0
VERTEX
8
0
10
-0.936000
20
-0.226000
0
VERTEX
8
0
10
-0.649000
20
0.060000
0
VERTEX
8
0
10
-0.649000
20
0.060000
0
SEQEND
8
0
0
POLYLINE
8
0
66
1
40
0.025000
41
0.025000
0
VERTEX
8
0
10
0.538000
20
1.198000
0
VERTEX
8
0
10
0.538000
20
1.415000
0
VERTEX
8
0
10
0.541000
20
1.418000
0
VERTEX
8
0
10
0.541000
20
1.418000
0
SEQEND
8
0
0
POLYLINE
8
0
66
1
40
0.025000
41
0.025000
0
VERTEX
8
0
10
0.538000
20
1.198000
0
VERTEX
8
0
10
0.538000
20
-0.012000
0
VERTEX
8
0
10
0.664000
20
-0.139000
0
VERTEX
8
0
10
0.903000
20
-0.139000
0
SEQEND
8
0
0
POLYLINE
8
0
66
1
40
0.030000
41
0.030000
0
VERTEX
8
0
10
0.303000
20
0.760000
0
VERTEX
8
0
10
0.303000
20
0.660000
0
SEQEND
8
0
0
POLYLINE
8
0
66
1
40
0.030000
41
0.030000
0
VERTEX
8
0
10
-1.992000
20
2.388000
0
VERTEX
8
0
10
-1.992000
20
2.288000
0
SEQEND
8
0
0
POLYLINE
8
0
66
1
40
0.030000
41
0.030000
0
VERTEX
8
0
10
-1.714000
20
0.759000
0
VERTEX
8
0
10
-1.714000
20
0.659000
0
SEQEND
8
0
0
POLYLINE
8
0
66
1
40
0.030000
41
0.030000
0
VERTEX
8
0
10
1.698000
20
-0.590000
0
VERTEX
8
0
10
1.709000
20
-0.588000
0
VERTEX
8
0
10
1.943000
20
-0.588000
0
VERTEX
8
0
10
2.042000
20
-0.688000
0
SEQEND
8
0
0
POLYLINE
8
0
66
1
40
0.030000
41
0.030000
0
VERTEX
8
0
10
0.925000
20
-0.630000
0
VERTEX
8
0
10
0.969000
20
-0.586000
0
VERTEX
8
0
10
1.217000
20
-0.586000
0
SEQEND
8
0
0
POLYLINE
8
0
66
1
40
0.030000
41
0.030000
0
VERTEX
8
0
10
-2.187000
20
-0.875000
0
VERTEX
8
0
10
-2.149000
20
-0.914000
0
VERTEX
8
0
10
-2.016000
20
-0.914000
0
VERTEX
8
0
10
-1.944000
20
-0.842000
0
VERTEX
8
0
10
-1.944000
20
-0.628000
0
VERTEX
8
0
10
-1.840000
20
-0.524000
0
VERTEX
8
0
10
-1.577000
20
-0.524000
0
VERTEX
8
0
10
-1.229000
20
-0.872000
0
VERTEX
8
0
10
-0.767000
20
-0.872000
0
SEQEND
8
0
0
POLYLINE
8
0
66
1
40
0.030000
41
0.030000
0
VERTEX
8
0
10
-2.187000
20
-0.822000
0
VERTEX
8
0
10
-2.187000
20
-0.875000
0
VERTEX
8
0
10
-2.242000
20
-0.930000
0
VERTEX
8
0
10
-2.356000
20
-0.930000
0
SEQEND
8
0
0
POLYLINE
8
0
66
1
40
0.030000
41
0.030000
0
VERTEX
8
0
10
-2.419000
20
-0.783000
0
VERTEX
8
0
10
-2.419000
20
-0.867000
0
VERTEX
8
0
10
-2.356000
20
-0.930000
0
SEQEND
8
0
0
POLYLINE
8
0
66
1
40
0.050000
41
0.050000
0
VERTEX
8
0
10
-2.187000
20
-0.688000
0
VERTEX
8
0
10
-2.187000
20
-0.783000
0
SEQEND
8
0
0
POLYLINE
8
0
66
1
40
0.030000
41
0.030000
0
VERTEX
8
0
10
-2.196000
20
-0.607000
0
VERTEX
8
0
10
-2.187000
20
-0.616000
0
SEQEND
8
0
0
POLYLINE
8
0
66
1
40
0.030000
41
0.030000
0
VERTEX
8
0
10
-2.187000
20
-0.688000
0
VERTEX
8
0
10
-2.187000
20
-0.616000
0
SEQEND
8
0
0
POLYLINE
8
0
66
1
40
0.030000
41
0.030000
0
VERTEX
8
0
10
-2.419000
20
-0.783000
0
VERTEX
8
0
10
-2.353000
20
-0.717000
0
VERTEX
8
0
10
-2.217000
20
-0.717000
0
VERTEX
8
0
10
-2.187000
20
-0.688000
0
SEQEND
8
0
0
POLYLINE
8
0
66
1
40
0.030000
41
0.030000
0
VERTEX
8
0
10
2.042000
20
-0.688000
0
VERTEX
8
0
10
2.042000
20
-0.679000
0
SEQEND
8
0
0
POLYLINE
8
0
66
1
40
0.030000
41
0.030000
0
VERTEX
8
0
10
2.042000
20
-0.688000
0
VERTEX
8
0
10
2.042000
20
-0.794000
0
SEQEND
8
0
0
POLYLINE
8
0
66
1
40
0.030000
41
0.030000
0
VERTEX
8
0
10
-0.496000
20
-0.761000
0
VERTEX
8
0
10
-0.553000
20
-0.761000
0
VERTEX
8
0
10
-0.655000
20
-0.761000
0
SEQEND
8
0
0
POLYLINE
8
0
66
1
40
0.050000
41
0.050000
0
VERTEX
8
0
10
-2.187000
20
-0.822000
0
VERTEX
8
0
10
-2.187000
20
-0.803000
0
VERTEX
8
0
10
-2.187000
20
-0.803000
0
SEQEND
8
0
0
POLYLINE
8
0
66
1
40
0.050000
41
0.050000
0
VERTEX
8
0
10
-2.187000
20
-0.783000
0
VERTEX
8
0
10
-2.187000
20
-0.803000
0
SEQEND
8
0
0
POLYLINE
8
0
66
1
40
0.030000
41
0.030000
0
VERTEX
8
0
10
-0.243000
20
-0.834000
0
VERTEX
8
0
10
-0.243000
20
-0.854000
0
SEQEND
8
0
0
POLYLINE
8
0
66
1
40
0.030000
41
0.030000
0
VERTEX
8
0
10
-0.767000
20
-0.872000
0
VERTEX
8
0
10
-0.655000
20
-0.761000
0
SEQEND
8
0
0
POLYLINE
8
0
66
1
40
0.030000
41
0.030000
0
VERTEX
8
0
10
-0.767000
20
-0.872000
0
VERTEX
8
0
10
-0.767000
20
-0.872000
0
SEQEND
8
0
0
POLYLINE
8
0
66
1
40
0.030000
41
0.030000
0
VERTEX
8
0
10
-0.243000
20
-0.834000
0
VERTEX
8
0
10
-0.243000
20
-0.806000
0
VERTEX
8
0
10
-0.243000
20
-0.794000
0
SEQEND
8
0
0
POLYLINE
8
0
66
1
40
0.030000
41
0.030000
0
VERTEX
8
0
10
-0.279000
20
-0.758000
0
VERTEX
8
0
10
-0.243000
20
-0.794000
0
SEQEND
8
0
0
POLYLINE
8
0
66
1
40
0.030000
41
0.030000
0
VERTEX
8
0
10
-0.767000
20
-0.872000
0
VERTEX
8
0
10
-0.655000
20
-0.761000
0
VERTEX
8
0
10
-0.655000
20
-0.761000
0
SEQEND
8
0
0
POLYLINE
8
0
66
1
40
0.030000
41
0.030000
0
VERTEX
8
0
10
-0.243000
20
-0.854000
0
VERTEX
8
0
10
-0.243000
20
-0.906000
0
SEQEND
8
0
0
POLYLINE
8
0
66
1
40
0.030000
41
0.030000
0
VERTEX
8
0
10
-0.243000
20
-1.000000
0
VERTEX
8
0
10
-0.243000
20
-1.994000
0
VERTEX
8
0
10
-0.243000
20
-1.995000
0
SEQEND
8
0
0
POLYLINE
8
0
66
1
40
0.030000
41
0.030000
0
VERTEX
8
0
10
-0.243000
20
-0.906000
0
VERTEX
8
0
10
-0.243000
20
-0.907000
0
SEQEND
8
0
0
POLYLINE
8
0
66
1
40
0.030000
41
0.030000
0
VERTEX
8
0
10
-0.243000
20
-1.000000
0
VERTEX
8
0
10
-0.243000
20
-0.907000
0
SEQEND
8
0
0
POLYLINE
8
0
66
1
40
0.040000
41
0.040000
0
VERTEX
8
0
10
-2.196000
20
-0.606000
0
VERTEX
8
0
10
-2.207000
20
-0.606000
0
VERTEX
8
0
10
-2.206000
20
-0.607000
0
SEQEND
8
0
0
POLYLINE
8
0
66
1
40
0.040000
41
0.040000
0
VERTEX
8
0
10
-2.196000
20
-0.607000
0
VERTEX
8
0
10
-2.206000
20
-0.607000
0
SEQEND
8
0
0
POLYLINE
8
0
66
1
40
0.040000
41
0.040000
0
VERTEX
8
0
10
-2.196000
20
-0.607000
0
VERTEX
8
0
10
-2.186000
20
-0.607000
0
VERTEX
8
0
10
-2.186000
20
-0.606000
0
SEQEND
8
0
0
POLYLINE
8
0
66
1
40
0.040000
41
0.040000
0
VERTEX
8
0
10
-2.196000
20
-0.606000
0
VERTEX
8
0
10
-2.186000
20
-0.606000
0
SEQEND
8
0
0
POLYLINE
8
0
66
1
40
0.030000
41
0.030000
0
VERTEX
8
0
10
-2.196000
20
-0.606000
0
VERTEX
8
0
10
-2.196000
20
-0.529000
0
VERTEX
8
0
10
-2.186000
20
-0.529000
0
SEQEND
8
0
0
POLYLINE
8
0
66
1
40
0.030000
41
0.030000
0
VERTEX
8
0
10
-2.196000
20
-0.607000
0
VERTEX
8
0
10
-2.196000
20
-0.606000
0
SEQEND
8
0
0
POLYLINE
8
0
66
1
40
0.030000
41
0.030000
0
VERTEX
8
0
10
-0.186000
20
-2.051000
0
VERTEX
8
0
10
-0.186000
20
-2.306000
0
VERTEX
8
0
10
-0.102000
20
-2.390000
0
SEQEND
8
0
0
POLYLINE
8
0
66
1
40
0.030000
41
0.030000
0
VERTEX
8
0
10
-0.010000
20
2.632000
0
VERTEX
8
0
10
0.089000
20
2.632000
0
SEQEND
8
0
0
POLYLINE
8
0
66
1
40
0.030000
41
0.030000
0
VERTEX
8
0
10
2.235000
20
-0.852000
0
VERTEX
8
0
10
2.340000
20
-0.747000
0
SEQEND
8
0
0
POLYLINE
8
0
66
1
40
0.030000
41
0.030000
0
VERTEX
8
0
10
2.426000
20
-0.747000
0
VERTEX
8
0
10
2.340000
20
-0.747000
0
SEQEND
8
0
0
POLYLINE
8
0
66
1
40
0.030000
41
0.030000
0
VERTEX
8
0
10
2.426000
20
-0.747000
0
VERTEX
8
0
10
2.425000
20
-0.746000
0
VERTEX
8
0
10
2.341000
20
-0.746000
0
VERTEX
8
0
10
2.340000
20
-0.747000
0
SEQEND
8
0
0
POLYLINE
8
0
66
1
40
0.030000
41
0.030000
0
VERTEX
8
0
10
2.042000
20
-0.794000
0
VERTEX
8
0
10
2.101000
20
-0.852000
0
VERTEX
8
0
10
2.235000
20
-0.852000
0
VERTEX
8
0
10
2.229000
20
-0.858000
0
VERTEX
8
0
10
2.105000
20
-0.858000
0
SEQEND
8
0
0
POLYLINE
8
0
66
1
40
0.030000
41
0.030000
0
VERTEX
8
0
10
2.042000
20
-0.794000
0
VERTEX
8
0
10
2.041000
20
-0.795000
0
VERTEX
8
0
10
2.101000
20
-0.855000
0
SEQEND
8
0
0
POLYLINE
8
0
66
1
40
0.030000
41
0.030000
0
VERTEX
8
0
10
2.426000
20
-0.547000
0
VERTEX
8
0
10
2.426000
20
-0.447000
0
SEQEND
8
0
0
POLYLINE
8
0
66
1
40
0.030000
41
0.030000
0
VERTEX
8
0
10
2.105000
20
-0.858000
0
VERTEX
8
0
10
2.101000
20
-0.855000
0
VERTEX
8
0
10
2.101000
20
-0.855000
0
SEQEND
8
0
0
POLYLINE
8
0
66
1
40
0.030000
41
0.030000
0
VERTEX
8
0
10
-1.499000
20
0.758000
0
VERTEX
8
0
10
-1.499000
20
1.379000
0
VERTEX
8
0
10
-1.525000
20
1.405000
0
VERTEX
8
0
10
-1.525000
20
1.973000
0
SEQEND
8
0
0
POLYLINE
8
0
66
1
40
0.030000
41
0.030000
0
VERTEX
8
0
10
-2.041000
20
-0.384000
0
VERTEX
8
0
10
-2.186000
20
-0.529000
0
SEQEND
8
0
0
POLYLINE
8
0
66
1
40
0.030000
41
0.030000
0
VERTEX
8
0
10
-1.525000
20
2.498000
0
VERTEX
8
0
10
-1.525000
20
1.973000
0
SEQEND
8
0
0
POLYLINE
8
0
66
1
40
0.030000
41
0.030000
0
VERTEX
8
0
10
-0.186000
20
-2.051000
0
VERTEX
8
0
10
-0.243000
20
-1.995000
0
SEQEND
8
0
0
POLYLINE
8
0
66
1
40
0.030000
41
0.030000
0
VERTEX
8
0
10
1.263000
20
0.952000
0
VERTEX
8
0
10
1.263000
20
1.213000
0
VERTEX
8
0
10
1.395000
20
1.345000
0
SEQEND
8
0
0
POLYLINE
8
0
66
1
40
0.030000
41
0.030000
0
VERTEX
8
0
10
1.390000
20
2.468000
0
VERTEX
8
0
10
1.390000
20
1.726000
0
VERTEX
8
0
10
1.468000
20
1.648000
0
VERTEX
8
0
10
1.544000
20
1.648000
0
VERTEX
8
0
10
1.583000
20
1.609000
0
VERTEX
8
0
10
1.583000
20
1.538000
0
SEQEND
8
0
0
POLYLINE
8
0
66
1
40
0.030000
41
0.030000
0
VERTEX
8
0
10
-2.140000
20
-0.285000
0
VERTEX
8
0
10
-2.210000
20
-0.285000
0
SEQEND
8
0
0
POLYLINE
8
0
66
1
40
0.030000
41
0.030000
0
VERTEX
8
0
10
-2.041000
20
-0.384000
0
VERTEX
8
0
10
-2.049000
20
-0.376000
0
VERTEX
8
0
10
-2.140000
20
-0.285000
0
VERTEX
8
0
10
-2.140000
20
-0.285000
0
VERTEX
8
0
10
-2.210000
20
-0.285000
0
VERTEX
8
0
10
-2.210000
20
-0.285000
0
SEQEND
8
0
0
POLYLINE
8
0
66
1
40
0.030000
41
0.030000
0
VERTEX
8
0
10
-1.886000
20
-0.162000
0
VERTEX
8
0
10
-1.886000
20
-0.227000
0
VERTEX
8
0
10
-1.886000
20
-0.227000
0
SEQEND
8
0
0
POLYLINE
8
0
66
1
40
0.030000
41
0.030000
0
VERTEX
8
0
10
-2.140000
20
-0.285000
0
VERTEX
8
0
10
-1.945000
20
-0.285000
0
VERTEX
8
0
10
-1.886000
20
-0.227000
0
SEQEND
8
0
0
POLYLINE
8
0
66
1
40
0.030000
41
0.030000
0
VERTEX
8
0
10
-2.041000
20
-0.384000
0
VERTEX
8
0
10
-1.886000
20
-0.229000
0
VERTEX
8
0
10
-1.886000
20
-0.227000
0
SEQEND
8
0
0
POLYLINE
8
0
66
1
40
0.030000
41
0.030000
0
VERTEX
8
0
10
-1.886000
20
-0.162000
0
VERTEX
8
0
10
-1.886000
20
-0.227000
0
SEQEND
8
0
0
POLYLINE
8
0
66
1
40
0.030000
41
0.030000
0
VERTEX
8
0
10
-2.210000
20
-0.285000
0
VERTEX
8
0
10
-2.340000
20
-0.285000
0
VERTEX
8
0
10
-2.340000
20
-0.284000
0
VERTEX
8
0
10
-2.374000
20
-0.284000
0
VERTEX
8
0
10
-2.419000
20
-0.239000
0
VERTEX
8
0
10
-2.419000
20
-0.202000
0
SEQEND
8
0
0
POLYLINE
8
0
66
1
40
0.030000
41
0.030000
0
VERTEX
8
0
10
-1.325000
20
2.575000
0
VERTEX
8
0
10
-1.327000
20
2.573000
0
VERTEX
8
0
10
-1.533000
20
2.573000
0
SEQEND
8
0
0
POLYLINE
8
0
66
1
40
0.030000
41
0.030000
0
VERTEX
8
0
10
-1.525000
20
2.498000
0
VERTEX
8
0
10
-1.525000
20
2.565000
0
VERTEX
8
0
10
-1.533000
20
2.573000
0
VERTEX
8
0
10
-1.547000
20
2.573000
0
SEQEND
8
0
0
POLYLINE
8
0
66
1
40
0.025000
41
0.025000
0
VERTEX
8
0
10
0.213000
20
0.723000
0
VERTEX
8
0
10
0.212000
20
0.344000
0
SEQEND
8
0
0
POLYLINE
8
0
66
1
40
0.025000
41
0.025000
0
VERTEX
8
0
10
1.038000
20
1.048000
0
VERTEX
8
0
10
1.038000
20
0.825000
0
VERTEX
8
0
10
1.161000
20
0.702000
0
VERTEX
8
0
10
1.320000
20
0.702000
0
VERTEX
8
0
10
1.363000
20
0.745000
0
VERTEX
8
0
10
1.363000
20
0.844000
0
SEQEND
8
0
0
POLYLINE
8
0
66
1
40
0.025000
41
0.025000
0
VERTEX
8
0
10
-0.644000
20
0.736000
0
VERTEX
8
0
10
-0.644000
20
0.764000
0
VERTEX
8
0
10
-0.644000
20
0.843000
0
SEQEND
8
0
0
POLYLINE
8
0
66
1
40
0.025000
41
0.025000
0
VERTEX
8
0
10
-0.644000
20
0.736000
0
VERTEX
8
0
10
-0.644000
20
0.322000
0
VERTEX
8
0
10
-0.708000
20
0.258000
0
VERTEX
8
0
10
-1.114000
20
0.258000
0
VERTEX
8
0
10
-1.114000
20
0.259000
0
SEQEND
8
0
0
POLYLINE
8
0
66
1
40
0.025000
41
0.025000
0
VERTEX
8
0
10
-0.718000
20
0.674000
0
VERTEX
8
0
10
-0.718000
20
0.586000
0
VERTEX
8
0
10
-0.813000
20
0.491000
0
VERTEX
8
0
10
-0.980000
20
0.491000
0
VERTEX
8
0
10
-1.047000
20
0.559000
0
VERTEX
8
0
10
-1.114000
20
0.559000
0
SEQEND
8
0
0
POLYLINE
8
0
66
1
40
0.025000
41
0.025000
0
VERTEX
8
0
10
-0.771000
20
1.053000
0
VERTEX
8
0
10
-0.697000
20
1.053000
0
SEQEND
8
0
0
POLYLINE
8
0
66
1
40
0.025000
41
0.025000
0
VERTEX
8
0
10
-0.771000
20
1.053000
0
VERTEX
8
0
10
-1.137000
20
1.053000
0
VERTEX
8
0
10
-1.224000
20
0.965000
0
VERTEX
8
0
10
-1.224000
20
0.405000
0
VERTEX
8
0
10
-1.178000
20
0.358000
0
VERTEX
8
0
10
-1.114000
20
0.358000
0
VERTEX
8
0
10
-1.114000
20
0.359000
0
SEQEND
8
0
0
POLYLINE
8
0
66
1
40
0.025000
41
0.025000
0
VERTEX
8
0
10
-0.697000
20
1.053000
0
VERTEX
8
0
10
-0.677000
20
1.053000
0
VERTEX
8
0
10
-0.644000
20
1.020000
0
VERTEX
8
0
10
-0.644000
20
0.991000
0
VERTEX
8
0
10
-0.644000
20
0.951000
0
SEQEND
8
0
0
POLYLINE
8
0
66
1
40
0.025000
41
0.025000
0
VERTEX
8
0
10
0.313000
20
1.348000
0
VERTEX
8
0
10
0.303000
20
1.338000
0
VERTEX
8
0
10
0.303000
20
0.960000
0
SEQEND
8
0
0
POLYLINE
8
0
66
1
40
0.025000
41
0.025000
0
VERTEX
8
0
10
1.478000
20
1.943000
0
VERTEX
8
0
10
1.483000
20
1.938000
0
VERTEX
8
0
10
1.483000
20
1.798000
0
SEQEND
8
0
0
POLYLINE
8
0
66
1
40
0.025000
41
0.025000
0
VERTEX
8
0
10
1.478000
20
1.943000
0
VERTEX
8
0
10
1.478000
20
2.093000
0
SEQEND
8
0
0
POLYLINE
8
0
66
1
40
0.025000
41
0.025000
0
VERTEX
8
0
10
0.055000
20
0.001000
0
VERTEX
8
0
10
0.054000
20
-0.010000
0
VERTEX
8
0
10
0.054000
20
-0.632000
0
VERTEX
8
0
10
-0.116000
20
-0.803000
0
VERTEX
8
0
10
-0.118000
20
-0.803000
0
VERTEX
8
0
10
-0.162000
20
-0.847000
0
VERTEX
8
0
10
-0.162000
20
-1.244000
0
VERTEX
8
0
10
-0.164000
20
-1.247000
0
VERTEX
8
0
10
-0.164000
20
-1.540000
0
VERTEX
8
0
10
0.053000
20
-1.758000
0
VERTEX
8
0
10
0.053000
20
-1.943000
0
VERTEX
8
0
10
0.054000
20
-1.944000
0
VERTEX
8
0
10
0.054000
20
-2.506000
0
VERTEX
8
0
10
-0.365000
20
-2.926000
0
VERTEX
8
0
10
-0.996000
20
-2.926000
0
VERTEX
8
0
10
-1.028000
20
-2.890000
0
SEQEND
8
0
0
POLYLINE
8
0
66
1
40
0.025000
41
0.025000
0
VERTEX
8
0
10
0.903000
20
0.060000
0
VERTEX
8
0
10
1.113000
20
0.060000
0
VERTEX
8
0
10
1.213000
20
-0.039000
0
VERTEX
8
0
10
1.213000
20
-0.456000
0
SEQEND
8
0
0
POLYLINE
8
0
66
1
40
0.025000
41
0.025000
0
VERTEX
8
0
10
0.903000
20
0.060000
0
VERTEX
8
0
10
0.663000
20
0.060000
0
VERTEX
8
0
10
0.613000
20
0.110000
0
VERTEX
8
0
10
0.613000
20
2.005000
0
VERTEX
8
0
10
0.413000
20
2.205000
0
VERTEX
8
0
10
0.413000
20
2.680000
0
VERTEX
8
0
10
0.363000
20
2.730000
0
VERTEX
8
0
10
0.188000
20
2.730000
0
SEQEND
8
0
0
POLYLINE
8
0
66
1
40
0.025000
41
0.025000
0
VERTEX
8
0
10
-0.111000
20
-1.698000
0
VERTEX
8
0
10
-0.111000
20
-1.939000
0
VERTEX
8
0
10
0.013000
20
-2.063000
0
VERTEX
8
0
10
0.013000
20
-2.462000
0
VERTEX
8
0
10
-0.327000
20
-2.803000
0
VERTEX
8
0
10
-0.327000
20
-2.822000
0
SEQEND
8
0
0
POLYLINE
8
0
66
1
40
0.025000
41
0.025000
0
VERTEX
8
0
10
-0.103000
20
-0.050000
0
VERTEX
8
0
10
0.003000
20
-0.157000
0
VERTEX
8
0
10
0.003000
20
-0.597000
0
VERTEX
8
0
10
-0.084000
20
-0.685000
0
VERTEX
8
0
10
-0.116000
20
-0.718000
0
SEQEND
8
0
0
POLYLINE
8
0
66
1
40
0.025000
41
0.025000
0
VERTEX
8
0
10
-0.327000
20
-2.822000
0
VERTEX
8
0
10
-0.330000
20
-2.822000
0
SEQEND
8
0
0
POLYLINE
8
0
66
1
40
0.025000
41
0.025000
0
VERTEX
8
0
10
-0.382000
20
-2.824000
0
VERTEX
8
0
10
-0.328000
20
-2.824000
0
VERTEX
8
0
10
-0.327000
20
-2.822000
0
SEQEND
8
0
0
POLYLINE
8
0
66
1
40
0.025000
41
0.025000
0
VERTEX
8
0
10
-0.330000
20
-2.822000
0
VERTEX
8
0
10
-0.385000
20
-2.822000
0
SEQEND
8
0
0
POLYLINE
8
0
66
1
40
0.025000
41
0.025000
0
VERTEX
8
0
10
0.903000
20
-0.039000
0
VERTEX
8
0
10
0.903000
20
-0.039000
0
VERTEX
8
0
10
1.030000
20
-0.039000
0
VERTEX
8
0
10
1.099000
20
-0.108000
0
VERTEX
8
0
10
1.099000
20
-0.482000
0
SEQEND
8
0
0
POLYLINE
8
0
66
1
40
0.025000
41
0.025000
0
VERTEX
8
0
10
0.903000
20
-0.039000
0
VERTEX
8
0
10
0.775000
20
-0.039000
0
VERTEX
8
0
10
0.709000
20
-0.039000
0
SEQEND
8
0
0
POLYLINE
8
0
66
1
40
0.025000
41
0.025000
0
VERTEX
8
0
10
0.784000
20
0.531000
0
VERTEX
8
0
10
0.785000
20
1.190000
0
VERTEX
8
0
10
0.789000
20
2.767000
0
VERTEX
8
0
10
0.763000
20
2.798000
0
VERTEX
8
0
10
0.717000
20
2.844000
0
VERTEX
8
0
10
0.047000
20
2.844000
0
VERTEX
8
0
10
-0.011000
20
2.785000
0
VERTEX
8
0
10
-0.011000
20
2.730000
0
SEQEND
8
0
0
POLYLINE
8
0
66
1
40
0.050000
41
0.050000
0
VERTEX
8
0
10
-1.475000
20
-0.455000
0
VERTEX
8
0
10
-1.900000
20
-0.455000
0
VERTEX
8
0
10
-2.041000
20
-0.597000
0
VERTEX
8
0
10
-2.041000
20
-0.784000
0
SEQEND
8
0
0
POLYLINE
8
0
66
1
40
0.050000
41
0.050000
0
VERTEX
8
0
10
-0.518000
20
-0.378000
0
VERTEX
8
0
10
-0.595000
20
-0.455000
0
VERTEX
8
0
10
-1.475000
20
-0.455000
0
VERTEX
8
0
10
-1.184000
20
-0.747000
0
VERTEX
8
0
10
-1.055000
20
-0.747000
0
SEQEND
8
0
0
POLYLINE
8
0
66
1
40
0.050000
41
0.050000
0
VERTEX
8
0
10
0.271000
20
-0.378000
0
VERTEX
8
0
10
0.357000
20
-0.378000
0
VERTEX
8
0
10
0.726000
20
-0.747000
0
VERTEX
8
0
10
0.951000
20
-0.747000
0
VERTEX
8
0
10
0.952000
20
-0.746000
0
SEQEND
8
0
0
POLYLINE
8
0
66
1
40
0.025000
41
0.025000
0
VERTEX
8
0
10
-1.212000
20
-0.326000
0
VERTEX
8
0
10
-1.586000
20
-0.326000
0
VERTEX
8
0
10
-1.636000
20
-0.276000
0
VERTEX
8
0
10
-1.636000
20
-0.218000
0
VERTEX
8
0
10
-1.714000
20
-0.140000
0
SEQEND
8
0
0
POLYLINE
8
0
66
1
40
0.025000
41
0.025000
0
VERTEX
8
0
10
-0.663000
20
-0.232000
0
VERTEX
8
0
10
-0.757000
20
-0.326000
0
VERTEX
8
0
10
-0.802000
20
-0.326000
0
SEQEND
8
0
0
POLYLINE
8
0
66
1
40
0.025000
41
0.025000
0
VERTEX
8
0
10
-1.136000
20
-0.326000
0
VERTEX
8
0
10
-0.956000
20
-0.326000
0
SEQEND
8
0
0
POLYLINE
8
0
66
1
40
0.025000
41
0.025000
0
VERTEX
8
0
10
-0.802000
20
-0.326000
0
VERTEX
8
0
10
-0.956000
20
-0.326000
0
SEQEND
8
0
0
POLYLINE
8
0
66
1
40
0.025000
41
0.025000
0
VERTEX
8
0
10
-1.136000
20
-0.326000
0
VERTEX
8
0
10
-1.212000
20
-0.326000
0
SEQEND
8
0
0
POLYLINE
8
0
66
1
40
0.025000
41
0.025000
0
VERTEX
8
0
10
-0.598000
20
1.123000
0
VERTEX
8
0
10
-0.544000
20
1.123000
0
VERTEX
8
0
10
-0.444000
20
1.023000
0
VERTEX
8
0
10
-0.444000
20
0.991000
0
VERTEX
8
0
10
-0.444000
20
0.951000
0
SEQEND
8
0
0
POLYLINE
8
0
66
1
40
0.025000
41
0.025000
0
VERTEX
8
0
10
-0.986000
20
1.123000
0
VERTEX
8
0
10
-0.598000
20
1.123000
0
SEQEND
8
0
0
POLYLINE
8
0
66
1
40
0.025000
41
0.025000
0
VERTEX
8
0
10
0.213000
20
0.887000
0
VERTEX
8
0
10
0.239000
20
0.860000
0
VERTEX
8
0
10
0.303000
20
0.860000
0
SEQEND
8
0
0
POLYLINE
8
0
66
1
40
0.025000
41
0.025000
0
VERTEX
8
0
10
0.213000
20
0.887000
0
VERTEX
8
0
10
0.213000
20
2.131000
0
VERTEX
8
0
10
-0.110000
20
2.455000
0
VERTEX
8
0
10
-0.110000
20
2.632000
0
SEQEND
8
0
0
POLYLINE
8
0
66
1
40
0.025000
41
0.025000
0
VERTEX
8
0
10
0.903000
20
0.760000
0
VERTEX
8
0
10
0.838000
20
0.760000
0
VERTEX
8
0
10
0.838000
20
1.048000
0
VERTEX
8
0
10
0.988000
20
1.198000
0
SEQEND
8
0
0
POLYLINE
8
0
66
1
40
0.025000
41
0.025000
0
VERTEX
8
0
10
0.988000
20
1.463000
0
VERTEX
8
0
10
0.988000
20
1.972000
0
VERTEX
8
0
10
0.913000
20
2.048000
0
SEQEND
8
0
0
POLYLINE
8
0
66
1
40
0.025000
41
0.025000
0
VERTEX
8
0
10
0.988000
20
1.198000
0
VERTEX
8
0
10
0.988000
20
1.199000
0
VERTEX
8
0
10
0.988000
20
1.348000
0
SEQEND
8
0
0
POLYLINE
8
0
66
1
40
0.025000
41
0.025000
0
VERTEX
8
0
10
-0.305000
20
0.480000
0
VERTEX
8
0
10
-0.231000
20
0.480000
0
SEQEND
8
0
0
POLYLINE
8
0
66
1
40
0.025000
41
0.025000
0
VERTEX
8
0
10
-0.011000
20
0.998000
0
VERTEX
8
0
10
-0.011000
20
0.700000
0
VERTEX
8
0
10
-0.231000
20
0.480000
0
SEQEND
8
0
0
POLYLINE
8
0
66
1
40
0.025000
41
0.025000
0
VERTEX
8
0
10
0.988000
20
1.463000
0
VERTEX
8
0
10
0.988000
20
1.348000
0
SEQEND
8
0
0
POLYLINE
8
0
66
1
40
0.025000
41
0.025000
0
VERTEX
8
0
10
0.312000
20
-2.837000
0
VERTEX
8
0
10
0.298000
20
-2.837000
0
SEQEND
8
0
0
POLYLINE
8
0
66
1
40
0.025000
41
0.025000
0
VERTEX
8
0
10
0.226000
20
-1.937000
0
VERTEX
8
0
10
0.238000
20
-1.975000
0
VERTEX
8
0
10
0.238000
20
-2.777000
0
VERTEX
8
0
10
0.298000
20
-2.837000
0
VERTEX
8
0
10
0.301000
20
-2.841000
0
SEQEND
8
0
0
POLYLINE
8
0
66
1
40
0.025000
41
0.025000
0
VERTEX
8
0
10
1.967000
20
-0.820000
0
VERTEX
8
0
10
2.074000
20
-0.926000
0
VERTEX
8
0
10
2.563000
20
-0.926000
0
VERTEX
8
0
10
2.613000
20
-0.876000
0
VERTEX
8
0
10
2.613000
20
-0.572000
0
VERTEX
8
0
10
2.588000
20
-0.547000
0
VERTEX
8
0
10
2.526000
20
-0.547000
0
SEQEND
8
0
0
POLYLINE
8
0
66
1
40
0.025000
41
0.025000
0
VERTEX
8
0
10
1.338000
20
-0.480000
0
VERTEX
8
0
10
1.338000
20
-0.488000
0
SEQEND
8
0
0
POLYLINE
8
0
66
1
40
0.025000
41
0.025000
0
VERTEX
8
0
10
1.967000
20
-0.820000
0
VERTEX
8
0
10
1.935000
20
-0.787000
0
VERTEX
8
0
10
1.935000
20
-0.742000
0
SEQEND
8
0
0
POLYLINE
8
0
66
1
40
0.025000
41
0.025000
0
VERTEX
8
0
10
1.868000
20
-0.675000
0
VERTEX
8
0
10
1.935000
20
-0.742000
0
SEQEND
8
0
0
POLYLINE
8
0
66
1
40
0.025000
41
0.025000
0
VERTEX
8
0
10
1.352000
20
-0.638000
0
VERTEX
8
0
10
1.338000
20
-0.624000
0
VERTEX
8
0
10
1.338000
20
-0.593000
0
SEQEND
8
0
0
POLYLINE
8
0
66
1
40
0.025000
41
0.025000
0
VERTEX
8
0
10
1.338000
20
-0.488000
0
VERTEX
8
0
10
1.338000
20
-0.593000
0
SEQEND
8
0
0
POLYLINE
8
0
66
1
40
0.025000
41
0.025000
0
VERTEX
8
0
10
1.338000
20
0.148000
0
VERTEX
8
0
10
1.338000
20
-0.480000
0
SEQEND
8
0
0
POLYLINE
8
0
66
1
40
0.025000
41
0.025000
0
VERTEX
8
0
10
0.903000
20
0.160000
0
VERTEX
8
0
10
0.763000
20
0.160000
0
VERTEX
8
0
10
0.663000
20
0.260000
0
VERTEX
8
0
10
0.663000
20
2.723000
0
VERTEX
8
0
10
0.587000
20
2.799000
0
VERTEX
8
0
10
0.120000
20
2.799000
0
VERTEX
8
0
10
0.088000
20
2.767000
0
VERTEX
8
0
10
0.088000
20
2.730000
0
SEQEND
8
0
0
POLYLINE
8
0
66
1
40
0.025000
41
0.025000
0
VERTEX
8
0
10
-1.561000
20
0.946000
0
VERTEX
8
0
10
-1.561000
20
0.458000
0
SEQEND
8
0
0
POLYLINE
8
0
66
1
40
0.025000
41
0.025000
0
VERTEX
8
0
10
-1.036000
20
0.623000
0
VERTEX
8
0
10
-1.036000
20
0.973000
0
SEQEND
8
0
0
POLYLINE
8
0
66
1
40
0.025000
41
0.025000
0
VERTEX
8
0
10
-0.956000
20
0.948000
0
VERTEX
8
0
10
-0.954000
20
0.763000
0
VERTEX
8
0
10
-0.909000
20
0.702000
0
VERTEX
8
0
10
-0.907000
20
0.573000
0
SEQEND
8
0
0
POLYLINE
8
0
66
1
40
0.025000
41
0.025000
0
VERTEX
8
0
10
-0.559000
20
1.497000
0
VERTEX
8
0
10
-0.559000
20
1.369000
0
SEQEND
8
0
0
POLYLINE
8
0
66
1
40
0.025000
41
0.025000
0
VERTEX
8
0
10
-0.192000
20
1.358000
0
VERTEX
8
0
10
-0.192000
20
1.446000
0
VERTEX
8
0
10
-0.145000
20
1.498000
0
VERTEX
8
0
10
0.063000
20
1.498000
0
SEQEND
8
0
0
POLYLINE
8
0
66
1
40
0.025000
41
0.025000
0
VERTEX
8
0
10
-0.636000
20
1.498000
0
VERTEX
8
0
10
-0.636000
20
1.348000
0
VERTEX
8
0
10
-0.561000
20
1.273000
0
SEQEND
8
0
0
POLYLINE
8
0
66
1
40
0.025000
41
0.025000
0
VERTEX
8
0
10
-1.086000
20
1.898000
0
VERTEX
8
0
10
-1.086000
20
1.223000
0
VERTEX
8
0
10
-1.036000
20
1.173000
0
VERTEX
8
0
10
-0.761000
20
1.173000
0
SEQEND
8
0
0
POLYLINE
8
0
66
1
40
0.025000
41
0.025000
0
VERTEX
8
0
10
-0.586000
20
1.573000
0
VERTEX
8
0
10
-0.441000
20
1.573000
0
VERTEX
8
0
10
-0.361000
20
1.493000
0
VERTEX
8
0
10
-0.361000
20
1.247000
0
SEQEND
8
0
0
POLYLINE
8
0
66
1
40
0.025000
41
0.025000
0
VERTEX
8
0
10
-0.986000
20
1.548000
0
VERTEX
8
0
10
-0.746000
20
1.548000
0
VERTEX
8
0
10
-0.612000
20
1.682000
0
VERTEX
8
0
10
-0.586000
20
1.682000
0
SEQEND
8
0
0
POLYLINE
8
0
66
1
40
0.025000
41
0.025000
0
VERTEX
8
0
10
-0.161000
20
1.198000
0
VERTEX
8
0
10
-0.061000
20
1.198000
0
VERTEX
8
0
10
0.038000
20
1.298000
0
SEQEND
8
0
0
POLYLINE
8
0
66
1
40
0.025000
41
0.025000
0
VERTEX
8
0
10
0.013000
20
-2.965000
0
VERTEX
8
0
10
0.013000
20
-2.881000
0
SEQEND
8
0
0
POLYLINE
8
0
66
1
40
0.025000
41
0.025000
0
VERTEX
8
0
10
0.238000
20
-2.867000
0
VERTEX
8
0
10
0.167000
20
-2.796000
0
VERTEX
8
0
10
0.167000
20
-1.877000
0
VERTEX
8
0
10
0.228000
20
-1.815000
0
VERTEX
8
0
10
0.228000
20
-0.946000
0
SEQEND
8
0
0
POLYLINE
8
0
66
1
40
0.025000
41
0.025000
0
VERTEX
8
0
10
1.213000
20
-2.947000
0
VERTEX
8
0
10
1.311000
20
-2.947000
0
SEQEND
8
0
0
POLYLINE
8
0
66
1
40
0.025000
41
0.025000
0
VERTEX
8
0
10
0.238000
20
-2.867000
0
VERTEX
8
0
10
0.318000
20
-2.947000
0
VERTEX
8
0
10
1.213000
20
-2.947000
0
VERTEX
8
0
10
1.430000
20
-2.947000
0
VERTEX
8
0
10
1.469000
20
-2.909000
0
VERTEX
8
0
10
1.469000
20
-2.843000
0
SEQEND
8
0
0
POLYLINE
8
0
66
1
40
0.025000
41
0.025000
0
VERTEX
8
0
10
-1.299000
20
-2.965000
0
VERTEX
8
0
10
-1.378000
20
-2.965000
0
VERTEX
8
0
10
-1.401000
20
-2.943000
0
VERTEX
8
0
10
-1.401000
20
-2.890000
0
VERTEX
8
0
10
-1.402000
20
-2.888000
0
SEQEND
8
0
0
POLYLINE
8
0
66
1
40
0.025000
41
0.025000
0
VERTEX
8
0
10
-1.695000
20
2.719000
0
VERTEX
8
0
10
-1.695000
20
2.783000
0
VERTEX
8
0
10
-1.662000
20
2.816000
0
VERTEX
8
0
10
-1.206000
20
2.816000
0
VERTEX
8
0
10
-1.175000
20
2.785000
0
VERTEX
8
0
10
-1.175000
20
2.723000
0
SEQEND
8
0
0
POLYLINE
8
0
66
1
40
0.025000
41
0.025000
0
VERTEX
8
0
10
1.289000
20
-0.825000
0
VERTEX
8
0
10
1.333000
20
-0.780000
0
VERTEX
8
0
10
1.333000
20
-0.780000
0
SEQEND
8
0
0
POLYLINE
8
0
66
1
40
0.025000
41
0.025000
0
VERTEX
8
0
10
1.289000
20
-0.825000
0
VERTEX
8
0
10
1.333000
20
-0.780000
0
SEQEND
8
0
0
POLYLINE
8
0
66
1
40
0.025000
41
0.025000
0
VERTEX
8
0
10
0.228000
20
-0.946000
0
VERTEX
8
0
10
0.349000
20
-0.824000
0
VERTEX
8
0
10
0.387000
20
-0.824000
0
SEQEND
8
0
0
POLYLINE
8
0
66
1
40
0.025000
41
0.025000
0
VERTEX
8
0
10
0.557000
20
-0.824000
0
VERTEX
8
0
10
0.557000
20
-0.824000
0
VERTEX
8
0
10
0.498000
20
-0.824000
0
SEQEND
8
0
0
POLYLINE
8
0
66
1
40
0.025000
41
0.025000
0
VERTEX
8
0
10
0.387000
20
-0.824000
0
VERTEX
8
0
10
0.498000
20
-0.824000
0
SEQEND
8
0
0
POLYLINE
8
0
66
1
40
0.025000
41
0.025000
0
VERTEX
8
0
10
-1.261000
20
-2.965000
0
VERTEX
8
0
10
0.013000
20
-2.965000
0
SEQEND
8
0
0
POLYLINE
8
0
66
1
40
0.025000
41
0.025000
0
VERTEX
8
0
10
-1.299000
20
-2.965000
0
VERTEX
8
0
10
-1.261000
20
-2.965000
0
SEQEND
8
0
0
POLYLINE
8
0
66
1
40
0.025000
41
0.025000
0
VERTEX
8
0
10
0.238000
20
-2.867000
0
VERTEX
8
0
10
0.238000
20
-2.926000
0
VERTEX
8
0
10
0.198000
20
-2.966000
0
VERTEX
8
0
10
0.013000
20
-2.966000
0
VERTEX
8
0
10
0.013000
20
-2.965000
0
SEQEND
8
0
0
POLYLINE
8
0
66
1
40
0.025000
41
0.025000
0
VERTEX
8
0
10
1.311000
20
-2.947000
0
VERTEX
8
0
10
1.359000
20
-2.947000
0
SEQEND
8
0
0
POLYLINE
8
0
66
1
40
0.025000
41
0.025000
0
VERTEX
8
0
10
0.228000
20
-0.946000
0
VERTEX
8
0
10
0.228000
20
-0.944000
0
VERTEX
8
0
10
0.330000
20
-0.842000
0
SEQEND
8
0
0
POLYLINE
8
0
66
1
40
0.025000
41
0.025000
0
VERTEX
8
0
10
-0.811000
20
2.398000
0
VERTEX
8
0
10
-0.986000
20
2.398000
0
SEQEND
8
0
0
POLYLINE
8
0
66
1
40
0.025000
41
0.025000
0
VERTEX
8
0
10
-1.175000
20
2.723000
0
VERTEX
8
0
10
-1.175000
20
2.448000
0
VERTEX
8
0
10
-1.125000
20
2.398000
0
VERTEX
8
0
10
-0.986000
20
2.398000
0
VERTEX
8
0
10
-0.986000
20
2.458000
0
VERTEX
8
0
10
-0.966000
20
2.478000
0
SEQEND
8
0
0
POLYLINE
8
0
66
1
40
0.025000
41
0.025000
0
VERTEX
8
0
10
-2.111000
20
0.008000
0
VERTEX
8
0
10
-2.111000
20
1.073000
0
SEQEND
8
0
0
POLYLINE
8
0
66
1
40
0.025000
41
0.025000
0
VERTEX
8
0
10
-1.786000
20
1.223000
0
VERTEX
8
0
10
-2.036000
20
1.223000
0
SEQEND
8
0
0
POLYLINE
8
0
66
1
40
0.025000
41
0.025000
0
VERTEX
8
0
10
-1.686000
20
1.223000
0
VERTEX
8
0
10
-1.686000
20
0.986000
0
VERTEX
8
0
10
-1.714000
20
0.959000
0
SEQEND
8
0
0
POLYLINE
8
0
66
1
40
0.025000
41
0.025000
0
VERTEX
8
0
10
-2.111000
20
0.008000
0
VERTEX
8
0
10
-2.111000
20
-0.076000
0
VERTEX
8
0
10
-2.111000
20
-0.095000
0
VERTEX
8
0
10
-2.219000
20
-0.202000
0
SEQEND
8
0
0
POLYLINE
8
0
66
1
40
0.030000
41
0.030000
0
VERTEX
8
0
10
-1.795000
20
2.719000
0
VERTEX
8
0
10
-1.795000
20
2.788000
0
VERTEX
8
0
10
-1.830000
20
2.823000
0
VERTEX
8
0
10
-1.836000
20
2.823000
0
SEQEND
8
0
0
POLYLINE
8
0
66
1
40
0.030000
41
0.030000
0
VERTEX
8
0
10
-1.502000
20
-2.888000
0
VERTEX
8
0
10
-1.502000
20
-2.833000
0
VERTEX
8
0
10
-1.416000
20
-2.747000
0
VERTEX
8
0
10
-0.536000
20
-2.747000
0
VERTEX
8
0
10
-0.535000
20
-2.748000
0
SEQEND
8
0
0
POLYLINE
8
0
66
1
40
0.030000
41
0.030000
0
VERTEX
8
0
10
-1.336000
20
1.273000
0
VERTEX
8
0
10
-1.336000
20
1.398000
0
SEQEND
8
0
0
POLYLINE
8
0
66
1
40
0.030000
41
0.030000
0
VERTEX
8
0
10
-1.261000
20
1.198000
0
VERTEX
8
0
10
-1.336000
20
1.273000
0
SEQEND
8
0
0
POLYLINE
8
0
66
1
40
0.030000
41
0.030000
0
VERTEX
8
0
10
-1.361000
20
0.548000
0
VERTEX
8
0
10
-1.436000
20
0.623000
0
VERTEX
8
0
10
-1.436000
20
1.110000
0
VERTEX
8
0
10
-1.349000
20
1.198000
0
VERTEX
8
0
10
-1.336000
20
1.210000
0
VERTEX
8
0
10
-1.336000
20
1.273000
0
SEQEND
8
0
0
POLYLINE
8
0
66
1
40
0.030000
41
0.030000
0
VERTEX
8
0
10
-1.263000
20
1.471000
0
VERTEX
8
0
10
-1.336000
20
1.398000
0
SEQEND
8
0
0
POLYLINE
8
0
66
1
40
0.030000
41
0.030000
0
VERTEX
8
0
10
-1.425000
20
2.498000
0
VERTEX
8
0
10
-1.267000
20
2.340000
0
VERTEX
8
0
10
-1.267000
20
2.117000
0
VERTEX
8
0
10
-1.408000
20
1.977000
0
VERTEX
8
0
10
-1.408000
20
1.617000
0
VERTEX
8
0
10
-1.263000
20
1.471000
0
SEQEND
8
0
0
POLYLINE
8
0
66
1
40
0.030000
41
0.030000
0
VERTEX
8
0
10
1.463000
20
0.844000
0
VERTEX
8
0
10
1.463000
20
0.952000
0
SEQEND
8
0
0
POLYLINE
8
0
66
1
40
0.030000
41
0.030000
0
VERTEX
8
0
10
-0.861000
20
0.972000
0
VERTEX
8
0
10
-0.861000
20
0.881000
0
VERTEX
8
0
10
-0.823000
20
0.843000
0
VERTEX
8
0
10
-0.744000
20
0.843000
0
SEQEND
8
0
0
POLYLINE
8
0
66
1
40
0.030000
41
0.030000
0
VERTEX
8
0
10
-0.542000
20
0.763000
0
VERTEX
8
0
10
-0.542000
20
0.698000
0
SEQEND
8
0
0
POLYLINE
8
0
66
1
40
0.030000
41
0.030000
0
VERTEX
8
0
10
-0.544000
20
0.843000
0
VERTEX
8
0
10
-0.542000
20
0.842000
0
VERTEX
8
0
10
-0.542000
20
0.763000
0
VERTEX
8
0
10
-0.544000
20
0.764000
0
SEQEND
8
0
0
POLYLINE
8
0
66
1
40
0.030000
41
0.030000
0
VERTEX
8
0
10
-0.542000
20
0.399000
0
VERTEX
8
0
10
-0.542000
20
0.698000
0
SEQEND
8
0
0
POLYLINE
8
0
66
1
40
0.030000
41
0.030000
0
VERTEX
8
0
10
2.186000
20
-0.635000
0
VERTEX
8
0
10
2.288000
20
-0.533000
0
VERTEX
8
0
10
2.288000
20
-0.377000
0
VERTEX
8
0
10
2.286000
20
-0.375000
0
VERTEX
8
0
10
2.191000
20
-0.279000
0
VERTEX
8
0
10
2.191000
20
-0.227000
0
SEQEND
8
0
0
POLYLINE
8
0
66
1
40
0.025000
41
0.025000
0
VERTEX
8
0
10
0.903000
20
0.760000
0
VERTEX
8
0
10
0.988000
20
0.760000
0
VERTEX
8
0
10
1.100000
20
0.648000
0
VERTEX
8
0
10
1.713000
20
0.648000
0
SEQEND
8
0
0
POLYLINE
8
0
66
1
40
0.025000
41
0.025000
0
VERTEX
8
0
10
1.889000
20
-0.126000
0
VERTEX
8
0
10
2.134000
20
-0.126000
0
VERTEX
8
0
10
2.137000
20
-0.123000
0
SEQEND
8
0
0
POLYLINE
8
0
66
1
40
0.030000
41
0.030000
0
VERTEX
8
0
10
1.463000
20
0.952000
0
VERTEX
8
0
10
1.463000
20
1.098000
0
VERTEX
8
0
10
1.813000
20
1.447000
0
VERTEX
8
0
10
1.813000
20
1.745000
0
VERTEX
8
0
10
1.866000
20
1.798000
0
VERTEX
8
0
10
1.910000
20
1.798000
0
SEQEND
8
0
0
POLYLINE
8
0
66
1
40
0.025000
41
0.025000
0
VERTEX
8
0
10
1.869000
20
2.196000
0
VERTEX
8
0
10
1.869000
20
2.194000
0
VERTEX
8
0
10
1.899000
20
2.194000
0
SEQEND
8
0
0
POLYLINE
8
0
66
1
40
0.025000
41
0.025000
0
VERTEX
8
0
10
1.899000
20
2.094000
0
VERTEX
8
0
10
1.685000
20
1.881000
0
VERTEX
8
0
10
1.685000
20
1.488000
0
VERTEX
8
0
10
1.651000
20
1.454000
0
VERTEX
8
0
10
1.107000
20
1.454000
0
VERTEX
8
0
10
1.038000
20
1.523000
0
VERTEX
8
0
10
1.038000
20
1.773000
0
SEQEND
8
0
0
POLYLINE
8
0
66
1
40
0.030000
41
0.030000
0
VERTEX
8
0
10
1.955000
20
0.139000
0
VERTEX
8
0
10
1.757000
20
-0.059000
0
VERTEX
8
0
10
1.757000
20
-0.201000
0
VERTEX
8
0
10
2.024000
20
-0.468000
0
VERTEX
8
0
10
2.226000
20
-0.468000
0
SEQEND
8
0
0
POLYLINE
8
0
66
1
40
0.025000
41
0.025000
0
VERTEX
8
0
10
0.303000
20
-0.039000
0
VERTEX
8
0
10
0.425000
20
-0.039000
0
VERTEX
8
0
10
0.488000
20
-0.101000
0
VERTEX
8
0
10
0.488000
20
-0.351000
0
SEQEND
8
0
0
POLYLINE
8
0
66
1
40
0.025000
41
0.025000
0
VERTEX
8
0
10
1.581000
20
2.508000
0
VERTEX
8
0
10
1.540000
20
2.549000
0
VERTEX
8
0
10
1.188000
20
2.549000
0
VERTEX
8
0
10
1.125000
20
2.486000
0
VERTEX
8
0
10
1.125000
20
1.806000
0
SEQEND
8
0
0
POLYLINE
8
0
66
1
40
0.025000
41
0.025000
0
VERTEX
8
0
10
1.727000
20
2.306000
0
VERTEX
8
0
10
1.727000
20
2.269000
0
VERTEX
8
0
10
1.799000
20
2.196000
0
VERTEX
8
0
10
1.836000
20
2.196000
0
VERTEX
8
0
10
1.869000
20
2.196000
0
SEQEND
8
0
0
POLYLINE
8
0
66
1
40
0.025000
41
0.025000
0
VERTEX
8
0
10
1.030000
20
2.691000
0
VERTEX
8
0
10
1.030000
20
2.640000
0
VERTEX
8
0
10
1.075000
20
2.595000
0
VERTEX
8
0
10
1.586000
20
2.595000
0
VERTEX
8
0
10
1.632000
20
2.550000
0
VERTEX
8
0
10
1.632000
20
2.460000
0
VERTEX
8
0
10
1.633000
20
2.458000
0
VERTEX
8
0
10
1.633000
20
2.399000
0
VERTEX
8
0
10
1.727000
20
2.306000
0
VERTEX
8
0
10
1.836000
20
2.196000
0
SEQEND
8
0
0
POLYLINE
8
0
66
1
40
0.025000
41
0.025000
0
VERTEX
8
0
10
1.803000
20
2.500000
0
VERTEX
8
0
10
1.803000
20
2.442000
0
VERTEX
8
0
10
1.738000
20
2.378000
0
VERTEX
8
0
10
1.738000
20
2.306000
0
VERTEX
8
0
10
1.727000
20
2.306000
0
SEQEND
8
0
0
POLYLINE
8
0
66
1
40
0.025000
41
0.025000
0
VERTEX
8
0
10
0.903000
20
0.560000
0
VERTEX
8
0
10
1.886000
20
0.560000
0
VERTEX
8
0
10
1.976000
20
0.650000
0
VERTEX
8
0
10
1.976000
20
2.432000
0
VERTEX
8
0
10
1.903000
20
2.505000
0
VERTEX
8
0
10
1.903000
20
2.500000
0
SEQEND
8
0
0
POLYLINE
8
0
66
1
40
0.025000
41
0.025000
0
VERTEX
8
0
10
2.015000
20
2.455000
0
VERTEX
8
0
10
2.015000
20
2.472000
0
VERTEX
8
0
10
2.015000
20
2.473000
0
VERTEX
8
0
10
2.015000
20
2.521000
0
VERTEX
8
0
10
2.015000
20
2.522000
0
VERTEX
8
0
10
2.008000
20
2.529000
0
SEQEND
8
0
0
POLYLINE
8
0
66
1
40
0.025000
41
0.025000
0
VERTEX
8
0
10
2.015000
20
2.455000
0
VERTEX
8
0
10
2.015000
20
0.477000
0
VERTEX
8
0
10
1.428000
20
-0.109000
0
VERTEX
8
0
10
1.428000
20
-0.686000
0
VERTEX
8
0
10
1.333000
20
-0.780000
0
SEQEND
8
0
0
POLYLINE
8
0
66
1
40
0.025000
41
0.025000
0
VERTEX
8
0
10
1.803000
20
2.500000
0
VERTEX
8
0
10
1.803000
20
2.559000
0
VERTEX
8
0
10
1.842000
20
2.599000
0
VERTEX
8
0
10
1.938000
20
2.599000
0
VERTEX
8
0
10
2.008000
20
2.529000
0
SEQEND
8
0
0
POLYLINE
8
0
66
1
40
0.025000
41
0.025000
0
VERTEX
8
0
10
2.015000
20
2.522000
0
VERTEX
8
0
10
2.015000
20
2.522000
0
VERTEX
8
0
10
2.015000
20
2.521000
0
SEQEND
8
0
0
POLYLINE
8
0
66
1
40
0.025000
41
0.025000
0
VERTEX
8
0
10
-0.444000
20
0.843000
0
VERTEX
8
0
10
-0.444000
20
-0.135000
0
VERTEX
8
0
10
-0.686000
20
-0.377000
0
VERTEX
8
0
10
-1.686000
20
-0.377000
0
VERTEX
8
0
10
-1.795000
20
-0.269000
0
VERTEX
8
0
10
-1.795000
20
0.241000
0
VERTEX
8
0
10
-1.778000
20
0.258000
0
VERTEX
8
0
10
-1.714000
20
0.258000
0
VERTEX
8
0
10
-1.714000
20
0.259000
0
SEQEND
8
0
0
POLYLINE
8
0
66
1
40
0.030000
41
0.030000
0
VERTEX
8
0
10
-1.714000
20
0.659000
0
VERTEX
8
0
10
-1.825000
20
0.659000
0
VERTEX
8
0
10
-1.854000
20
0.630000
0
VERTEX
8
0
10
-1.854000
20
-0.130000
0
VERTEX
8
0
10
-1.886000
20
-0.162000
0
SEQEND
8
0
0
POLYLINE
8
0
66
1
40
0.025000
41
0.025000
0
VERTEX
8
0
10
0.903000
20
0.460000
0
VERTEX
8
0
10
0.746000
20
0.460000
0
VERTEX
8
0
10
0.713000
20
0.494000
0
VERTEX
8
0
10
0.713000
20
2.098000
0
SEQEND
8
0
0
POLYLINE
8
0
66
1
40
0.025000
41
0.025000
0
VERTEX
8
0
10
-1.976000
20
1.503000
0
VERTEX
8
0
10
-1.881000
20
1.503000
0
VERTEX
8
0
10
-1.755000
20
1.629000
0
VERTEX
8
0
10
-1.755000
20
2.378000
0
SEQEND
8
0
0
POLYLINE
8
0
66
1
40
0.025000
41
0.025000
0
VERTEX
8
0
10
-1.811000
20
2.623000
0
VERTEX
8
0
10
-1.733000
20
2.623000
0
VERTEX
8
0
10
-1.694000
20
2.662000
0
VERTEX
8
0
10
-1.694000
20
2.718000
0
VERTEX
8
0
10
-1.695000
20
2.719000
0
SEQEND
8
0
0
POLYLINE
8
0
66
1
40
0.030000
41
0.030000
0
VERTEX
8
0
10
-1.992000
20
2.488000
0
VERTEX
8
0
10
-1.992000
20
2.565000
0
VERTEX
8
0
10
-1.984000
20
2.573000
0
VERTEX
8
0
10
-1.547000
20
2.573000
0
SEQEND
8
0
0
POLYLINE
8
0
66
1
40
0.025000
41
0.025000
0
VERTEX
8
0
10
0.038000
20
0.123000
0
VERTEX
8
0
10
0.038000
20
1.098000
0
VERTEX
8
0
10
-0.011000
20
1.148000
0
VERTEX
8
0
10
-0.261000
20
1.148000
0
VERTEX
8
0
10
-0.305000
20
1.192000
0
VERTEX
8
0
10
-0.305000
20
1.573000
0
VERTEX
8
0
10
-0.386000
20
1.654000
0
VERTEX
8
0
10
-0.386000
20
1.786000
0
VERTEX
8
0
10
-0.448000
20
1.848000
0
SEQEND
8
0
0
POLYLINE
8
0
66
1
40
0.025000
41
0.025000
0
VERTEX
8
0
10
-1.861000
20
1.848000
0
VERTEX
8
0
10
-1.795000
20
1.914000
0
VERTEX
8
0
10
-1.795000
20
2.331000
0
VERTEX
8
0
10
-1.853000
20
2.388000
0
VERTEX
8
0
10
-1.892000
20
2.388000
0
SEQEND
8
0
0
POLYLINE
8
0
66
1
40
0.025000
41
0.025000
0
VERTEX
8
0
10
-1.114000
20
0.059000
0
VERTEX
8
0
10
-1.186000
20
0.059000
0
VERTEX
8
0
10
-1.236000
20
0.109000
0
VERTEX
8
0
10
-1.236000
20
0.223000
0
SEQEND
8
0
0
POLYLINE
8
0
66
1
40
0.025000
41
0.025000
0
VERTEX
8
0
10
-2.311000
20
-0.476000
0
VERTEX
8
0
10
-2.311000
20
-0.351000
0
SEQEND
8
0
0
POLYLINE
8
0
66
1
40
0.025000
41
0.025000
0
VERTEX
8
0
10
-2.011000
20
-0.176000
0
VERTEX
8
0
10
-1.911000
20
-0.075000
0
VERTEX
8
0
10
-1.911000
20
0.899000
0
VERTEX
8
0
10
-1.736000
20
1.073000
0
VERTEX
8
0
10
-1.736000
20
2.438000
0
VERTEX
8
0
10
-1.786000
20
2.488000
0
VERTEX
8
0
10
-1.892000
20
2.488000
0
SEQEND
8
0
0
POLYLINE
8
0
66
1
40
0.025000
41
0.025000
0
VERTEX
8
0
10
-1.186000
20
-0.276000
0
VERTEX
8
0
10
-1.561000
20
-0.276000
0
VERTEX
8
0
10
-1.586000
20
-0.251000
0
SEQEND
8
0
0
POLYLINE
8
0
66
1
40
0.025000
41
0.025000
0
VERTEX
8
0
10
-2.037000
20
-0.236000
0
VERTEX
8
0
10
-2.070000
20
-0.153000
0
VERTEX
8
0
10
-2.070000
20
-0.009000
0
VERTEX
8
0
10
-2.012000
20
0.048000
0
VERTEX
8
0
10
-2.012000
20
1.116000
0
VERTEX
8
0
10
-2.104000
20
1.208000
0
VERTEX
8
0
10
-2.104000
20
1.807000
0
VERTEX
8
0
10
-1.892000
20
2.019000
0
VERTEX
8
0
10
-1.892000
20
2.088000
0
SEQEND
8
0
0
INSERT
8
0
2
EPAD
10
-1.011000
20
1.673000
41
0.040000
42
0.040000
0
CIRCLE
8
0
10
-1.011000
20
1.673000
40
0.015000
0
INSERT
8
0
2
EPAD
10
-0.736000
20
1.698000
41
0.040000
42
0.040000
0
CIRCLE
8
0
10
-0.736000
20
1.698000
40
0.015000
0
INSERT
8
0
2
EPAD
10
-0.777000
20
2.641000
41
0.040000
42
0.040000
0
CIRCLE
8
0
10
-0.777000
20
2.641000
40
0.015000
0
INSERT
8
0
2
EPAD
10
0.859000
20
1.673000
41
0.040000
42
0.040000
0
CIRCLE
8
0
10
0.859000
20
1.673000
40
0.015000
0
INSERT
8
0
2
EPAD
10
1.271000
20
2.801000
41
0.040000
42
0.040000
0
CIRCLE
8
0
10
1.271000
20
2.801000
40
0.015000
0
INSERT
8
0
2
EPAD
10
-0.811000
20
2.323000
41
0.050000
42
0.050000
0
CIRCLE
8
0
10
-0.811000
20
2.323000
40
0.025000
0
INSERT
8
0
2
EPAD
10
-0.811000
20
1.698000
41
0.050000
42
0.050000
0
CIRCLE
8
0
10
-0.811000
20
1.698000
40
0.025000
0
INSERT
8
0
2
EPAD
10
0.113000
20
1.623000
41
0.040000
42
0.040000
0
CIRCLE
8
0
10
0.113000
20
1.623000
40
0.015000
0
INSERT
8
0
2
EPAD
10
-0.165000
20
-2.440000
41
0.050000
42
0.050000
0
CIRCLE
8
0
10
-0.165000
20
-2.440000
40
0.025000
0
INSERT
8
0
2
EPAD
10
-0.186000
20
-0.451000
41
0.040000
42
0.040000
0
CIRCLE
8
0
10
-0.186000
20
-0.451000
40
0.015000
0
INSERT
8
0
2
EPAD
10
-0.336000
20
1.698000
41
0.040000
42
0.040000
0
CIRCLE
8
0
10
-0.336000
20
1.698000
40
0.015000
0
INSERT
8
0
2
EPAD
10
0.017000
20
1.393000
41
0.040000
42
0.040000
0
CIRCLE
8
0
10
0.017000
20
1.393000
40
0.015000
0
INSERT
8
0
2
EPAD
10
-0.986000
20
1.323000
41
0.040000
42
0.040000
0
CIRCLE
8
0
10
-0.986000
20
1.323000
40
0.015000
0
INSERT
8
0
2
EPAD
10
-0.086000
20
-0.201000
41
0.040000
42
0.040000
0
CIRCLE
8
0
10
-0.086000
20
-0.201000
40
0.015000
0
INSERT
8
0
2
EPAD
10
0.388000
20
1.598000
41
0.050000
42
0.050000
0
CIRCLE
8
0
10
0.388000
20
1.598000
40
0.025000
0
INSERT
8
0
2
EPAD
10
-0.811000
20
2.698000
41
0.050000
42
0.050000
0
CIRCLE
8
0
10
-0.811000
20
2.698000
40
0.025000
0
INSERT
8
0
2
EPAD
10
-0.661000
20
1.948000
41
0.040000
42
0.040000
0
CIRCLE
8
0
10
-0.661000
20
1.948000
40
0.015000
0
INSERT
8
0
2
EPAD
10
0.338000
20
1.948000
41
0.040000
42
0.040000
0
CIRCLE
8
0
10
0.338000
20
1.948000
40
0.015000
0
INSERT
8
0
2
EPAD
10
-0.661000
20
1.698000
41
0.040000
42
0.040000
0
CIRCLE
8
0
10
-0.661000
20
1.698000
40
0.015000
0
INSERT
8
0
2
EPAD
10
0.488000
20
1.998000
41
0.040000
42
0.040000
0
CIRCLE
8
0
10
0.488000
20
1.998000
40
0.015000
0
INSERT
8
0
2
EPAD
10
-0.649000
20
0.060000
41
0.040000
42
0.040000
0
CIRCLE
8
0
10
-0.649000
20
0.060000
40
0.015000
0
INSERT
8
0
2
EPAD
10
-1.293000
20
1.663000
41
0.050000
42
0.050000
0
CIRCLE
8
0
10
-1.293000
20
1.663000
40
0.025000
0
INSERT
8
0
2
EPAD
10
0.541000
20
1.418000
41
0.050000
42
0.050000
0
CIRCLE
8
0
10
0.541000
20
1.418000
40
0.025000
0
INSERT
8
0
2
EPAD
10
0.538000
20
1.198000
41
0.050000
42
0.050000
0
CIRCLE
8
0
10
0.538000
20
1.198000
40
0.025000
0
INSERT
8
0
2
EPAD
10
1.698000
20
-0.590000
41
0.050000
42
0.050000
0
CIRCLE
8
0
10
1.698000
20
-0.590000
40
0.025000
0
INSERT
8
0
2
EPAD
10
1.217000
20
-0.586000
41
0.050000
42
0.050000
0
CIRCLE
8
0
10
1.217000
20
-0.586000
40
0.025000
0
INSERT
8
0
2
EPAD
10
0.925000
20
-0.630000
41
0.050000
42
0.050000
0
CIRCLE
8
0
10
0.925000
20
-0.630000
40
0.025000
0
INSERT
8
0
2
EPAD
10
-0.279000
20
-0.758000
41
0.050000
42
0.050000
0
CIRCLE
8
0
10
-0.279000
20
-0.758000
40
0.025000
0
INSERT
8
0
2
EPAD
10
-0.496000
20
-0.761000
41
0.050000
42
0.050000
0
CIRCLE
8
0
10
-0.496000
20
-0.761000
40
0.025000
0
INSERT
8
0
2
EPAD
10
-0.102000
20
-2.390000
41
0.050000
42
0.050000
0
CIRCLE
8
0
10
-0.102000
20
-2.390000
40
0.025000
0
INSERT
8
0
2
EPAD
10
-1.499000
20
0.758000
41
0.050000
42
0.050000
0
CIRCLE
8
0
10
-1.499000
20
0.758000
40
0.025000
0
INSERT
8
0
2
EPAD
10
-0.186000
20
-2.051000
41
0.050000
42
0.050000
0
CIRCLE
8
0
10
-0.186000
20
-2.051000
40
0.025000
0
INSERT
8
0
2
EPAD
10
1.395000
20
1.345000
41
0.050000
42
0.050000
0
CIRCLE
8
0
10
1.395000
20
1.345000
40
0.025000
0
INSERT
8
0
2
EPAD
10
-1.325000
20
2.575000
41
0.050000
42
0.050000
0
CIRCLE
8
0
10
-1.325000
20
2.575000
40
0.025000
0
INSERT
8
0
2
EPAD
10
0.212000
20
0.344000
41
0.040000
42
0.040000
0
CIRCLE
8
0
10
0.212000
20
0.344000
40
0.015000
0
INSERT
8
0
2
EPAD
10
0.213000
20
0.723000
41
0.040000
42
0.040000
0
CIRCLE
8
0
10
0.213000
20
0.723000
40
0.015000
0
INSERT
8
0
2
EPAD
10
1.038000
20
1.048000
41
0.040000
42
0.040000
0
CIRCLE
8
0
10
1.038000
20
1.048000
40
0.015000
0
INSERT
8
0
2
EPAD
10
-0.718000
20
0.674000
41
0.040000
42
0.040000
0
CIRCLE
8
0
10
-0.718000
20
0.674000
40
0.015000
0
INSERT
8
0
2
EPAD
10
0.313000
20
1.348000
41
0.040000
42
0.040000
0
CIRCLE
8
0
10
0.313000
20
1.348000
40
0.015000
0
INSERT
8
0
2
EPAD
10
-1.028000
20
-2.890000
41
0.050000
42
0.050000
0
CIRCLE
8
0
10
-1.028000
20
-2.890000
40
0.025000
0
INSERT
8
0
2
EPAD
10
0.055000
20
0.001000
41
0.040000
42
0.040000
0
CIRCLE
8
0
10
0.055000
20
0.001000
40
0.015000
0
INSERT
8
0
2
EPAD
10
1.213000
20
-0.456000
41
0.040000
42
0.040000
0
CIRCLE
8
0
10
1.213000
20
-0.456000
40
0.015000
0
INSERT
8
0
2
EPAD
10
-0.111000
20
-1.698000
41
0.050000
42
0.050000
0
CIRCLE
8
0
10
-0.111000
20
-1.698000
40
0.025000
0
INSERT
8
0
2
EPAD
10
-0.116000
20
-0.718000
41
0.050000
42
0.050000
0
CIRCLE
8
0
10
-0.116000
20
-0.718000
40
0.025000
0
INSERT
8
0
2
EPAD
10
-0.103000
20
-0.050000
41
0.040000
42
0.040000
0
CIRCLE
8
0
10
-0.103000
20
-0.050000
40
0.015000
0
INSERT
8
0
2
EPAD
10
-0.382000
20
-2.824000
41
0.050000
42
0.050000
0
CIRCLE
8
0
10
-0.382000
20
-2.824000
40
0.025000
0
INSERT
8
0
2
EPAD
10
1.099000
20
-0.482000
41
0.050000
42
0.050000
0
CIRCLE
8
0
10
1.099000
20
-0.482000
40
0.025000
0
INSERT
8
0
2
EPAD
10
0.709000
20
-0.039000
41
0.050000
42
0.050000
0
CIRCLE
8
0
10
0.709000
20
-0.039000
40
0.025000
0
INSERT
8
0
2
EPAD
10
0.784000
20
0.531000
41
0.050000
42
0.050000
0
CIRCLE
8
0
10
0.784000
20
0.531000
40
0.025000
0
INSERT
8
0
2
EPAD
10
-0.518000
20
-0.378000
41
0.070000
42
0.070000
0
CIRCLE
8
0
10
-0.518000
20
-0.378000
40
0.025000
0
INSERT
8
0
2
EPAD
10
0.271000
20
-0.378000
41
0.070000
42
0.070000
0
CIRCLE
8
0
10
0.271000
20
-0.378000
40
0.025000
0
INSERT
8
0
2
EPAD
10
-0.663000
20
-0.232000
41
0.050000
42
0.050000
0
CIRCLE
8
0
10
-0.663000
20
-0.232000
40
0.025000
0
INSERT
8
0
2
EPAD
10
-0.986000
20
1.123000
41
0.040000
42
0.040000
0
CIRCLE
8
0
10
-0.986000
20
1.123000
40
0.015000
0
INSERT
8
0
2
EPAD
10
0.913000
20
2.048000
41
0.040000
42
0.040000
0
CIRCLE
8
0
10
0.913000
20
2.048000
40
0.015000
0
INSERT
8
0
2
EPAD
10
0.988000
20
1.463000
41
0.040000
42
0.040000
0
CIRCLE
8
0
10
0.988000
20
1.463000
40
0.015000
0
INSERT
8
0
2
EPAD
10
-0.011000
20
0.998000
41
0.040000
42
0.040000
0
CIRCLE
8
0
10
-0.011000
20
0.998000
40
0.015000
0
INSERT
8
0
2
EPAD
10
0.988000
20
1.198000
41
0.040000
42
0.040000
0
CIRCLE
8
0
10
0.988000
20
1.198000
40
0.015000
0
INSERT
8
0
2
EPAD
10
-0.305000
20
0.480000
41
0.040000
42
0.040000
0
CIRCLE
8
0
10
-0.305000
20
0.480000
40
0.015000
0
INSERT
8
0
2
EPAD
10
0.226000
20
-1.937000
41
0.050000
42
0.050000
0
CIRCLE
8
0
10
0.226000
20
-1.937000
40
0.025000
0
INSERT
8
0
2
EPAD
10
0.312000
20
-2.837000
41
0.050000
42
0.050000
0
CIRCLE
8
0
10
0.312000
20
-2.837000
40
0.025000
0
INSERT
8
0
2
EPAD
10
1.868000
20
-0.675000
41
0.050000
42
0.050000
0
CIRCLE
8
0
10
1.868000
20
-0.675000
40
0.025000
0
INSERT
8
0
2
EPAD
10
1.352000
20
-0.638000
41
0.050000
42
0.050000
0
CIRCLE
8
0
10
1.352000
20
-0.638000
40
0.025000
0
INSERT
8
0
2
EPAD
10
1.338000
20
0.148000
41
0.050000
42
0.050000
0
CIRCLE
8
0
10
1.338000
20
0.148000
40
0.025000
0
INSERT
8
0
2
EPAD
10
-1.561000
20
0.458000
41
0.040000
42
0.040000
0
CIRCLE
8
0
10
-1.561000
20
0.458000
40
0.015000
0
INSERT
8
0
2
EPAD
10
-1.561000
20
0.946000
41
0.040000
42
0.040000
0
CIRCLE
8
0
10
-1.561000
20
0.946000
40
0.015000
0
INSERT
8
0
2
EPAD
10
-1.036000
20
0.973000
41
0.040000
42
0.040000
0
CIRCLE
8
0
10
-1.036000
20
0.973000
40
0.015000
0
INSERT
8
0
2
EPAD
10
-1.036000
20
0.623000
41
0.040000
42
0.040000
0
CIRCLE
8
0
10
-1.036000
20
0.623000
40
0.015000
0
INSERT
8
0
2
EPAD
10
-0.907000
20
0.573000
41
0.040000
42
0.040000
0
CIRCLE
8
0
10
-0.907000
20
0.573000
40
0.015000
0
INSERT
8
0
2
EPAD
10
-0.956000
20
0.948000
41
0.040000
42
0.040000
0
CIRCLE
8
0
10
-0.956000
20
0.948000
40
0.015000
0
INSERT
8
0
2
EPAD
10
-0.559000
20
1.369000
41
0.040000
42
0.040000
0
CIRCLE
8
0
10
-0.559000
20
1.369000
40
0.015000
0
INSERT
8
0
2
EPAD
10
-0.559000
20
1.497000
41
0.040000
42
0.040000
0
CIRCLE
8
0
10
-0.559000
20
1.497000
40
0.015000
0
INSERT
8
0
2
EPAD
10
0.063000
20
1.498000
41
0.040000
42
0.040000
0
CIRCLE
8
0
10
0.063000
20
1.498000
40
0.015000
0
INSERT
8
0
2
EPAD
10
-0.192000
20
1.358000
41
0.040000
42
0.040000
0
CIRCLE
8
0
10
-0.192000
20
1.358000
40
0.015000
0
INSERT
8
0
2
EPAD
10
-0.561000
20
1.273000
41
0.040000
42
0.040000
0
CIRCLE
8
0
10
-0.561000
20
1.273000
40
0.015000
0
INSERT
8
0
2
EPAD
10
-0.636000
20
1.498000
41
0.040000
42
0.040000
0
CIRCLE
8
0
10
-0.636000
20
1.498000
40
0.015000
0
INSERT
8
0
2
EPAD
10
-0.761000
20
1.173000
41
0.050000
42
0.050000
0
CIRCLE
8
0
10
-0.761000
20
1.173000
40
0.025000
0
INSERT
8
0
2
EPAD
10
-1.086000
20
1.898000
41
0.050000
42
0.050000
0
CIRCLE
8
0
10
-1.086000
20
1.898000
40
0.025000
0
INSERT
8
0
2
EPAD
10
-0.361000
20
1.247000
41
0.040000
42
0.040000
0
CIRCLE
8
0
10
-0.361000
20
1.247000
40
0.015000
0
INSERT
8
0
2
EPAD
10
-0.586000
20
1.573000
41
0.040000
42
0.040000
0
CIRCLE
8
0
10
-0.586000
20
1.573000
40
0.015000
0
INSERT
8
0
2
EPAD
10
-0.586000
20
1.682000
41
0.040000
42
0.040000
0
CIRCLE
8
0
10
-0.586000
20
1.682000
40
0.015000
0
INSERT
8
0
2
EPAD
10
-0.986000
20
1.548000
41
0.040000
42
0.040000
0
CIRCLE
8
0
10
-0.986000
20
1.548000
40
0.015000
0
INSERT
8
0
2
EPAD
10
0.038000
20
1.298000
41
0.040000
42
0.040000
0
CIRCLE
8
0
10
0.038000
20
1.298000
40
0.015000
0
INSERT
8
0
2
EPAD
10
-0.161000
20
1.198000
41
0.040000
42
0.040000
0
CIRCLE
8
0
10
-0.161000
20
1.198000
40
0.015000
0
INSERT
8
0
2
EPAD
10
1.289000
20
-0.825000
41
0.050000
42
0.050000
0
CIRCLE
8
0
10
1.289000
20
-0.825000
40
0.025000
0
INSERT
8
0
2
EPAD
10
0.557000
20
-0.824000
41
0.050000
42
0.050000
0
CIRCLE
8
0
10
0.557000
20
-0.824000
40
0.025000
0
INSERT
8
0
2
EPAD
10
-0.811000
20
2.398000
41
0.050000
42
0.050000
0
CIRCLE
8
0
10
-0.811000
20
2.398000
40
0.025000
0
INSERT
8
0
2
EPAD
10
-2.111000
20
1.073000
41
0.050000
42
0.050000
0
CIRCLE
8
0
10
-2.111000
20
1.073000
40
0.025000
0
INSERT
8
0
2
EPAD
10
-2.036000
20
1.223000
41
0.050000
42
0.050000
0
CIRCLE
8
0
10
-2.036000
20
1.223000
40
0.025000
0
INSERT
8
0
2
EPAD
10
-1.786000
20
1.223000
41
0.050000
42
0.050000
0
CIRCLE
8
0
10
-1.786000
20
1.223000
40
0.025000
0
INSERT
8
0
2
EPAD
10
-1.686000
20
1.223000
41
0.050000
42
0.050000
0
CIRCLE
8
0
10
-1.686000
20
1.223000
40
0.025000
0
INSERT
8
0
2
EPAD
10
-1.836000
20
2.823000
41
0.070000
42
0.070000
0
CIRCLE
8
0
10
-1.836000
20
2.823000
40
0.025000
0
INSERT
8
0
2
EPAD
10
-0.535000
20
-2.748000
41
0.050000
42
0.050000
0
CIRCLE
8
0
10
-0.535000
20
-2.748000
40
0.025000
0
INSERT
8
0
2
EPAD
10
-1.263000
20
1.471000
41
0.050000
42
0.050000
0
CIRCLE
8
0
10
-1.263000
20
1.471000
40
0.025000
0
INSERT
8
0
2
EPAD
10
-1.261000
20
1.198000
41
0.040000
42
0.040000
0
CIRCLE
8
0
10
-1.261000
20
1.198000
40
0.015000
0
INSERT
8
0
2
EPAD
10
-0.861000
20
0.972000
41
0.040000
42
0.040000
0
CIRCLE
8
0
10
-0.861000
20
0.972000
40
0.015000
0
INSERT
8
0
2
EPAD
10
-1.361000
20
0.548000
41
0.050000
42
0.050000
0
CIRCLE
8
0
10
-1.361000
20
0.548000
40
0.025000
0
INSERT
8
0
2
EPAD
10
-0.542000
20
0.399000
41
0.050000
42
0.050000
0
CIRCLE
8
0
10
-0.542000
20
0.399000
40
0.025000
0
INSERT
8
0
2
EPAD
10
1.713000
20
0.648000
41
0.050000
42
0.050000
0
CIRCLE
8
0
10
1.713000
20
0.648000
40
0.025000
0
INSERT
8
0
2
EPAD
10
1.889000
20
-0.126000
41
0.050000
42
0.050000
0
CIRCLE
8
0
10
1.889000
20
-0.126000
40
0.025000
0
INSERT
8
0
2
EPAD
10
2.137000
20
-0.123000
41
0.050000
42
0.050000
0
CIRCLE
8
0
10
2.137000
20
-0.123000
40
0.025000
0
INSERT
8
0
2
EPAD
10
1.038000
20
1.773000
41
0.040000
42
0.040000
0
CIRCLE
8
0
10
1.038000
20
1.773000
40
0.015000
0
INSERT
8
0
2
EPAD
10
1.955000
20
0.139000
41
0.050000
42
0.050000
0
CIRCLE
8
0
10
1.955000
20
0.139000
40
0.025000
0
INSERT
8
0
2
EPAD
10
2.226000
20
-0.468000
41
0.050000
42
0.050000
0
CIRCLE
8
0
10
2.226000
20
-0.468000
40
0.025000
0
INSERT
8
0
2
EPAD
10
0.488000
20
-0.351000
41
0.050000
42
0.050000
0
CIRCLE
8
0
10
0.488000
20
-0.351000
40
0.025000
0
INSERT
8
0
2
EPAD
10
1.581000
20
2.508000
41
0.050000
42
0.050000
0
CIRCLE
8
0
10
1.581000
20
2.508000
40
0.025000
0
INSERT
8
0
2
EPAD
10
1.125000
20
1.806000
41
0.050000
42
0.050000
0
CIRCLE
8
0
10
1.125000
20
1.806000
40
0.025000
0
INSERT
8
0
2
EPAD
10
0.713000
20
2.098000
41
0.040000
42
0.040000
0
CIRCLE
8
0
10
0.713000
20
2.098000
40
0.015000
0
INSERT
8
0
2
EPAD
10
-1.755000
20
2.378000
41
0.050000
42
0.050000
0
CIRCLE
8
0
10
-1.755000
20
2.378000
40
0.025000
0
INSERT
8
0
2
EPAD
10
-1.811000
20
2.623000
41
0.050000
42
0.050000
0
CIRCLE
8
0
10
-1.811000
20
2.623000
40
0.025000
0
INSERT
8
0
2
EPAD
10
0.038000
20
0.123000
41
0.040000
42
0.040000
0
CIRCLE
8
0
10
0.038000
20
0.123000
40
0.015000
0
INSERT
8
0
2
EPAD
10
-0.448000
20
1.848000
41
0.040000
42
0.040000
0
CIRCLE
8
0
10
-0.448000
20
1.848000
40
0.015000
0
INSERT
8
0
2
EPAD
10
-1.861000
20
1.848000
41
0.040000
42
0.040000
0
CIRCLE
8
0
10
-1.861000
20
1.848000
40
0.015000
0
INSERT
8
0
2
EPAD
10
-1.236000
20
0.223000
41
0.040000
42
0.040000
0
CIRCLE
8
0
10
-1.236000
20
0.223000
40
0.015000
0
INSERT
8
0
2
EPAD
10
-2.311000
20
-0.476000
41
0.040000
42
0.040000
0
CIRCLE
8
0
10
-2.311000
20
-0.476000
40
0.015000
0
INSERT
8
0
2
EPAD
10
-2.311000
20
-0.351000
41
0.040000
42
0.040000
0
CIRCLE
8
0
10
-2.311000
20
-0.351000
40
0.015000
0
INSERT
8
0
2
EPAD
10
-2.011000
20
-0.176000
41
0.040000
42
0.040000
0
CIRCLE
8
0
10
-2.011000
20
-0.176000
40
0.015000
0
INSERT
8
0
2
EPAD
10
-1.186000
20
-0.276000
41
0.050000
42
0.050000
0
CIRCLE
8
0
10
-1.186000
20
-0.276000
40
0.025000
0
INSERT
8
0
2
EPAD
10
-1.586000
20
-0.251000
41
0.050000
42
0.050000
0
CIRCLE
8
0
10
-1.586000
20
-0.251000
40
0.025000
0
INSERT
8
0
2
EPAD
10
-2.037000
20
-0.236000
41
0.040000
42
0.040000
0
CIRCLE
8
0
10
-2.037000
20
-0.236000
40
0.015000
0
INSERT
8
0
2
EPAD
10
-1.408000
20
1.977000
41
0.050000
42
0.050000
0
CIRCLE
8
0
10
-1.408000
20
1.977000
40
0.025000
0
INSERT
8
0
2
RPAD
10
-1.714000
20
0.959000
41
0.080000
42
0.080000
50
90.000000
0
CIRCLE
8
0
10
-1.714000
20
0.959000
40
0.025000
0
INSERT
8
0
2
RPAD
10
-1.714000
20
0.859000
41
0.080000
42
0.080000
50
90.000000
0
CIRCLE
8
0
10
-1.714000
20
0.859000
40
0.025000
0
INSERT
8
0
2
RPAD
10
-1.714000
20
0.759000
41
0.080000
42
0.080000
50
90.000000
0
CIRCLE
8
0
10
-1.714000
20
0.759000
40
0.025000
0
INSERT
8
0
2
RPAD
10
-1.714000
20
0.659000
41
0.080000
42
0.080000
50
90.000000
0
CIRCLE
8
0
10
-1.714000
20
0.659000
40
0.025000
0
INSERT
8
0
2
RPAD
10
-1.714000
20
0.559000
41
0.080000
42
0.080000
50
90.000000
0
CIRCLE
8
0
10
-1.714000
20
0.559000
40
0.025000
0
INSERT
8
0
2
RPAD
10
-1.714000
20
0.459000
41
0.080000
42
0.080000
50
90.000000
0
CIRCLE
8
0
10
-1.714000
20
0.459000
40
0.025000
0
INSERT
8
0
2
RPAD
10
-1.714000
20
0.359000
41
0.080000
42
0.080000
50
90.000000
0
CIRCLE
8
0
10
-1.714000
20
0.359000
40
0.025000
0
INSERT
8
0
2
RPAD
10
-1.714000
20
0.259000
41
0.080000
42
0.080000
50
90.000000
0
CIRCLE
8
0
10
-1.714000
20
0.259000
40
0.025000
0
INSERT
8
0
2
RPAD
10
-1.714000
20
0.159000
41
0.080000
42
0.080000
50
90.000000
0
CIRCLE
8
0
10
-1.714000
20
0.159000
40
0.025000
0
INSERT
8
0
2
RPAD
10
-1.714000
20
0.059000
41
0.080000
42
0.080000
50
90.000000
0
CIRCLE
8
0
10
-1.714000
20
0.059000
40
0.025000
0
INSERT
8
0
2
RPAD
10
-1.714000
20
-0.040000
41
0.080000
42
0.080000
50
90.000000
0
CIRCLE
8
0
10
-1.714000
20
-0.040000
40
0.025000
0
INSERT
8
0
2
RPAD
10
-1.714000
20
-0.140000
41
0.080000
42
0.080000
50
90.000000
0
CIRCLE
8
0
10
-1.714000
20
-0.140000
40
0.025000
0
INSERT
8
0
2
RPAD
10
-1.114000
20
0.959000
41
0.080000
42
0.080000
50
90.000000
0
CIRCLE
8
0
10
-1.114000
20
0.959000
40
0.025000
0
INSERT
8
0
2
RPAD
10
-1.114000
20
0.859000
41
0.080000
42
0.080000
50
90.000000
0
CIRCLE
8
0
10
-1.114000
20
0.859000
40
0.025000
0
INSERT
8
0
2
RPAD
10
-1.114000
20
0.759000
41
0.080000
42
0.080000
50
90.000000
0
CIRCLE
8
0
10
-1.114000
20
0.759000
40
0.025000
0
INSERT
8
0
2
RPAD
10
-1.114000
20
0.659000
41
0.080000
42
0.080000
50
90.000000
0
CIRCLE
8
0
10
-1.114000
20
0.659000
40
0.025000
0
INSERT
8
0
2
RPAD
10
-1.114000
20
0.559000
41
0.080000
42
0.080000
50
90.000000
0
CIRCLE
8
0
10
-1.114000
20
0.559000
40
0.025000
0
INSERT
8
0
2
RPAD
10
-1.114000
20
0.459000
41
0.080000
42
0.080000
50
90.000000
0
CIRCLE
8
0
10
-1.114000
20
0.459000
40
0.025000
0
INSERT
8
0
2
RPAD
10
-1.114000
20
0.359000
41
0.080000
42
0.080000
50
90.000000
0
CIRCLE
8
0
10
-1.114000
20
0.359000
40
0.025000
0
INSERT
8
0
2
RPAD
10
-1.114000
20
0.259000
41
0.080000
42
0.080000
50
90.000000
0
CIRCLE
8
0
10
-1.114000
20
0.259000
40
0.025000
0
INSERT
8
0
2
RPAD
10
-1.114000
20
0.159000
41
0.080000
42
0.080000
50
90.000000
0
CIRCLE
8
0
10
-1.114000
20
0.159000
40
0.025000
0
INSERT
8
0
2
RPAD
10
-1.114000
20
0.059000
41
0.080000
42
0.080000
50
90.000000
0
CIRCLE
8
0
10
-1.114000
20
0.059000
40
0.025000
0
INSERT
8
0
2
RPAD
10
-1.114000
20
-0.040000
41
0.080000
42
0.080000
50
90.000000
0
CIRCLE
8
0
10
-1.114000
20
-0.040000
40
0.025000
0
INSERT
8
0
2
RPAD
10
-1.114000
20
-0.140000
41
0.080000
42
0.080000
50
90.000000
0
CIRCLE
8
0
10
-1.114000
20
-0.140000
40
0.025000
0
INSERT
8
0
2
RPAD
10
0.303000
20
0.960000
41
0.080000
42
0.080000
50
90.000000
0
CIRCLE
8
0
10
0.303000
20
0.960000
40
0.025000
0
INSERT
8
0
2
RPAD
10
0.303000
20
0.860000
41
0.080000
42
0.080000
50
90.000000
0
CIRCLE
8
0
10
0.303000
20
0.860000
40
0.025000
0
INSERT
8
0
2
RPAD
10
0.303000
20
0.760000
41
0.080000
42
0.080000
50
90.000000
0
CIRCLE
8
0
10
0.303000
20
0.760000
40
0.025000
0
INSERT
8
0
2
RPAD
10
0.303000
20
0.660000
41
0.080000
42
0.080000
50
90.000000
0
CIRCLE
8
0
10
0.303000
20
0.660000
40
0.025000
0
INSERT
8
0
2
RPAD
10
0.303000
20
0.560000
41
0.080000
42
0.080000
50
90.000000
0
CIRCLE
8
0
10
0.303000
20
0.560000
40
0.025000
0
INSERT
8
0
2
RPAD
10
0.303000
20
0.460000
41
0.080000
42
0.080000
50
90.000000
0
CIRCLE
8
0
10
0.303000
20
0.460000
40
0.025000
0
INSERT
8
0
2
RPAD
10
0.303000
20
0.360000
41
0.080000
42
0.080000
50
90.000000
0
CIRCLE
8
0
10
0.303000
20
0.360000
40
0.025000
0
INSERT
8
0
2
RPAD
10
0.303000
20
0.260000
41
0.080000
42
0.080000
50
90.000000
0
CIRCLE
8
0
10
0.303000
20
0.260000
40
0.025000
0
INSERT
8
0
2
RPAD
10
0.303000
20
0.160000
41
0.080000
42
0.080000
50
90.000000
0
CIRCLE
8
0
10
0.303000
20
0.160000
40
0.025000
0
INSERT
8
0
2
RPAD
10
0.303000
20
0.060000
41
0.080000
42
0.080000
50
90.000000
0
CIRCLE
8
0
10
0.303000
20
0.060000
40
0.025000
0
INSERT
8
0
2
RPAD
10
0.303000
20
-0.039000
41
0.080000
42
0.080000
50
90.000000
0
CIRCLE
8
0
10
0.303000
20
-0.039000
40
0.025000
0
INSERT
8
0
2
RPAD
10
0.303000
20
-0.139000
41
0.080000
42
0.080000
50
90.000000
0
CIRCLE
8
0
10
0.303000
20
-0.139000
40
0.025000
0
INSERT
8
0
2
RPAD
10
0.903000
20
0.960000
41
0.080000
42
0.080000
50
90.000000
0
CIRCLE
8
0
10
0.903000
20
0.960000
40
0.025000
0
INSERT
8
0
2
RPAD
10
0.903000
20
0.860000
41
0.080000
42
0.080000
50
90.000000
0
CIRCLE
8
0
10
0.903000
20
0.860000
40
0.025000
0
INSERT
8
0
2
RPAD
10
0.903000
20
0.760000
41
0.080000
42
0.080000
50
90.000000
0
CIRCLE
8
0
10
0.903000
20
0.760000
40
0.025000
0
INSERT
8
0
2
RPAD
10
0.903000
20
0.660000
41
0.080000
42
0.080000
50
90.000000
0
CIRCLE
8
0
10
0.903000
20
0.660000
40
0.025000
0
INSERT
8
0
2
RPAD
10
0.903000
20
0.560000
41
0.080000
42
0.080000
50
90.000000
0
CIRCLE
8
0
10
0.903000
20
0.560000
40
0.025000
0
INSERT
8
0
2
RPAD
10
0.903000
20
0.460000
41
0.080000
42
0.080000
50
90.000000
0
CIRCLE
8
0
10
0.903000
20
0.460000
40
0.025000
0
INSERT
8
0
2
RPAD
10
0.903000
20
0.360000
41
0.080000
42
0.080000
50
90.000000
0
CIRCLE
8
0
10
0.903000
20
0.360000
40
0.025000
0
INSERT
8
0
2
RPAD
10
0.903000
20
0.260000
41
0.080000
42
0.080000
50
90.000000
0
CIRCLE
8
0
10
0.903000
20
0.260000
40
0.025000
0
INSERT
8
0
2
RPAD
10
0.903000
20
0.160000
41
0.080000
42
0.080000
50
90.000000
0
CIRCLE
8
0
10
0.903000
20
0.160000
40
0.025000
0
INSERT
8
0
2
RPAD
10
0.903000
20
0.060000
41
0.080000
42
0.080000
50
90.000000
0
CIRCLE
8
0
10
0.903000
20
0.060000
40
0.025000
0
INSERT
8
0
2
RPAD
10
0.903000
20
-0.039000
41
0.080000
42
0.080000
50
90.000000
0
CIRCLE
8
0
10
0.903000
20
-0.039000
40
0.025000
0
INSERT
8
0
2
RPAD
10
0.903000
20
-0.139000
41
0.080000
42
0.080000
50
90.000000
0
CIRCLE
8
0
10
0.903000
20
-0.139000
40
0.025000
0
INSERT
8
0
2
RPAD
10
-1.502000
20
-2.888000
41
0.080000
42
0.080000
50
0.000000
0
CIRCLE
8
0
10
-1.502000
20
-2.888000
40
0.025000
0
INSERT
8
0
2
RPAD
10
-1.402000
20
-2.888000
41
0.080000
42
0.080000
50
0.000000
0
CIRCLE
8
0
10
-1.402000
20
-2.888000
40
0.025000
0
INSERT
8
0
2
RPAD
10
-1.302000
20
-2.888000
41
0.080000
42
0.080000
50
0.000000
0
CIRCLE
8
0
10
-1.302000
20
-2.888000
40
0.025000
0
INSERT
8
0
2
RPAD
10
1.569000
20
-2.843000
41
0.080000
42
0.080000
50
180.000000
0
CIRCLE
8
0
10
1.569000
20
-2.843000
40
0.025000
0
INSERT
8
0
2
RPAD
10
1.469000
20
-2.843000
41
0.080000
42
0.080000
50
180.000000
0
CIRCLE
8
0
10
1.469000
20
-2.843000
40
0.025000
0
INSERT
8
0
2
RPAD
10
1.369000
20
-2.843000
41
0.080000
42
0.080000
50
180.000000
0
CIRCLE
8
0
10
1.369000
20
-2.843000
40
0.025000
0
INSERT
8
0
2
RPAD
10
-1.795000
20
2.719000
41
0.080000
42
0.080000
50
0.000000
0
CIRCLE
8
0
10
-1.795000
20
2.719000
40
0.025000
0
INSERT
8
0
2
RPAD
10
-1.695000
20
2.719000
41
0.080000
42
0.080000
50
0.000000
0
CIRCLE
8
0
10
-1.695000
20
2.719000
40
0.025000
0
INSERT
8
0
2
RPAD
10
-1.595000
20
2.719000
41
0.080000
42
0.080000
50
0.000000
0
CIRCLE
8
0
10
-1.595000
20
2.719000
40
0.025000
0
INSERT
8
0
2
RPAD
10
1.703000
20
2.500000
41
0.080000
42
0.080000
50
0.000000
0
CIRCLE
8
0
10
1.703000
20
2.500000
40
0.025000
0
INSERT
8
0
2
RPAD
10
1.803000
20
2.500000
41
0.080000
42
0.080000
50
0.000000
0
CIRCLE
8
0
10
1.803000
20
2.500000
40
0.025000
0
INSERT
8
0
2
RPAD
10
1.903000
20
2.500000
41
0.080000
42
0.080000
50
0.000000
0
CIRCLE
8
0
10
1.903000
20
2.500000
40
0.025000
0
INSERT
8
0
2
RPAD
10
-0.866000
20
2.478000
41
0.080000
42
0.080000
50
180.000000
0
CIRCLE
8
0
10
-0.866000
20
2.478000
40
0.025000
0
INSERT
8
0
2
RPAD
10
-0.966000
20
2.478000
41
0.080000
42
0.080000
50
180.000000
0
CIRCLE
8
0
10
-0.966000
20
2.478000
40
0.025000
0
INSERT
8
0
2
RPAD
10
-1.066000
20
2.478000
41
0.080000
42
0.080000
50
180.000000
0
CIRCLE
8
0
10
-1.066000
20
2.478000
40
0.025000
0
INSERT
8
0
2
RPAD
10
-1.275000
20
2.723000
41
0.080000
42
0.080000
50
0.000000
0
CIRCLE
8
0
10
-1.275000
20
2.723000
40
0.025000
0
INSERT
8
0
2
RPAD
10
-1.175000
20
2.723000
41
0.080000
42
0.080000
50
0.000000
0
CIRCLE
8
0
10
-1.175000
20
2.723000
40
0.025000
0
INSERT
8
0
2
RPAD
10
-1.075000
20
2.723000
41
0.080000
42
0.080000
50
0.000000
0
CIRCLE
8
0
10
-1.075000
20
2.723000
40
0.025000
0
INSERT
8
0
2
RPAD
10
0.930000
20
2.691000
41
0.080000
42
0.080000
50
0.000000
0
CIRCLE
8
0
10
0.930000
20
2.691000
40
0.025000
0
INSERT
8
0
2
RPAD
10
1.030000
20
2.691000
41
0.080000
42
0.080000
50
0.000000
0
CIRCLE
8
0
10
1.030000
20
2.691000
40
0.025000
0
INSERT
8
0
2
RPAD
10
1.130000
20
2.691000
41
0.080000
42
0.080000
50
0.000000
0
CIRCLE
8
0
10
1.130000
20
2.691000
40
0.025000
0
INSERT
8
0
2
RPAD
10
-1.976000
20
1.403000
41
0.080000
42
0.080000
50
90.000000
0
CIRCLE
8
0
10
-1.976000
20
1.403000
40
0.025000
0
INSERT
8
0
2
RPAD
10
-1.976000
20
1.503000
41
0.080000
42
0.080000
50
90.000000
0
CIRCLE
8
0
10
-1.976000
20
1.503000
40
0.025000
0
INSERT
8
0
2
RPAD
10
-1.976000
20
1.603000
41
0.080000
42
0.080000
50
90.000000
0
CIRCLE
8
0
10
-1.976000
20
1.603000
40
0.025000
0
INSERT
8
0
2
RPAD
10
1.899000
20
2.294000
41
0.080000
42
0.080000
50
-90.000000
0
CIRCLE
8
0
10
1.899000
20
2.294000
40
0.025000
0
INSERT
8
0
2
RPAD
10
1.899000
20
2.194000
41
0.080000
42
0.080000
50
-90.000000
0
CIRCLE
8
0
10
1.899000
20
2.194000
40
0.025000
0
INSERT
8
0
2
RPAD
10
1.899000
20
2.094000
41
0.080000
42
0.080000
50
-90.000000
0
CIRCLE
8
0
10
1.899000
20
2.094000
40
0.025000
0
INSERT
8
0
2
RPAD
10
-0.086000
20
-2.881000
41
0.080000
42
0.080000
50
0.000000
0
CIRCLE
8
0
10
-0.086000
20
-2.881000
40
0.025000
0
INSERT
8
0
2
RPAD
10
0.013000
20
-2.881000
41
0.080000
42
0.080000
50
0.000000
0
CIRCLE
8
0
10
0.013000
20
-2.881000
40
0.025000
0
INSERT
8
0
2
RPAD
10
0.113000
20
-2.881000
41
0.080000
42
0.080000
50
0.000000
0
CIRCLE
8
0
10
0.113000
20
-2.881000
40
0.025000
0
INSERT
8
0
2
RPAD
10
-1.055000
20
-0.747000
41
0.080000
42
0.080000
50
0.000000
0
CIRCLE
8
0
10
-1.055000
20
-0.747000
40
0.025000
0
INSERT
8
0
2
RPAD
10
-0.855000
20
-0.747000
41
0.080000
42
0.080000
50
0.000000
0
CIRCLE
8
0
10
-0.855000
20
-0.747000
40
0.025000
0
INSERT
8
0
2
RPAD
10
-0.444000
20
0.843000
41
0.080000
42
0.080000
50
0.000000
0
CIRCLE
8
0
10
-0.444000
20
0.843000
40
0.025000
0
INSERT
8
0
2
RPAD
10
-0.544000
20
0.843000
41
0.080000
42
0.080000
50
0.000000
0
CIRCLE
8
0
10
-0.544000
20
0.843000
40
0.025000
0
INSERT
8
0
2
RPAD
10
-0.644000
20
0.843000
41
0.080000
42
0.080000
50
0.000000
0
CIRCLE
8
0
10
-0.644000
20
0.843000
40
0.025000
0
INSERT
8
0
2
RPAD
10
-0.744000
20
0.843000
41
0.080000
42
0.080000
50
0.000000
0
CIRCLE
8
0
10
-0.744000
20
0.843000
40
0.025000
0
INSERT
8
0
2
RPAD
10
-0.744000
20
0.951000
41
0.080000
42
0.080000
50
0.000000
0
CIRCLE
8
0
10
-0.744000
20
0.951000
40
0.025000
0
INSERT
8
0
2
RPAD
10
-0.644000
20
0.951000
41
0.080000
42
0.080000
50
0.000000
0
CIRCLE
8
0
10
-0.644000
20
0.951000
40
0.025000
0
INSERT
8
0
2
RPAD
10
-0.544000
20
0.951000
41
0.080000
42
0.080000
50
0.000000
0
CIRCLE
8
0
10
-0.544000
20
0.951000
40
0.025000
0
INSERT
8
0
2
RPAD
10
-0.444000
20
0.951000
41
0.080000
42
0.080000
50
0.000000
0
CIRCLE
8
0
10
-0.444000
20
0.951000
40
0.025000
0
INSERT
8
0
2
EPAD
10
-0.179000
20
0.886000
41
0.250000
42
0.250000
0
CIRCLE
8
0
10
-0.179000
20
0.886000
40
0.030000
0
INSERT
8
0
2
EPAD
10
-1.756000
20
-0.704000
41
0.250000
42
0.250000
0
CIRCLE
8
0
10
-1.756000
20
-0.704000
40
0.030000
0
INSERT
8
0
2
RPAD
10
0.952000
20
-0.746000
41
0.080000
42
0.080000
50
0.000000
0
CIRCLE
8
0
10
0.952000
20
-0.746000
40
0.025000
0
INSERT
8
0
2
RPAD
10
1.152000
20
-0.746000
41
0.080000
42
0.080000
50
0.000000
0
CIRCLE
8
0
10
1.152000
20
-0.746000
40
0.025000
0
INSERT
8
0
2
RPAD
10
1.563000
20
0.844000
41
0.080000
42
0.080000
50
0.000000
0
CIRCLE
8
0
10
1.563000
20
0.844000
40
0.025000
0
INSERT
8
0
2
RPAD
10
1.463000
20
0.844000
41
0.080000
42
0.080000
50
0.000000
0
CIRCLE
8
0
10
1.463000
20
0.844000
40
0.025000
0
INSERT
8
0
2
RPAD
10
1.363000
20
0.844000
41
0.080000
42
0.080000
50
0.000000
0
CIRCLE
8
0
10
1.363000
20
0.844000
40
0.025000
0
INSERT
8
0
2
RPAD
10
1.263000
20
0.844000
41
0.080000
42
0.080000
50
0.000000
0
CIRCLE
8
0
10
1.263000
20
0.844000
40
0.025000
0
INSERT
8
0
2
RPAD
10
1.263000
20
0.952000
41
0.080000
42
0.080000
50
0.000000
0
CIRCLE
8
0
10
1.263000
20
0.952000
40
0.025000
0
INSERT
8
0
2
RPAD
10
1.363000
20
0.952000
41
0.080000
42
0.080000
50
0.000000
0
CIRCLE
8
0
10
1.363000
20
0.952000
40
0.025000
0
INSERT
8
0
2
RPAD
10
1.463000
20
0.952000
41
0.080000
42
0.080000
50
0.000000
0
CIRCLE
8
0
10
1.463000
20
0.952000
40
0.025000
0
INSERT
8
0
2
RPAD
10
1.563000
20
0.952000
41
0.080000
42
0.080000
50
0.000000
0
CIRCLE
8
0
10
1.563000
20
0.952000
40
0.025000
0
INSERT
8
0
2
EPAD
10
1.828000
20
0.887000
41
0.250000
42
0.250000
0
CIRCLE
8
0
10
1.828000
20
0.887000
40
0.030000
0
INSERT
8
0
2
EPAD
10
0.251000
20
-0.703000
41
0.250000
42
0.250000
0
CIRCLE
8
0
10
0.251000
20
-0.703000
40
0.030000
0
INSERT
8
0
2
RPAD
10
-2.060000
20
-2.899000
41
0.080000
42
0.080000
50
90.000000
0
CIRCLE
8
0
10
-2.060000
20
-2.899000
40
0.025000
0
INSERT
8
0
2
RPAD
10
-2.060000
20
-2.799000
41
0.080000
42
0.080000
50
90.000000
0
CIRCLE
8
0
10
-2.060000
20
-2.799000
40
0.025000
0
INSERT
8
0
2
RPAD
10
-0.736000
20
-2.822000
41
0.080000
42
0.080000
50
180.000000
0
CIRCLE
8
0
10
-0.736000
20
-2.822000
40
0.025000
0
INSERT
8
0
2
RPAD
10
-0.836000
20
-2.822000
41
0.080000
42
0.080000
50
180.000000
0
CIRCLE
8
0
10
-0.836000
20
-2.822000
40
0.025000
0
INSERT
8
0
2
RPAD
10
0.609000
20
-2.839000
41
0.080000
42
0.080000
50
0.000000
0
CIRCLE
8
0
10
0.609000
20
-2.839000
40
0.025000
0
INSERT
8
0
2
RPAD
10
0.709000
20
-2.839000
41
0.080000
42
0.080000
50
0.000000
0
CIRCLE
8
0
10
0.709000
20
-2.839000
40
0.025000
0
INSERT
8
0
2
RPAD
10
1.965000
20
-2.808000
41
0.080000
42
0.080000
50
270.000000
0
CIRCLE
8
0
10
1.965000
20
-2.808000
40
0.025000
0
INSERT
8
0
2
RPAD
10
1.965000
20
-2.908000
41
0.080000
42
0.080000
50
270.000000
0
CIRCLE
8
0
10
1.965000
20
-2.908000
40
0.025000
0
INSERT
8
0
2
RPAD
10
1.785000
20
-2.807000
41
0.040000
42
0.050000
50
180.000000
0
INSERT
8
0
2
RPAD
10
1.701000
20
-2.807000
41
0.040000
42
0.050000
50
180.000000
0
INSERT
8
0
2
RPAD
10
-1.157000
20
-2.816000
41
0.040000
42
0.050000
50
0.000000
0
INSERT
8
0
2
RPAD
10
-1.073000
20
-2.816000
41
0.040000
42
0.050000
50
0.000000
0
INSERT
8
0
2
RPAD
10
-0.549000
20
-2.821000
41
0.040000
42
0.050000
50
0.000000
0
INSERT
8
0
2
RPAD
10
-0.465000
20
-2.821000
41
0.040000
42
0.050000
50
0.000000
0
INSERT
8
0
2
RPAD
10
0.463000
20
-2.839000
41
0.040000
42
0.050000
50
180.000000
0
INSERT
8
0
2
RPAD
10
0.379000
20
-2.839000
41
0.040000
42
0.050000
50
180.000000
0
INSERT
8
0
2
RPAD
10
2.186000
20
-0.735000
41
0.080000
42
0.080000
50
90.000000
0
CIRCLE
8
0
10
2.186000
20
-0.735000
40
0.025000
0
INSERT
8
0
2
RPAD
10
2.186000
20
-0.635000
41
0.080000
42
0.080000
50
90.000000
0
CIRCLE
8
0
10
2.186000
20
-0.635000
40
0.025000
0
INSERT
8
0
2
RPAD
10
-2.219000
20
-0.202000
41
0.080000
42
0.080000
50
180.000000
0
CIRCLE
8
0
10
-2.219000
20
-0.202000
40
0.025000
0
INSERT
8
0
2
RPAD
10
-2.319000
20
-0.202000
41
0.080000
42
0.080000
50
180.000000
0
CIRCLE
8
0
10
-2.319000
20
-0.202000
40
0.025000
0
INSERT
8
0
2
RPAD
10
-2.419000
20
-0.202000
41
0.080000
42
0.080000
50
180.000000
0
CIRCLE
8
0
10
-2.419000
20
-0.202000
40
0.025000
0
INSERT
8
0
2
RPAD
10
-2.519000
20
-0.202000
41
0.080000
42
0.080000
50
180.000000
0
CIRCLE
8
0
10
-2.519000
20
-0.202000
40
0.025000
0
INSERT
8
0
2
RPAD
10
1.910000
20
1.798000
41
0.080000
42
0.080000
50
270.000000
0
CIRCLE
8
0
10
1.910000
20
1.798000
40
0.025000
0
INSERT
8
0
2
RPAD
10
1.910000
20
1.698000
41
0.080000
42
0.080000
50
270.000000
0
CIRCLE
8
0
10
1.910000
20
1.698000
40
0.025000
0
INSERT
8
0
2
RPAD
10
1.910000
20
1.598000
41
0.080000
42
0.080000
50
270.000000
0
CIRCLE
8
0
10
1.910000
20
1.598000
40
0.025000
0
INSERT
8
0
2
RPAD
10
-2.496000
20
-0.607000
41
0.080000
42
0.080000
50
0.000000
0
CIRCLE
8
0
10
-2.496000
20
-0.607000
40
0.025000
0
INSERT
8
0
2
RPAD
10
-2.396000
20
-0.607000
41
0.080000
42
0.080000
50
0.000000
0
CIRCLE
8
0
10
-2.396000
20
-0.607000
40
0.025000
0
INSERT
8
0
2
RPAD
10
-2.296000
20
-0.607000
41
0.080000
42
0.080000
50
0.000000
0
CIRCLE
8
0
10
-2.296000
20
-0.607000
40
0.025000
0
INSERT
8
0
2
RPAD
10
-2.196000
20
-0.607000
41
0.080000
42
0.080000
50
0.000000
0
CIRCLE
8
0
10
-2.196000
20
-0.607000
40
0.025000
0
INSERT
8
0
2
RPAD
10
2.191000
20
-0.227000
41
0.080000
42
0.080000
50
0.000000
0
CIRCLE
8
0
10
2.191000
20
-0.227000
40
0.025000
0
INSERT
8
0
2
RPAD
10
2.291000
20
-0.227000
41
0.080000
42
0.080000
50
0.000000
0
CIRCLE
8
0
10
2.291000
20
-0.227000
40
0.025000
0
INSERT
8
0
2
RPAD
10
2.391000
20
-0.227000
41
0.080000
42
0.080000
50
0.000000
0
CIRCLE
8
0
10
2.391000
20
-0.227000
40
0.025000
0
INSERT
8
0
2
RPAD
10
2.491000
20
-0.227000
41
0.080000
42
0.080000
50
0.000000
0
CIRCLE
8
0
10
2.491000
20
-0.227000
40
0.025000
0
INSERT
8
0
2
RPAD
10
-1.425000
20
2.498000
41
0.080000
42
0.080000
50
180.000000
0
CIRCLE
8
0
10
-1.425000
20
2.498000
40
0.025000
0
INSERT
8
0
2
RPAD
10
-1.525000
20
2.498000
41
0.080000
42
0.080000
50
180.000000
0
CIRCLE
8
0
10
-1.525000
20
2.498000
40
0.025000
0
INSERT
8
0
2
RPAD
10
-1.625000
20
2.498000
41
0.080000
42
0.080000
50
180.000000
0
CIRCLE
8
0
10
-1.625000
20
2.498000
40
0.025000
0
INSERT
8
0
2
RPAD
10
1.490000
20
2.468000
41
0.080000
42
0.080000
50
180.000000
0
CIRCLE
8
0
10
1.490000
20
2.468000
40
0.025000
0
INSERT
8
0
2
RPAD
10
1.390000
20
2.468000
41
0.080000
42
0.080000
50
180.000000
0
CIRCLE
8
0
10
1.390000
20
2.468000
40
0.025000
0
INSERT
8
0
2
RPAD
10
1.290000
20
2.468000
41
0.080000
42
0.080000
50
180.000000
0
CIRCLE
8
0
10
1.290000
20
2.468000
40
0.025000
0
INSERT
8
0
2
RPAD
10
-2.519000
20
-0.783000
41
0.080000
42
0.080000
50
0.000000
0
CIRCLE
8
0
10
-2.519000
20
-0.783000
40
0.025000
0
INSERT
8
0
2
RPAD
10
-2.419000
20
-0.783000
41
0.080000
42
0.080000
50
0.000000
0
CIRCLE
8
0
10
-2.419000
20
-0.783000
40
0.025000
0
INSERT
8
0
2
RPAD
10
-2.287000
20
-0.822000
41
0.080000
42
0.080000
50
0.000000
0
CIRCLE
8
0
10
-2.287000
20
-0.822000
40
0.025000
0
INSERT
8
0
2
RPAD
10
-2.187000
20
-0.822000
41
0.080000
42
0.080000
50
0.000000
0
CIRCLE
8
0
10
-2.187000
20
-0.822000
40
0.025000
0
INSERT
8
0
2
RPAD
10
1.478000
20
1.943000
41
0.080000
42
0.080000
50
0.000000
0
CIRCLE
8
0
10
1.478000
20
1.943000
40
0.025000
0
INSERT
8
0
2
RPAD
10
1.578000
20
1.943000
41
0.080000
42
0.080000
50
0.000000
0
CIRCLE
8
0
10
1.578000
20
1.943000
40
0.025000
0
INSERT
8
0
2
RPAD
10
1.483000
20
1.798000
41
0.080000
42
0.080000
50
0.000000
0
CIRCLE
8
0
10
1.483000
20
1.798000
40
0.025000
0
INSERT
8
0
2
RPAD
10
1.583000
20
1.798000
41
0.080000
42
0.080000
50
0.000000
0
CIRCLE
8
0
10
1.583000
20
1.798000
40
0.025000
0
INSERT
8
0
2
RPAD
10
1.478000
20
2.093000
41
0.080000
42
0.080000
50
0.000000
0
CIRCLE
8
0
10
1.478000
20
2.093000
40
0.025000
0
INSERT
8
0
2
RPAD
10
1.578000
20
2.093000
41
0.080000
42
0.080000
50
0.000000
0
CIRCLE
8
0
10
1.578000
20
2.093000
40
0.025000
0
INSERT
8
0
2
RPAD
10
1.483000
20
1.538000
41
0.080000
42
0.080000
50
0.000000
0
CIRCLE
8
0
10
1.483000
20
1.538000
40
0.025000
0
INSERT
8
0
2
RPAD
10
1.583000
20
1.538000
41
0.080000
42
0.080000
50
0.000000
0
CIRCLE
8
0
10
1.583000
20
1.538000
40
0.025000
0
INSERT
8
0
2
RPAD
10
1.733000
20
1.804000
41
0.040000
42
0.050000
50
90.000000
0
INSERT
8
0
2
RPAD
10
1.733000
20
1.888000
41
0.040000
42
0.050000
50
90.000000
0
INSERT
8
0
2
RPAD
10
1.733000
20
2.004000
41
0.040000
42
0.050000
50
90.000000
0
INSERT
8
0
2
RPAD
10
1.733000
20
2.088000
41
0.040000
42
0.050000
50
90.000000
0
INSERT
8
0
2
RPAD
10
1.337000
20
2.093000
41
0.040000
42
0.050000
50
-180.000000
0
INSERT
8
0
2
RPAD
10
1.253000
20
2.093000
41
0.040000
42
0.050000
50
-180.000000
0
INSERT
8
0
2
RPAD
10
1.588000
20
2.243000
41
0.040000
42
0.050000
50
0.000000
0
INSERT
8
0
2
RPAD
10
1.672000
20
2.243000
41
0.040000
42
0.050000
50
0.000000
0
INSERT
8
0
2
RPAD
10
1.733000
20
1.682000
41
0.040000
42
0.050000
50
-90.000000
0
INSERT
8
0
2
RPAD
10
1.733000
20
1.598000
41
0.040000
42
0.050000
50
-90.000000
0
INSERT
8
0
2
RPAD
10
1.263000
20
1.738000
41
0.040000
42
0.050000
50
-90.000000
0
INSERT
8
0
2
RPAD
10
1.263000
20
1.654000
41
0.040000
42
0.050000
50
-90.000000
0
INSERT
8
0
2
RPAD
10
1.263000
20
1.973000
41
0.037000
42
0.039000
50
0.000000
0
INSERT
8
0
2
RPAD
10
1.326000
20
1.973000
41
0.037000
42
0.039000
50
0.000000
0
INSERT
8
0
2
RPAD
10
1.558000
20
1.433000
41
0.037000
42
0.039000
50
-180.000000
0
INSERT
8
0
2
RPAD
10
1.495000
20
1.433000
41
0.037000
42
0.039000
50
-180.000000
0
INSERT
8
0
2
RPAD
10
-0.826000
20
1.103000
41
0.040000
42
0.050000
50
-180.000000
0
INSERT
8
0
2
RPAD
10
-0.910000
20
1.103000
41
0.040000
42
0.050000
50
-180.000000
0
INSERT
8
0
2
RPAD
10
-0.626000
20
1.103000
41
0.040000
42
0.050000
50
180.000000
0
INSERT
8
0
2
RPAD
10
-0.710000
20
1.103000
41
0.040000
42
0.050000
50
180.000000
0
INSERT
8
0
2
RPAD
10
-0.873000
20
1.263000
41
0.035000
42
0.040000
50
180.000000
0
INSERT
8
0
2
RPAD
10
-0.910000
20
1.188000
41
0.035000
42
0.040000
50
180.000000
0
INSERT
8
0
2
RPAD
10
-0.836000
20
1.188000
41
0.035000
42
0.040000
50
180.000000
0
INSERT
8
0
2
RPAD
10
-0.671000
20
1.263000
41
0.035000
42
0.040000
50
180.000000
0
INSERT
8
0
2
RPAD
10
-0.708000
20
1.188000
41
0.035000
42
0.040000
50
180.000000
0
INSERT
8
0
2
RPAD
10
-0.634000
20
1.188000
41
0.035000
42
0.040000
50
180.000000
0
INSERT
8
0
2
RPAD
10
-0.471000
20
1.263000
41
0.035000
42
0.040000
50
180.000000
0
INSERT
8
0
2
RPAD
10
-0.508000
20
1.188000
41
0.035000
42
0.040000
50
180.000000
0
INSERT
8
0
2
RPAD
10
-0.434000
20
1.188000
41
0.035000
42
0.040000
50
180.000000
0
INSERT
8
0
2
RPAD
10
-0.271000
20
1.263000
41
0.035000
42
0.040000
50
180.000000
0
INSERT
8
0
2
RPAD
10
-0.308000
20
1.188000
41
0.035000
42
0.040000
50
180.000000
0
INSERT
8
0
2
RPAD
10
-0.234000
20
1.188000
41
0.035000
42
0.040000
50
180.000000
0
INSERT
8
0
2
RPAD
10
-0.071000
20
1.263000
41
0.035000
42
0.040000
50
180.000000
0
INSERT
8
0
2
RPAD
10
-0.108000
20
1.188000
41
0.035000
42
0.040000
50
180.000000
0
INSERT
8
0
2
RPAD
10
-0.034000
20
1.188000
41
0.035000
42
0.040000
50
180.000000
0
INSERT
8
0
2
RPAD
10
-0.671000
20
1.442000
41
0.040000
42
0.050000
50
-90.000000
0
INSERT
8
0
2
RPAD
10
-0.671000
20
1.358000
41
0.040000
42
0.050000
50
-90.000000
0
INSERT
8
0
2
RPAD
10
-0.958000
20
1.427000
41
0.040000
42
0.050000
50
0.000000
0
INSERT
8
0
2
RPAD
10
-0.874000
20
1.427000
41
0.040000
42
0.050000
50
0.000000
0
INSERT
8
0
2
RPAD
10
-0.471000
20
1.442000
41
0.040000
42
0.050000
50
-90.000000
0
INSERT
8
0
2
RPAD
10
-0.471000
20
1.358000
41
0.040000
42
0.050000
50
-90.000000
0
INSERT
8
0
2
RPAD
10
-0.271000
20
1.442000
41
0.040000
42
0.050000
50
-90.000000
0
INSERT
8
0
2
RPAD
10
-0.271000
20
1.358000
41
0.040000
42
0.050000
50
-90.000000
0
INSERT
8
0
2
RPAD
10
-0.511000
20
1.103000
41
0.040000
42
0.050000
50
0.000000
0
INSERT
8
0
2
RPAD
10
-0.427000
20
1.103000
41
0.040000
42
0.050000
50
0.000000
0
INSERT
8
0
2
RPAD
10
-0.311000
20
1.103000
41
0.040000
42
0.050000
50
0.000000
0
INSERT
8
0
2
RPAD
10
-0.227000
20
1.103000
41
0.040000
42
0.050000
50
0.000000
0
INSERT
8
0
2
RPAD
10
-0.111000
20
1.103000
41
0.040000
42
0.050000
50
0.000000
0
INSERT
8
0
2
RPAD
10
-0.027000
20
1.103000
41
0.040000
42
0.050000
50
0.000000
0
INSERT
8
0
2
RPAD
10
-0.071000
20
1.442000
41
0.040000
42
0.050000
50
-90.000000
0
INSERT
8
0
2
RPAD
10
-0.071000
20
1.358000
41
0.040000
42
0.050000
50
-90.000000
0
INSERT
8
0
2
RPAD
10
-2.041000
20
-0.784000
41
0.080000
42
0.080000
50
90.000000
0
CIRCLE
8
0
10
-2.041000
20
-0.784000
40
0.025000
0
INSERT
8
0
2
RPAD
10
-2.041000
20
-0.384000
41
0.080000
42
0.080000
50
90.000000
0
CIRCLE
8
0
10
-2.041000
20
-0.384000
40
0.025000
0
INSERT
8
0
2
RPAD
10
-0.963000
20
2.716000
41
0.035000
42
0.035000
50
0.000000
0
INSERT
8
0
2
RPAD
10
-0.895000
20
2.716000
41
0.035000
42
0.035000
50
0.000000
0
INSERT
8
0
2
RPAD
10
-1.475000
20
2.724000
41
0.035000
42
0.035000
50
0.000000
0
INSERT
8
0
2
RPAD
10
-1.407000
20
2.724000
41
0.035000
42
0.035000
50
0.000000
0
INSERT
8
0
2
RPAD
10
1.127000
20
2.491000
41
0.035000
42
0.035000
50
-90.000000
0
INSERT
8
0
2
RPAD
10
1.127000
20
2.423000
41
0.035000
42
0.035000
50
-90.000000
0
INSERT
8
0
2
RPAD
10
1.461000
20
2.803000
41
0.035000
42
0.035000
50
180.000000
0
INSERT
8
0
2
RPAD
10
1.393000
20
2.803000
41
0.035000
42
0.035000
50
180.000000
0
INSERT
8
0
2
RPAD
10
-1.489000
20
1.663000
41
0.040000
42
0.050000
50
0.000000
0
INSERT
8
0
2
RPAD
10
-1.405000
20
1.663000
41
0.040000
42
0.050000
50
0.000000
0
INSERT
8
0
2
RPAD
10
-1.135000
20
1.502000
41
0.040000
42
0.050000
50
270.000000
0
INSERT
8
0
2
RPAD
10
-1.135000
20
1.418000
41
0.040000
42
0.050000
50
270.000000
0
INSERT
8
0
2
RPAD
10
1.933000
20
1.963000
41
0.035000
42
0.035000
50
0.000000
0
INSERT
8
0
2
RPAD
10
2.001000
20
1.963000
41
0.035000
42
0.035000
50
0.000000
0
INSERT
8
0
2
RPAD
10
1.734000
20
2.329000
41
0.035000
42
0.035000
50
90.000000
0
INSERT
8
0
2
RPAD
10
1.734000
20
2.397000
41
0.035000
42
0.035000
50
90.000000
0
INSERT
8
0
2
RPAD
10
0.148000
20
1.494000
41
0.035000
42
0.035000
50
270.000000
0
INSERT
8
0
2
RPAD
10
0.148000
20
1.426000
41
0.035000
42
0.035000
50
270.000000
0
INSERT
8
0
2
RPAD
10
-0.281000
20
-2.883000
41
0.035000
42
0.035000
50
0.000000
0
INSERT
8
0
2
RPAD
10
-0.213000
20
-2.883000
41
0.035000
42
0.035000
50
0.000000
0
INSERT
8
0
2
RPAD
10
-0.728000
20
1.633000
41
0.035000
42
0.035000
50
270.000000
0
INSERT
8
0
2
RPAD
10
-0.728000
20
1.565000
41
0.035000
42
0.035000
50
270.000000
0
INSERT
8
0
2
RPAD
10
-0.845000
20
1.631000
41
0.035000
42
0.035000
50
270.000000
0
INSERT
8
0
2
RPAD
10
-0.845000
20
1.563000
41
0.035000
42
0.035000
50
270.000000
0
INSERT
8
0
2
RPAD
10
-0.465000
20
1.630000
41
0.040000
42
0.050000
50
270.000000
0
INSERT
8
0
2
RPAD
10
-0.465000
20
1.546000
41
0.040000
42
0.050000
50
270.000000
0
INSERT
8
0
2
RPAD
10
-0.266000
20
1.623000
41
0.035000
42
0.035000
50
270.000000
0
INSERT
8
0
2
RPAD
10
-0.266000
20
1.555000
41
0.035000
42
0.035000
50
270.000000
0
INSERT
8
0
2
RPAD
10
-0.009000
20
1.605000
41
0.035000
42
0.035000
50
270.000000
0
INSERT
8
0
2
RPAD
10
-0.009000
20
1.537000
41
0.035000
42
0.035000
50
270.000000
0
INSERT
8
0
2
RPAD
10
-0.911000
20
1.544000
41
0.035000
42
0.035000
50
90.000000
0
INSERT
8
0
2
RPAD
10
-0.911000
20
1.612000
41
0.035000
42
0.035000
50
90.000000
0
INSERT
8
0
2
RPAD
10
-0.079000
20
1.527000
41
0.035000
42
0.035000
50
90.000000
0
INSERT
8
0
2
RPAD
10
-0.079000
20
1.595000
41
0.035000
42
0.035000
50
90.000000
0
INSERT
8
0
2
RPAD
10
-0.404000
20
1.544000
41
0.040000
42
0.050000
50
90.000000
0
INSERT
8
0
2
RPAD
10
-0.404000
20
1.628000
41
0.040000
42
0.050000
50
90.000000
0
INSERT
8
0
2
RPAD
10
-0.205000
20
1.541000
41
0.035000
42
0.035000
50
90.000000
0
INSERT
8
0
2
RPAD
10
-0.205000
20
1.609000
41
0.035000
42
0.035000
50
90.000000
0
INSERT
8
0
2
RPAD
10
-0.161000
20
-2.685000
41
0.035000
42
0.035000
50
-90.000000
0
INSERT
8
0
2
RPAD
10
-0.161000
20
-2.753000
41
0.035000
42
0.035000
50
-90.000000
0
INSERT
8
0
2
RPAD
10
-0.657000
20
1.554000
41
0.035000
42
0.035000
50
90.000000
0
INSERT
8
0
2
RPAD
10
-0.657000
20
1.622000
41
0.035000
42
0.035000
50
90.000000
0
INSERT
8
0
2
RPAD
10
1.127000
20
2.261000
41
0.035000
42
0.035000
50
90.000000
0
INSERT
8
0
2
RPAD
10
1.127000
20
2.329000
41
0.035000
42
0.035000
50
90.000000
0
INSERT
8
0
2
RPAD
10
-1.117000
20
1.664000
41
0.035000
42
0.035000
50
180.000000
0
INSERT
8
0
2
RPAD
10
-1.185000
20
1.664000
41
0.035000
42
0.035000
50
180.000000
0
INSERT
8
0
2
RPAD
10
1.911000
20
1.375000
41
0.035000
42
0.035000
50
0.000000
0
INSERT
8
0
2
RPAD
10
1.979000
20
1.375000
41
0.035000
42
0.035000
50
0.000000
0
INSERT
8
0
2
RPAD
10
0.068000
20
1.103000
41
0.035000
42
0.035000
50
90.000000
0
INSERT
8
0
2
RPAD
10
0.068000
20
1.171000
41
0.035000
42
0.035000
50
90.000000
0
INSERT
8
0
2
RPAD
10
0.188000
20
2.730000
41
0.080000
42
0.080000
50
180.000000
0
CIRCLE
8
0
10
0.188000
20
2.730000
40
0.025000
0
INSERT
8
0
2
RPAD
10
0.088000
20
2.730000
41
0.080000
42
0.080000
50
180.000000
0
CIRCLE
8
0
10
0.088000
20
2.730000
40
0.025000
0
INSERT
8
0
2
RPAD
10
-0.011000
20
2.730000
41
0.080000
42
0.080000
50
180.000000
0
CIRCLE
8
0
10
-0.011000
20
2.730000
40
0.025000
0
INSERT
8
0
2
RPAD
10
-0.111000
20
2.730000
41
0.080000
42
0.080000
50
180.000000
0
CIRCLE
8
0
10
-0.111000
20
2.730000
40
0.025000
0
INSERT
8
0
2
RPAD
10
0.189000
20
2.632000
41
0.080000
42
0.080000
50
0.000000
0
CIRCLE
8
0
10
0.189000
20
2.632000
40
0.025000
0
INSERT
8
0
2
RPAD
10
0.089000
20
2.632000
41
0.080000
42
0.080000
50
0.000000
0
CIRCLE
8
0
10
0.089000
20
2.632000
40
0.025000
0
INSERT
8
0
2
RPAD
10
-0.010000
20
2.632000
41
0.080000
42
0.080000
50
0.000000
0
CIRCLE
8
0
10
-0.010000
20
2.632000
40
0.025000
0
INSERT
8
0
2
RPAD
10
-0.110000
20
2.632000
41
0.080000
42
0.080000
50
0.000000
0
CIRCLE
8
0
10
-0.110000
20
2.632000
40
0.025000
0
INSERT
8
0
2
EPAD
10
0.563000
20
2.215000
41
0.112000
42
0.112000
0
CIRCLE
8
0
10
0.563000
20
2.215000
40
0.111000
0
INSERT
8
0
2
EPAD
10
-0.505000
20
2.220000
41
0.112000
42
0.112000
0
CIRCLE
8
0
10
-0.505000
20
2.220000
40
0.111000
0
INSERT
8
0
2
RPAD
10
0.906000
20
-2.846000
41
0.093000
42
0.096000
50
0.000000
0
INSERT
8
0
2
RPAD
10
1.150000
20
-2.846000
41
0.093000
42
0.096000
50
0.000000
0
INSERT
8
0
2
RPAD
10
0.013000
20
-2.058000
41
0.093000
42
0.096000
50
270.000000
0
INSERT
8
0
2
RPAD
10
0.013000
20
-2.302000
41
0.093000
42
0.096000
50
270.000000
0
INSERT
8
0
2
RPAD
10
-1.908000
20
-2.860000
41
0.093000
42
0.096000
50
0.000000
0
INSERT
8
0
2
RPAD
10
-1.664000
20
-2.860000
41
0.093000
42
0.096000
50
0.000000
0
INSERT
8
0
2
RPAD
10
-1.504000
20
2.259000
41
0.093000
42
0.096000
50
0.000000
0
INSERT
8
0
2
RPAD
10
-1.260000
20
2.259000
41
0.093000
42
0.096000
50
0.000000
0
INSERT
8
0
2
RPAD
10
1.287000
20
2.653000
41
0.093000
42
0.096000
50
0.000000
0
INSERT
8
0
2
RPAD
10
1.531000
20
2.653000
41
0.093000
42
0.096000
50
0.000000
0
INSERT
8
0
2
RPAD
10
1.655000
20
1.370000
41
0.093000
42
0.096000
50
270.000000
0
INSERT
8
0
2
RPAD
10
1.655000
20
1.126000
41
0.093000
42
0.096000
50
270.000000
0
INSERT
8
0
2
RPAD
10
-0.078000
20
0.372000
41
0.040000
42
0.050000
50
180.000000
0
INSERT
8
0
2
RPAD
10
-0.162000
20
0.372000
41
0.040000
42
0.050000
50
180.000000
0
INSERT
8
0
2
RPAD
10
-0.080000
20
0.460000
41
0.040000
42
0.050000
50
-180.000000
0
INSERT
8
0
2
RPAD
10
-0.164000
20
0.460000
41
0.040000
42
0.050000
50
-180.000000
0
INSERT
8
0
2
RPAD
10
-1.892000
20
2.088000
41
0.080000
42
0.080000
50
90.000000
0
CIRCLE
8
0
10
-1.892000
20
2.088000
40
0.025000
0
INSERT
8
0
2
RPAD
10
-1.892000
20
2.188000
41
0.080000
42
0.080000
50
90.000000
0
CIRCLE
8
0
10
-1.892000
20
2.188000
40
0.025000
0
INSERT
8
0
2
RPAD
10
-1.892000
20
2.288000
41
0.080000
42
0.080000
50
90.000000
0
CIRCLE
8
0
10
-1.892000
20
2.288000
40
0.025000
0
INSERT
8
0
2
RPAD
10
-1.892000
20
2.388000
41
0.080000
42
0.080000
50
90.000000
0
CIRCLE
8
0
10
-1.892000
20
2.388000
40
0.025000
0
INSERT
8
0
2
RPAD
10
-1.892000
20
2.488000
41
0.080000
42
0.080000
50
90.000000
0
CIRCLE
8
0
10
-1.892000
20
2.488000
40
0.025000
0
INSERT
8
0
2
RPAD
10
-1.992000
20
2.488000
41
0.080000
42
0.080000
50
90.000000
0
CIRCLE
8
0
10
-1.992000
20
2.488000
40
0.025000
0
INSERT
8
0
2
RPAD
10
-1.992000
20
2.388000
41
0.080000
42
0.080000
50
90.000000
0
CIRCLE
8
0
10
-1.992000
20
2.388000
40
0.025000
0
INSERT
8
0
2
RPAD
10
-1.992000
20
2.288000
41
0.080000
42
0.080000
50
90.000000
0
CIRCLE
8
0
10
-1.992000
20
2.288000
40
0.025000
0
INSERT
8
0
2
RPAD
10
-1.992000
20
2.188000
41
0.080000
42
0.080000
50
90.000000
0
CIRCLE
8
0
10
-1.992000
20
2.188000
40
0.025000
0
INSERT
8
0
2
RPAD
10
-1.992000
20
2.088000
41
0.080000
42
0.080000
50
90.000000
0
CIRCLE
8
0
10
-1.992000
20
2.088000
40
0.025000
0
INSERT
8
0
2
RPAD
10
2.526000
20
-0.847000
41
0.080000
42
0.080000
50
90.000000
0
CIRCLE
8
0
10
2.526000
20
-0.847000
40
0.025000
0
INSERT
8
0
2
RPAD
10
2.526000
20
-0.747000
41
0.080000
42
0.080000
50
90.000000
0
CIRCLE
8
0
10
2.526000
20
-0.747000
40
0.025000
0
INSERT
8
0
2
RPAD
10
2.526000
20
-0.647000
41
0.080000
42
0.080000
50
90.000000
0
CIRCLE
8
0
10
2.526000
20
-0.647000
40
0.025000
0
INSERT
8
0
2
RPAD
10
2.526000
20
-0.547000
41
0.080000
42
0.080000
50
90.000000
0
CIRCLE
8
0
10
2.526000
20
-0.547000
40
0.025000
0
INSERT
8
0
2
RPAD
10
2.526000
20
-0.447000
41
0.080000
42
0.080000
50
90.000000
0
CIRCLE
8
0
10
2.526000
20
-0.447000
40
0.025000
0
INSERT
8
0
2
RPAD
10
2.426000
20
-0.447000
41
0.080000
42
0.080000
50
90.000000
0
CIRCLE
8
0
10
2.426000
20
-0.447000
40
0.025000
0
INSERT
8
0
2
RPAD
10
2.426000
20
-0.547000
41
0.080000
42
0.080000
50
90.000000
0
CIRCLE
8
0
10
2.426000
20
-0.547000
40
0.025000
0
INSERT
8
0
2
RPAD
10
2.426000
20
-0.647000
41
0.080000
42
0.080000
50
90.000000
0
CIRCLE
8
0
10
2.426000
20
-0.647000
40
0.025000
0
INSERT
8
0
2
RPAD
10
2.426000
20
-0.747000
41
0.080000
42
0.080000
50
90.000000
0
CIRCLE
8
0
10
2.426000
20
-0.747000
40
0.025000
0
INSERT
8
0
2
RPAD
10
2.426000
20
-0.847000
41
0.080000
42
0.080000
50
90.000000
0
CIRCLE
8
0
10
2.426000
20
-0.847000
40
0.025000
0
INSERT
8
0
2
EPAD
10
-0.005000
20
-0.946000
41
0.246000
42
0.246000
0
CIRCLE
8
0
10
-0.005000
20
-0.946000
40
0.010000
0
INSERT
8
0
2
EPAD
10
-1.604000
20
-0.925000
41
0.246000
42
0.246000
0
CIRCLE
8
0
10
-1.604000
20
-0.925000
40
0.010000
0
INSERT
8
0
2
EPAD
10
1.588000
20
-0.937000
41
0.246000
42
0.246000
0
CIRCLE
8
0
10
1.588000
20
-0.937000
40
0.010000
0
INSERT
8
0
2
EPAD
10
-2.006000
20
2.748000
41
0.250000
42
0.250000
0
CIRCLE
8
0
10
-2.006000
20
2.748000
40
0.030000
0
INSERT
8
0
2
EPAD
10
1.371000
20
0.361000
41
0.250000
42
0.250000
0
CIRCLE
8
0
10
1.371000
20
0.361000
40
0.030000
0
INSERT
8
0
2
EPAD
10
-2.264000
20
-2.846000
41
0.250000
42
0.250000
0
CIRCLE
8
0
10
-2.264000
20
-2.846000
40
0.030000
0
INSERT
8
0
2
EPAD
10
2.203000
20
-2.848000
41
0.250000
42
0.250000
0
CIRCLE
8
0
10
2.203000
20
-2.848000
40
0.030000
0
INSERT
8
0
2
EPAD
10
-0.010000
20
-2.722000
41
0.112000
42
0.112000
0
CIRCLE
8
0
10
-0.010000
20
-2.722000
40
0.111000
0
INSERT
8
0
2
EPAD
10
1.807000
20
3.208000
41
0.250000
42
0.250000
0
CIRCLE
8
0
10
1.807000
20
3.208000
40
0.030000
0
POLYLINE
8
0
66
1
40
0.008000
41
0.008000
0
VERTEX
8
0
10
2.068000
20
2.895000
0
VERTEX
8
0
10
2.067000
20
-0.017000
0
VERTEX
8
0
10
2.669000
20
-0.017000
0
VERTEX
8
0
10
2.670000
20
-1.122000
0
VERTEX
8
0
10
0.360000
20
-1.117000
0
VERTEX
8
0
10
0.367000
20
-2.689000
0
VERTEX
8
0
10
2.387000
20
-2.691000
0
VERTEX
8
0
10
2.386000
20
-3.006000
0
VERTEX
8
0
10
-2.415000
20
-3.009000
0
VERTEX
8
0
10
-2.416000
20
-2.690000
0
VERTEX
8
0
10
-0.363000
20
-2.688000
0
VERTEX
8
0
10
-0.363000
20
-1.091000
0
VERTEX
8
0
10
-2.670000
20
-1.085000
0
VERTEX
8
0
10
-2.670000
20
-0.017000
0
VERTEX
8
0
10
-2.159000
20
-0.017000
0
VERTEX
8
0
10
-2.159000
20
2.895000
0
VERTEX
8
0
10
2.068000
20
2.895000
0
SEQEND
8
0
0
POLYLINE
8
0
66
1
40
0.008000
41
0.008000
0
VERTEX
8
0
10
-1.820000
20
-0.195000
0
VERTEX
8
0
10
-1.020000
20
-0.195000
0
VERTEX
8
0
10
-1.020000
20
1.154000
0
VERTEX
8
0
10
-1.820000
20
1.154000
0
VERTEX
8
0
10
-1.820000
20
-0.195000
0
SEQEND
8
0
0
POLYLINE
8
0
66
1
40
0.008000
41
0.008000
0
VERTEX
8
0
10
-1.164000
20
-0.190000
0
VERTEX
8
0
10
-1.064000
20
-0.190000
0
VERTEX
8
0
10
-1.064000
20
1.009000
0
VERTEX
8
0
10
-1.164000
20
1.009000
0
VERTEX
8
0
10
-1.164000
20
-0.190000
0
SEQEND
8
0
0
POLYLINE
8
0
66
1
40
0.008000
41
0.008000
0
VERTEX
8
0
10
-1.164000
20
-0.090000
0
VERTEX
8
0
10
-1.064000
20
-0.090000
0
SEQEND
8
0
0
POLYLINE
8
0
66
1
40
0.008000
41
0.008000
0
VERTEX
8
0
10
-1.764000
20
-0.190000
0
VERTEX
8
0
10
-1.664000
20
-0.190000
0
VERTEX
8
0
10
-1.664000
20
1.009000
0
VERTEX
8
0
10
-1.764000
20
1.009000
0
VERTEX
8
0
10
-1.764000
20
-0.190000
0
SEQEND
8
0
0
POLYLINE
8
0
66
1
40
0.008000
41
0.008000
0
VERTEX
8
0
10
-1.764000
20
-0.090000
0
VERTEX
8
0
10
-1.664000
20
-0.090000
0
SEQEND
8
0
0
TEXT
8
12632256
10
-1.570000
20
1.164000
40
0.048000
41
1.041667
1
MASTER
0
POLYLINE
8
0
66
1
40
0.008000
41
0.008000
0
VERTEX
8
0
10
0.197000
20
-0.193000
0
VERTEX
8
0
10
0.997000
20
-0.193000
0
VERTEX
8
0
10
0.997000
20
1.156000
0
VERTEX
8
0
10
0.197000
20
1.156000
0
VERTEX
8
0
10
0.197000
20
-0.193000
0
SEQEND
8
0
0
POLYLINE
8
0
66
1
40
0.008000
41
0.008000
0
VERTEX
8
0
10
0.853000
20
-0.189000
0
VERTEX
8
0
10
0.953000
20
-0.189000
0
VERTEX
8
0
10
0.953000
20
1.010000
0
VERTEX
8
0
10
0.853000
20
1.010000
0
VERTEX
8
0
10
0.853000
20
-0.189000
0
SEQEND
8
0
0
POLYLINE
8
0
66
1
40
0.008000
41
0.008000
0
VERTEX
8
0
10
0.853000
20
-0.089000
0
VERTEX
8
0
10
0.953000
20
-0.089000
0
SEQEND
8
0
0
POLYLINE
8
0
66
1
40
0.008000
41
0.008000
0
VERTEX
8
0
10
0.253000
20
-0.189000
0
VERTEX
8
0
10
0.353000
20
-0.189000
0
VERTEX
8
0
10
0.353000
20
1.010000
0
VERTEX
8
0
10
0.253000
20
1.010000
0
VERTEX
8
0
10
0.253000
20
-0.189000
0
SEQEND
8
0
0
POLYLINE
8
0
66
1
40
0.008000
41
0.008000
0
VERTEX
8
0
10
0.253000
20
-0.089000
0
VERTEX
8
0
10
0.353000
20
-0.089000
0
SEQEND
8
0
0
TEXT
8
12632256
10
0.472000
20
1.166000
40
0.048000
41
1.041667
1
SLAVE
0
POLYLINE
8
0
66
1
40
0.008000
41
0.008000
0
VERTEX
8
0
10
-1.552000
20
-2.938000
0
VERTEX
8
0
10
-1.252000
20
-2.938000
0
VERTEX
8
0
10
-1.252000
20
-2.838000
0
VERTEX
8
0
10
-1.552000
20
-2.838000
0
VERTEX
8
0
10
-1.552000
20
-2.938000
0
SEQEND
8
0
0
POLYLINE
8
0
66
1
40
0.008000
41
0.008000
0
VERTEX
8
0
10
1.319000
20
-2.893000
0
VERTEX
8
0
10
1.619000
20
-2.893000
0
VERTEX
8
0
10
1.619000
20
-2.793000
0
VERTEX
8
0
10
1.319000
20
-2.793000
0
VERTEX
8
0
10
1.319000
20
-2.893000
0
SEQEND
8
0
0
POLYLINE
8
0
66
1
40
0.008000
41
0.008000
0
VERTEX
8
0
10
-1.845000
20
2.669000
0
VERTEX
8
0
10
-1.545000
20
2.669000
0
VERTEX
8
0
10
-1.545000
20
2.769000
0
VERTEX
8
0
10
-1.845000
20
2.769000
0
VERTEX
8
0
10
-1.845000
20
2.669000
0
SEQEND
8
0
0
POLYLINE
8
0
66
1
40
0.008000
41
0.008000
0
VERTEX
8
0
10
1.653000
20
2.450000
0
VERTEX
8
0
10
1.953000
20
2.450000
0
VERTEX
8
0
10
1.953000
20
2.550000
0
VERTEX
8
0
10
1.653000
20
2.550000
0
VERTEX
8
0
10
1.653000
20
2.450000
0
SEQEND
8
0
0
POLYLINE
8
0
66
1
40
0.008000
41
0.008000
0
VERTEX
8
0
10
-1.116000
20
2.428000
0
VERTEX
8
0
10
-0.816000
20
2.428000
0
VERTEX
8
0
10
-0.816000
20
2.528000
0
VERTEX
8
0
10
-1.116000
20
2.528000
0
VERTEX
8
0
10
-1.116000
20
2.428000
0
SEQEND
8
0
0
POLYLINE
8
0
66
1
40
0.008000
41
0.008000
0
VERTEX
8
0
10
-1.325000
20
2.673000
0
VERTEX
8
0
10
-1.025000
20
2.673000
0
VERTEX
8
0
10
-1.025000
20
2.773000
0
VERTEX
8
0
10
-1.325000
20
2.773000
0
VERTEX
8
0
10
-1.325000
20
2.673000
0
SEQEND
8
0
0
POLYLINE
8
0
66
1
40
0.008000
41
0.008000
0
VERTEX
8
0
10
0.880000
20
2.641000
0
VERTEX
8
0
10
1.180000
20
2.641000
0
VERTEX
8
0
10
1.180000
20
2.741000
0
VERTEX
8
0
10
0.880000
20
2.741000
0
VERTEX
8
0
10
0.880000
20
2.641000
0
SEQEND
8
0
0
POLYLINE
8
0
66
1
40
0.008000
41
0.008000
0
VERTEX
8
0
10
-2.026000
20
1.353000
0
VERTEX
8
0
10
-1.926000
20
1.353000
0
VERTEX
8
0
10
-1.926000
20
1.653000
0
VERTEX
8
0
10
-2.026000
20
1.653000
0
VERTEX
8
0
10
-2.026000
20
1.353000
0
SEQEND
8
0
0
POLYLINE
8
0
66
1
40
0.008000
41
0.008000
0
VERTEX
8
0
10
1.849000
20
2.044000
0
VERTEX
8
0
10
1.949000
20
2.044000
0
VERTEX
8
0
10
1.949000
20
2.344000
0
VERTEX
8
0
10
1.849000
20
2.344000
0
VERTEX
8
0
10
1.849000
20
2.044000
0
SEQEND
8
0
0
POLYLINE
8
0
66
1
40
0.008000
41
0.008000
0
VERTEX
8
0
10
-0.136000
20
-2.931000
0
VERTEX
8
0
10
0.163000
20
-2.931000
0
VERTEX
8
0
10
0.163000
20
-2.831000
0
VERTEX
8
0
10
-0.136000
20
-2.831000
0
VERTEX
8
0
10
-0.136000
20
-2.931000
0
SEQEND
8
0
0
POLYLINE
8
0
66
1
40
0.008000
41
0.008000
0
VERTEX
8
0
10
-1.953000
20
-0.704000
0
VERTEX
8
0
10
-1.756000
20
-0.941000
0
VERTEX
8
0
10
-0.181000
20
-0.941000
0
VERTEX
8
0
10
0.015000
20
-0.744000
0
VERTEX
8
0
10
0.015000
20
0.948000
0
VERTEX
8
0
10
-0.063000
20
1.027000
0
VERTEX
8
0
10
-1.874000
20
1.027000
0
VERTEX
8
0
10
-1.953000
20
0.948000
0
VERTEX
8
0
10
-1.953000
20
-0.704000
0
SEQEND
8
0
0
POLYLINE
8
0
66
1
40
0.008000
41
0.008000
0
VERTEX
8
0
10
-0.794000
20
0.901000
0
VERTEX
8
0
10
-0.394000
20
0.901000
0
VERTEX
8
0
10
-0.394000
20
1.001000
0
VERTEX
8
0
10
-0.794000
20
1.001000
0
VERTEX
8
0
10
-0.794000
20
0.901000
0
SEQEND
8
0
0
POLYLINE
8
0
66
1
40
0.008000
41
0.008000
0
VERTEX
8
0
10
-0.794000
20
0.793000
0
VERTEX
8
0
10
-0.394000
20
0.793000
0
VERTEX
8
0
10
-0.394000
20
0.893000
0
VERTEX
8
0
10
-0.794000
20
0.893000
0
VERTEX
8
0
10
-0.794000
20
0.793000
0
SEQEND
8
0
0
POLYLINE
8
0
66
1
40
0.008000
41
0.008000
0
VERTEX
8
0
10
-1.105000
20
-0.797000
0
VERTEX
8
0
10
-0.405000
20
-0.797000
0
VERTEX
8
0
10
-0.405000
20
-0.697000
0
VERTEX
8
0
10
-1.105000
20
-0.697000
0
VERTEX
8
0
10
-1.105000
20
-0.797000
0
SEQEND
8
0
0
POLYLINE
8
0
66
1
40
0.008000
41
0.008000
0
VERTEX
8
0
10
0.054000
20
-0.703000
0
VERTEX
8
0
10
0.251000
20
-0.940000
0
VERTEX
8
0
10
1.826000
20
-0.940000
0
VERTEX
8
0
10
2.022000
20
-0.743000
0
VERTEX
8
0
10
2.022000
20
0.949000
0
VERTEX
8
0
10
1.944000
20
1.028000
0
VERTEX
8
0
10
0.133000
20
1.028000
0
VERTEX
8
0
10
0.054000
20
0.949000
0
VERTEX
8
0
10
0.054000
20
-0.703000
0
SEQEND
8
0
0
POLYLINE
8
0
66
1
40
0.008000
41
0.008000
0
VERTEX
8
0
10
1.213000
20
0.902000
0
VERTEX
8
0
10
1.613000
20
0.902000
0
VERTEX
8
0
10
1.613000
20
1.002000
0
VERTEX
8
0
10
1.213000
20
1.002000
0
VERTEX
8
0
10
1.213000
20
0.902000
0
SEQEND
8
0
0
POLYLINE
8
0
66
1
40
0.008000
41
0.008000
0
VERTEX
8
0
10
1.213000
20
0.794000
0
VERTEX
8
0
10
1.613000
20
0.794000
0
VERTEX
8
0
10
1.613000
20
0.894000
0
VERTEX
8
0
10
1.213000
20
0.894000
0
VERTEX
8
0
10
1.213000
20
0.794000
0
SEQEND
8
0
0
POLYLINE
8
0
66
1
40
0.008000
41
0.008000
0
VERTEX
8
0
10
0.902000
20
-0.796000
0
VERTEX
8
0
10
1.602000
20
-0.796000
0
VERTEX
8
0
10
1.602000
20
-0.696000
0
VERTEX
8
0
10
0.902000
20
-0.696000
0
VERTEX
8
0
10
0.902000
20
-0.796000
0
SEQEND
8
0
0
POLYLINE
8
0
66
1
40
0.008000
41
0.008000
0
VERTEX
8
0
10
-2.110000
20
-2.949000
0
VERTEX
8
0
10
-2.010000
20
-2.949000
0
VERTEX
8
0
10
-2.010000
20
-2.749000
0
VERTEX
8
0
10
-2.110000
20
-2.749000
0
VERTEX
8
0
10
-2.110000
20
-2.949000
0
SEQEND
8
0
0
TEXT
8
12632256
10
-1.976000
20
-3.333000
40
0.048000
41
1.041667
50
90.000000
1
D1
0
POLYLINE
8
0
66
1
40
0.008000
41
0.008000
0
VERTEX
8
0
10
-0.886000
20
-2.872000
0
VERTEX
8
0
10
-0.686000
20
-2.872000
0
VERTEX
8
0
10
-0.686000
20
-2.772000
0
VERTEX
8
0
10
-0.886000
20
-2.772000
0
VERTEX
8
0
10
-0.886000
20
-2.872000
0
SEQEND
8
0
0
POLYLINE
8
0
66
1
40
0.008000
41
0.008000
0
VERTEX
8
0
10
0.559000
20
-2.889000
0
VERTEX
8
0
10
0.759000
20
-2.889000
0
VERTEX
8
0
10
0.759000
20
-2.789000
0
VERTEX
8
0
10
0.559000
20
-2.789000
0
VERTEX
8
0
10
0.559000
20
-2.889000
0
SEQEND
8
0
0
POLYLINE
8
0
66
1
40
0.008000
41
0.008000
0
VERTEX
8
0
10
1.915000
20
-2.958000
0
VERTEX
8
0
10
2.015000
20
-2.958000
0
VERTEX
8
0
10
2.015000
20
-2.758000
0
VERTEX
8
0
10
1.915000
20
-2.758000
0
VERTEX
8
0
10
1.915000
20
-2.958000
0
SEQEND
8
0
0
TEXT
8
12632256
10
2.073000
20
-2.908000
40
0.048000
41
1.041667
50
90.000000
1
D4
0
POLYLINE
8
0
66
1
40
0.008000
41
0.008000
0
VERTEX
8
0
10
1.756000
20
-2.830000
0
VERTEX
8
0
10
1.729000
20
-2.830000
0
SEQEND
8
0
0
POLYLINE
8
0
66
1
40
0.008000
41
0.008000
0
VERTEX
8
0
10
1.756000
20
-2.782000
0
VERTEX
8
0
10
1.728000
20
-2.782000
0
SEQEND
8
0
0
TEXT
8
12632256
10
1.717000
20
-2.875000
40
0.048000
41
1.041667
1
R1
0
POLYLINE
8
0
66
1
40
0.008000
41
0.008000
0
VERTEX
8
0
10
-1.128000
20
-2.793000
0
VERTEX
8
0
10
-1.101000
20
-2.793000
0
SEQEND
8
0
0
POLYLINE
8
0
66
1
40
0.008000
41
0.008000
0
VERTEX
8
0
10
-1.128000
20
-2.841000
0
VERTEX
8
0
10
-1.100000
20
-2.841000
0
SEQEND
8
0
0
POLYLINE
8
0
66
1
40
0.008000
41
0.008000
0
VERTEX
8
0
10
-0.520000
20
-2.798000
0
VERTEX
8
0
10
-0.493000
20
-2.798000
0
SEQEND
8
0
0
POLYLINE
8
0
66
1
40
0.008000
41
0.008000
0
VERTEX
8
0
10
-0.520000
20
-2.846000
0
VERTEX
8
0
10
-0.492000
20
-2.846000
0
SEQEND
8
0
0
POLYLINE
8
0
66
1
40
0.008000
41
0.008000
0
VERTEX
8
0
10
0.434000
20
-2.862000
0
VERTEX
8
0
10
0.407000
20
-2.862000
0
SEQEND
8
0
0
POLYLINE
8
0
66
1
40
0.008000
41
0.008000
0
VERTEX
8
0
10
0.434000
20
-2.814000
0
VERTEX
8
0
10
0.406000
20
-2.814000
0
SEQEND
8
0
0
POLYLINE
8
0
66
1
40
0.008000
41
0.008000
0
VERTEX
8
0
10
2.136000
20
-0.785000
0
VERTEX
8
0
10
2.236000
20
-0.785000
0
VERTEX
8
0
10
2.236000
20
-0.585000
0
VERTEX
8
0
10
2.136000
20
-0.585000
0
VERTEX
8
0
10
2.136000
20
-0.785000
0
SEQEND
8
0
0
TEXT
8
12632256
10
2.126000
20
-0.760000
40
0.048000
41
1.041667
50
90.000000
1
INT
0
POLYLINE
8
0
66
1
40
0.008000
41
0.008000
0
VERTEX
8
0
10
-2.569000
20
-0.252000
0
VERTEX
8
0
10
-2.169000
20
-0.252000
0
VERTEX
8
0
10
-2.169000
20
-0.152000
0
VERTEX
8
0
10
-2.569000
20
-0.152000
0
VERTEX
8
0
10
-2.569000
20
-0.252000
0
SEQEND
8
0
0
TEXT
8
12632256
10
-2.469000
20
-0.310000
40
0.048000
41
1.041667
1
BLUE
0
POLYLINE
8
0
66
1
40
0.008000
41
0.008000
0
VERTEX
8
0
10
1.860000
20
1.548000
0
VERTEX
8
0
10
1.960000
20
1.548000
0
VERTEX
8
0
10
1.960000
20
1.848000
0
VERTEX
8
0
10
1.860000
20
1.848000
0
VERTEX
8
0
10
1.860000
20
1.548000
0
SEQEND
8
0
0
TEXT
8
12632256
10
1.843000
20
1.633000
40
0.048000
41
1.041667
50
90.000000
1
LCD
0
POLYLINE
8
0
66
1
40
0.008000
41
0.008000
0
VERTEX
8
0
10
-2.546000
20
-0.657000
0
VERTEX
8
0
10
-2.146000
20
-0.657000
0
VERTEX
8
0
10
-2.146000
20
-0.557000
0
VERTEX
8
0
10
-2.546000
20
-0.557000
0
VERTEX
8
0
10
-2.546000
20
-0.657000
0
SEQEND
8
0
0
TEXT
8
12632256
10
-2.544000
20
-0.555000
40
0.048000
41
1.041667
1
CON_BAT1
0
POLYLINE
8
0
66
1
40
0.008000
41
0.008000
0
VERTEX
8
0
10
2.141000
20
-0.277000
0
VERTEX
8
0
10
2.541000
20
-0.277000
0
VERTEX
8
0
10
2.541000
20
-0.177000
0
VERTEX
8
0
10
2.141000
20
-0.177000
0
VERTEX
8
0
10
2.141000
20
-0.277000
0
SEQEND
8
0
0
TEXT
8
12632256
10
2.141000
20
-0.167000
40
0.048000
41
1.041667
1
CON_BAT2
0
POLYLINE
8
0
66
1
40
0.008000
41
0.008000
0
VERTEX
8
0
10
-1.675000
20
2.448000
0
VERTEX
8
0
10
-1.375000
20
2.448000
0
VERTEX
8
0
10
-1.375000
20
2.548000
0
VERTEX
8
0
10
-1.675000
20
2.548000
0
VERTEX
8
0
10
-1.675000
20
2.448000
0
SEQEND
8
0
0
POLYLINE
8
0
66
1
40
0.008000
41
0.008000
0
VERTEX
8
0
10
1.240000
20
2.418000
0
VERTEX
8
0
10
1.540000
20
2.418000
0
VERTEX
8
0
10
1.540000
20
2.518000
0
VERTEX
8
0
10
1.240000
20
2.518000
0
VERTEX
8
0
10
1.240000
20
2.418000
0
SEQEND
8
0
0
POLYLINE
8
0
66
1
40
0.008000
41
0.008000
0
VERTEX
8
0
10
-2.569000
20
-0.833000
0
VERTEX
8
0
10
-2.369000
20
-0.833000
0
VERTEX
8
0
10
-2.369000
20
-0.733000
0
VERTEX
8
0
10
-2.569000
20
-0.733000
0
VERTEX
8
0
10
-2.569000
20
-0.833000
0
SEQEND
8
0
0
TEXT
8
12632256
10
-2.653000
20
-0.925000
40
0.040000
41
1.000000
1
UBEC-IN--OUT
0
POLYLINE
8
0
66
1
40
0.008000
41
0.008000
0
VERTEX
8
0
10
-2.337000
20
-0.872000
0
VERTEX
8
0
10
-2.137000
20
-0.872000
0
VERTEX
8
0
10
-2.137000
20
-0.772000
0
VERTEX
8
0
10
-2.337000
20
-0.772000
0
VERTEX
8
0
10
-2.337000
20
-0.872000
0
SEQEND
8
0
0
POLYLINE
8
0
66
1
40
0.008000
41
0.008000
0
VERTEX
8
0
10
1.428000
20
1.893000
0
VERTEX
8
0
10
1.628000
20
1.893000
0
VERTEX
8
0
10
1.628000
20
1.993000
0
VERTEX
8
0
10
1.428000
20
1.993000
0
VERTEX
8
0
10
1.428000
20
1.893000
0
SEQEND
8
0
0
POLYLINE
8
0
66
1
40
0.008000
41
0.008000
0
VERTEX
8
0
10
1.433000
20
1.748000
0
VERTEX
8
0
10
1.633000
20
1.748000
0
VERTEX
8
0
10
1.633000
20
1.848000
0
VERTEX
8
0
10
1.433000
20
1.848000
0
VERTEX
8
0
10
1.433000
20
1.748000
0
SEQEND
8
0
0
POLYLINE
8
0
66
1
40
0.008000
41
0.008000
0
VERTEX
8
0
10
1.428000
20
2.043000
0
VERTEX
8
0
10
1.628000
20
2.043000
0
VERTEX
8
0
10
1.628000
20
2.143000
0
VERTEX
8
0
10
1.428000
20
2.143000
0
VERTEX
8
0
10
1.428000
20
2.043000
0
SEQEND
8
0
0
TEXT
8
12632256
10
1.428000
20
2.153000
40
0.048000
41
1.041667
1
BOT3
0
POLYLINE
8
0
66
1
40
0.008000
41
0.008000
0
VERTEX
8
0
10
1.433000
20
1.488000
0
VERTEX
8
0
10
1.633000
20
1.488000
0
VERTEX
8
0
10
1.633000
20
1.588000
0
VERTEX
8
0
10
1.433000
20
1.588000
0
VERTEX
8
0
10
1.433000
20
1.488000
0
SEQEND
8
0
0
POLYLINE
8
0
66
1
40
0.008000
41
0.008000
0
VERTEX
8
0
10
1.710000
20
1.833000
0
VERTEX
8
0
10
1.710000
20
1.860000
0
SEQEND
8
0
0
POLYLINE
8
0
66
1
40
0.008000
41
0.008000
0
VERTEX
8
0
10
1.758000
20
1.833000
0
VERTEX
8
0
10
1.758000
20
1.861000
0
SEQEND
8
0
0
POLYLINE
8
0
66
1
40
0.008000
41
0.008000
0
VERTEX
8
0
10
1.710000
20
2.033000
0
VERTEX
8
0
10
1.710000
20
2.060000
0
SEQEND
8
0
0
POLYLINE
8
0
66
1
40
0.008000
41
0.008000
0
VERTEX
8
0
10
1.758000
20
2.033000
0
VERTEX
8
0
10
1.758000
20
2.061000
0
SEQEND
8
0
0
POLYLINE
8
0
66
1
40
0.008000
41
0.008000
0
VERTEX
8
0
10
1.308000
20
2.070000
0
VERTEX
8
0
10
1.281000
20
2.070000
0
SEQEND
8
0
0
POLYLINE
8
0
66
1
40
0.008000
41
0.008000
0
VERTEX
8
0
10
1.308000
20
2.118000
0
VERTEX
8
0
10
1.280000
20
2.118000
0
SEQEND
8
0
0
POLYLINE
8
0
66
1
40
0.008000
41
0.008000
0
VERTEX
8
0
10
1.617000
20
2.266000
0
VERTEX
8
0
10
1.644000
20
2.266000
0
SEQEND
8
0
0
POLYLINE
8
0
66
1
40
0.008000
41
0.008000
0
VERTEX
8
0
10
1.617000
20
2.218000
0
VERTEX
8
0
10
1.645000
20
2.218000
0
SEQEND
8
0
0
POLYLINE
8
0
66
1
40
0.008000
41
0.008000
0
VERTEX
8
0
10
1.756000
20
1.653000
0
VERTEX
8
0
10
1.756000
20
1.626000
0
SEQEND
8
0
0
POLYLINE
8
0
66
1
40
0.008000
41
0.008000
0
VERTEX
8
0
10
1.708000
20
1.653000
0
VERTEX
8
0
10
1.708000
20
1.625000
0
SEQEND
8
0
0
POLYLINE
8
0
66
1
40
0.008000
41
0.008000
0
VERTEX
8
0
10
1.286000
20
1.709000
0
VERTEX
8
0
10
1.286000
20
1.682000
0
SEQEND
8
0
0
POLYLINE
8
0
66
1
40
0.008000
41
0.008000
0
VERTEX
8
0
10
1.238000
20
1.709000
0
VERTEX
8
0
10
1.238000
20
1.681000
0
SEQEND
8
0
0
POLYLINE
8
0
66
1
40
0.007000
41
0.007000
0
VERTEX
8
0
10
1.294000
20
1.989000
0
VERTEX
8
0
10
1.294000
20
1.957000
0
SEQEND
8
0
0
POLYLINE
8
0
66
1
40
0.007000
41
0.007000
0
VERTEX
8
0
10
1.526000
20
1.417000
0
VERTEX
8
0
10
1.526000
20
1.449000
0
SEQEND
8
0
0
POLYLINE
8
0
66
1
40
0.008000
41
0.008000
0
VERTEX
8
0
10
-0.855000
20
1.080000
0
VERTEX
8
0
10
-0.882000
20
1.080000
0
SEQEND
8
0
0
POLYLINE
8
0
66
1
40
0.008000
41
0.008000
0
VERTEX
8
0
10
-0.855000
20
1.128000
0
VERTEX
8
0
10
-0.883000
20
1.128000
0
SEQEND
8
0
0
POLYLINE
8
0
66
1
40
0.008000
41
0.008000
0
VERTEX
8
0
10
-0.655000
20
1.080000
0
VERTEX
8
0
10
-0.682000
20
1.080000
0
SEQEND
8
0
0
POLYLINE
8
0
66
1
40
0.008000
41
0.008000
0
VERTEX
8
0
10
-0.655000
20
1.128000
0
VERTEX
8
0
10
-0.683000
20
1.128000
0
SEQEND
8
0
0
POLYLINE
8
0
66
1
40
0.008000
41
0.008000
0
VERTEX
8
0
10
-0.816000
20
1.249000
0
VERTEX
8
0
10
-0.851000
20
1.249000
0
SEQEND
8
0
0
POLYLINE
8
0
66
1
40
0.008000
41
0.008000
0
VERTEX
8
0
10
-0.858000
20
1.205000
0
VERTEX
8
0
10
-0.886000
20
1.205000
0
SEQEND
8
0
0
POLYLINE
8
0
66
1
40
0.008000
41
0.008000
0
VERTEX
8
0
10
-0.816000
20
1.249000
0
VERTEX
8
0
10
-0.816000
20
1.213000
0
SEQEND
8
0
0
POLYLINE
8
0
66
1
40
0.008000
41
0.008000
0
VERTEX
8
0
10
-0.930000
20
1.212000
0
VERTEX
8
0
10
-0.930000
20
1.249000
0
VERTEX
8
0
10
-0.896000
20
1.249000
0
SEQEND
8
0
0
POLYLINE
8
0
66
1
40
0.008000
41
0.008000
0
VERTEX
8
0
10
-0.614000
20
1.249000
0
VERTEX
8
0
10
-0.649000
20
1.249000
0
SEQEND
8
0
0
POLYLINE
8
0
66
1
40
0.008000
41
0.008000
0
VERTEX
8
0
10
-0.656000
20
1.205000
0
VERTEX
8
0
10
-0.684000
20
1.205000
0
SEQEND
8
0
0
POLYLINE
8
0
66
1
40
0.008000
41
0.008000
0
VERTEX
8
0
10
-0.614000
20
1.249000
0
VERTEX
8
0
10
-0.614000
20
1.213000
0
SEQEND
8
0
0
POLYLINE
8
0
66
1
40
0.008000
41
0.008000
0
VERTEX
8
0
10
-0.728000
20
1.212000
0
VERTEX
8
0
10
-0.728000
20
1.249000
0
VERTEX
8
0
10
-0.694000
20
1.249000
0
SEQEND
8
0
0
POLYLINE
8
0
66
1
40
0.008000
41
0.008000
0
VERTEX
8
0
10
-0.414000
20
1.249000
0
VERTEX
8
0
10
-0.449000
20
1.249000
0
SEQEND
8
0
0
POLYLINE
8
0
66
1
40
0.008000
41
0.008000
0
VERTEX
8
0
10
-0.456000
20
1.205000
0
VERTEX
8
0
10
-0.484000
20
1.205000
0
SEQEND
8
0
0
POLYLINE
8
0
66
1
40
0.008000
41
0.008000
0
VERTEX
8
0
10
-0.414000
20
1.249000
0
VERTEX
8
0
10
-0.414000
20
1.213000
0
SEQEND
8
0
0
POLYLINE
8
0
66
1
40
0.008000
41
0.008000
0
VERTEX
8
0
10
-0.528000
20
1.212000
0
VERTEX
8
0
10
-0.528000
20
1.249000
0
VERTEX
8
0
10
-0.494000
20
1.249000
0
SEQEND
8
0
0
POLYLINE
8
0
66
1
40
0.008000
41
0.008000
0
VERTEX
8
0
10
-0.214000
20
1.249000
0
VERTEX
8
0
10
-0.249000
20
1.249000
0
SEQEND
8
0
0
POLYLINE
8
0
66
1
40
0.008000
41
0.008000
0
VERTEX
8
0
10
-0.256000
20
1.205000
0
VERTEX
8
0
10
-0.284000
20
1.205000
0
SEQEND
8
0
0
POLYLINE
8
0
66
1
40
0.008000
41
0.008000
0
VERTEX
8
0
10
-0.214000
20
1.249000
0
VERTEX
8
0
10
-0.214000
20
1.213000
0
SEQEND
8
0
0
POLYLINE
8
0
66
1
40
0.008000
41
0.008000
0
VERTEX
8
0
10
-0.328000
20
1.212000
0
VERTEX
8
0
10
-0.328000
20
1.249000
0
VERTEX
8
0
10
-0.294000
20
1.249000
0
SEQEND
8
0
0
POLYLINE
8
0
66
1
40
0.008000
41
0.008000
0
VERTEX
8
0
10
-0.014000
20
1.249000
0
VERTEX
8
0
10
-0.049000
20
1.249000
0
SEQEND
8
0
0
POLYLINE
8
0
66
1
40
0.008000
41
0.008000
0
VERTEX
8
0
10
-0.056000
20
1.205000
0
VERTEX
8
0
10
-0.084000
20
1.205000
0
SEQEND
8
0
0
POLYLINE
8
0
66
1
40
0.008000
41
0.008000
0
VERTEX
8
0
10
-0.014000
20
1.249000
0
VERTEX
8
0
10
-0.014000
20
1.213000
0
SEQEND
8
0
0
POLYLINE
8
0
66
1
40
0.008000
41
0.008000
0
VERTEX
8
0
10
-0.128000
20
1.212000
0
VERTEX
8
0
10
-0.128000
20
1.249000
0
VERTEX
8
0
10
-0.094000
20
1.249000
0
SEQEND
8
0
0
POLYLINE
8
0
66
1
40
0.008000
41
0.008000
0
VERTEX
8
0
10
-0.648000
20
1.413000
0
VERTEX
8
0
10
-0.648000
20
1.386000
0
SEQEND
8
0
0
POLYLINE
8
0
66
1
40
0.008000
41
0.008000
0
VERTEX
8
0
10
-0.696000
20
1.413000
0
VERTEX
8
0
10
-0.696000
20
1.385000
0
SEQEND
8
0
0
POLYLINE
8
0
66
1
40
0.008000
41
0.008000
0
VERTEX
8
0
10
-0.929000
20
1.450000
0
VERTEX
8
0
10
-0.902000
20
1.450000
0
SEQEND
8
0
0
POLYLINE
8
0
66
1
40
0.008000
41
0.008000
0
VERTEX
8
0
10
-0.929000
20
1.402000
0
VERTEX
8
0
10
-0.901000
20
1.402000
0
SEQEND
8
0
0
POLYLINE
8
0
66
1
40
0.008000
41
0.008000
0
VERTEX
8
0
10
-0.448000
20
1.413000
0
VERTEX
8
0
10
-0.448000
20
1.386000
0
SEQEND
8
0
0
POLYLINE
8
0
66
1
40
0.008000
41
0.008000
0
VERTEX
8
0
10
-0.496000
20
1.413000
0
VERTEX
8
0
10
-0.496000
20
1.385000
0
SEQEND
8
0
0
POLYLINE
8
0
66
1
40
0.008000
41
0.008000
0
VERTEX
8
0
10
-0.248000
20
1.413000
0
VERTEX
8
0
10
-0.248000
20
1.386000
0
SEQEND
8
0
0
POLYLINE
8
0
66
1
40
0.008000
41
0.008000
0
VERTEX
8
0
10
-0.296000
20
1.413000
0
VERTEX
8
0
10
-0.296000
20
1.385000
0
SEQEND
8
0
0
POLYLINE
8
0
66
1
40
0.008000
41
0.008000
0
VERTEX
8
0
10
-0.482000
20
1.126000
0
VERTEX
8
0
10
-0.455000
20
1.126000
0
SEQEND
8
0
0
POLYLINE
8
0
66
1
40
0.008000
41
0.008000
0
VERTEX
8
0
10
-0.482000
20
1.078000
0
VERTEX
8
0
10
-0.454000
20
1.078000
0
SEQEND
8
0
0
POLYLINE
8
0
66
1
40
0.008000
41
0.008000
0
VERTEX
8
0
10
-0.282000
20
1.126000
0
VERTEX
8
0
10
-0.255000
20
1.126000
0
SEQEND
8
0
0
POLYLINE
8
0
66
1
40
0.008000
41
0.008000
0
VERTEX
8
0
10
-0.282000
20
1.078000
0
VERTEX
8
0
10
-0.254000
20
1.078000
0
SEQEND
8
0
0
POLYLINE
8
0
66
1
40
0.008000
41
0.008000
0
VERTEX
8
0
10
-0.082000
20
1.126000
0
VERTEX
8
0
10
-0.055000
20
1.126000
0
SEQEND
8
0
0
POLYLINE
8
0
66
1
40
0.008000
41
0.008000
0
VERTEX
8
0
10
-0.082000
20
1.078000
0
VERTEX
8
0
10
-0.054000
20
1.078000
0
SEQEND
8
0
0
POLYLINE
8
0
66
1
40
0.008000
41
0.008000
0
VERTEX
8
0
10
-0.048000
20
1.413000
0
VERTEX
8
0
10
-0.048000
20
1.386000
0
SEQEND
8
0
0
POLYLINE
8
0
66
1
40
0.008000
41
0.008000
0
VERTEX
8
0
10
-0.096000
20
1.413000
0
VERTEX
8
0
10
-0.096000
20
1.385000
0
SEQEND
8
0
0
POLYLINE
8
0
66
1
40
0.008000
41
0.008000
0
VERTEX
8
0
10
-2.091000
20
-0.834000
0
VERTEX
8
0
10
-1.991000
20
-0.834000
0
VERTEX
8
0
10
-1.991000
20
-0.334000
0
VERTEX
8
0
10
-2.091000
20
-0.334000
0
VERTEX
8
0
10
-2.091000
20
-0.834000
0
SEQEND
8
0
0
POLYLINE
8
0
66
1
40
0.008000
41
0.008000
0
VERTEX
8
0
10
-0.938000
20
2.732000
0
VERTEX
8
0
10
-0.920000
20
2.732000
0
SEQEND
8
0
0
POLYLINE
8
0
66
1
40
0.008000
41
0.008000
0
VERTEX
8
0
10
-0.938000
20
2.700000
0
VERTEX
8
0
10
-0.920000
20
2.700000
0
SEQEND
8
0
0
POLYLINE
8
0
66
1
40
0.008000
41
0.008000
0
VERTEX
8
0
10
-1.450000
20
2.740000
0
VERTEX
8
0
10
-1.432000
20
2.740000
0
SEQEND
8
0
0
POLYLINE
8
0
66
1
40
0.008000
41
0.008000
0
VERTEX
8
0
10
-1.450000
20
2.708000
0
VERTEX
8
0
10
-1.432000
20
2.708000
0
SEQEND
8
0
0
POLYLINE
8
0
66
1
40
0.008000
41
0.008000
0
VERTEX
8
0
10
1.143000
20
2.466000
0
VERTEX
8
0
10
1.143000
20
2.448000
0
SEQEND
8
0
0
POLYLINE
8
0
66
1
40
0.008000
41
0.008000
0
VERTEX
8
0
10
1.111000
20
2.466000
0
VERTEX
8
0
10
1.111000
20
2.448000
0
SEQEND
8
0
0
POLYLINE
8
0
66
1
40
0.008000
41
0.008000
0
VERTEX
8
0
10
1.436000
20
2.787000
0
VERTEX
8
0
10
1.418000
20
2.787000
0
SEQEND
8
0
0
POLYLINE
8
0
66
1
40
0.008000
41
0.008000
0
VERTEX
8
0
10
1.436000
20
2.819000
0
VERTEX
8
0
10
1.418000
20
2.819000
0
SEQEND
8
0
0
POLYLINE
8
0
66
1
40
0.008000
41
0.008000
0
VERTEX
8
0
10
-1.460000
20
1.686000
0
VERTEX
8
0
10
-1.433000
20
1.686000
0
SEQEND
8
0
0
POLYLINE
8
0
66
1
40
0.008000
41
0.008000
0
VERTEX
8
0
10
-1.460000
20
1.638000
0
VERTEX
8
0
10
-1.432000
20
1.638000
0
SEQEND
8
0
0
POLYLINE
8
0
66
1
40
0.008000
41
0.008000
0
VERTEX
8
0
10
-1.112000
20
1.473000
0
VERTEX
8
0
10
-1.112000
20
1.446000
0
SEQEND
8
0
0
POLYLINE
8
0
66
1
40
0.008000
41
0.008000
0
VERTEX
8
0
10
-1.160000
20
1.473000
0
VERTEX
8
0
10
-1.160000
20
1.445000
0
SEQEND
8
0
0
POLYLINE
8
0
66
1
40
0.008000
41
0.008000
0
VERTEX
8
0
10
1.958000
20
1.979000
0
VERTEX
8
0
10
1.976000
20
1.979000
0
SEQEND
8
0
0
POLYLINE
8
0
66
1
40
0.008000
41
0.008000
0
VERTEX
8
0
10
1.958000
20
1.947000
0
VERTEX
8
0
10
1.976000
20
1.947000
0
SEQEND
8
0
0
POLYLINE
8
0
66
1
40
0.008000
41
0.008000
0
VERTEX
8
0
10
1.718000
20
2.354000
0
VERTEX
8
0
10
1.718000
20
2.372000
0
SEQEND
8
0
0
POLYLINE
8
0
66
1
40
0.008000
41
0.008000
0
VERTEX
8
0
10
1.750000
20
2.354000
0
VERTEX
8
0
10
1.750000
20
2.372000
0
SEQEND
8
0
0
POLYLINE
8
0
66
1
40
0.008000
41
0.008000
0
VERTEX
8
0
10
0.164000
20
1.469000
0
VERTEX
8
0
10
0.164000
20
1.451000
0
SEQEND
8
0
0
POLYLINE
8
0
66
1
40
0.008000
41
0.008000
0
VERTEX
8
0
10
0.132000
20
1.469000
0
VERTEX
8
0
10
0.132000
20
1.451000
0
SEQEND
8
0
0
POLYLINE
8
0
66
1
40
0.008000
41
0.008000
0
VERTEX
8
0
10
-0.256000
20
-2.867000
0
VERTEX
8
0
10
-0.238000
20
-2.867000
0
SEQEND
8
0
0
POLYLINE
8
0
66
1
40
0.008000
41
0.008000
0
VERTEX
8
0
10
-0.256000
20
-2.899000
0
VERTEX
8
0
10
-0.238000
20
-2.899000
0
SEQEND
8
0
0
POLYLINE
8
0
66
1
40
0.008000
41
0.008000
0
VERTEX
8
0
10
-0.712000
20
1.608000
0
VERTEX
8
0
10
-0.712000
20
1.590000
0
SEQEND
8
0
0
POLYLINE
8
0
66
1
40
0.008000
41
0.008000
0
VERTEX
8
0
10
-0.744000
20
1.608000
0
VERTEX
8
0
10
-0.744000
20
1.590000
0
SEQEND
8
0
0
POLYLINE
8
0
66
1
40
0.008000
41
0.008000
0
VERTEX
8
0
10
-0.829000
20
1.606000
0
VERTEX
8
0
10
-0.829000
20
1.588000
0
SEQEND
8
0
0
POLYLINE
8
0
66
1
40
0.008000
41
0.008000
0
VERTEX
8
0
10
-0.861000
20
1.606000
0
VERTEX
8
0
10
-0.861000
20
1.588000
0
SEQEND
8
0
0
POLYLINE
8
0
66
1
40
0.008000
41
0.008000
0
VERTEX
8
0
10
-0.442000
20
1.601000
0
VERTEX
8
0
10
-0.442000
20
1.574000
0
SEQEND
8
0
0
POLYLINE
8
0
66
1
40
0.008000
41
0.008000
0
VERTEX
8
0
10
-0.490000
20
1.601000
0
VERTEX
8
0
10
-0.490000
20
1.573000
0
SEQEND
8
0
0
POLYLINE
8
0
66
1
40
0.008000
41
0.008000
0
VERTEX
8
0
10
-0.250000
20
1.598000
0
VERTEX
8
0
10
-0.250000
20
1.580000
0
SEQEND
8
0
0
POLYLINE
8
0
66
1
40
0.008000
41
0.008000
0
VERTEX
8
0
10
-0.282000
20
1.598000
0
VERTEX
8
0
10
-0.282000
20
1.580000
0
SEQEND
8
0
0
POLYLINE
8
0
66
1
40
0.008000
41
0.008000
0
VERTEX
8
0
10
0.006000
20
1.580000
0
VERTEX
8
0
10
0.006000
20
1.562000
0
SEQEND
8
0
0
POLYLINE
8
0
66
1
40
0.008000
41
0.008000
0
VERTEX
8
0
10
-0.025000
20
1.580000
0
VERTEX
8
0
10
-0.025000
20
1.562000
0
SEQEND
8
0
0
POLYLINE
8
0
66
1
40
0.008000
41
0.008000
0
VERTEX
8
0
10
-0.927000
20
1.569000
0
VERTEX
8
0
10
-0.927000
20
1.587000
0
SEQEND
8
0
0
POLYLINE
8
0
66
1
40
0.008000
41
0.008000
0
VERTEX
8
0
10
-0.895000
20
1.569000
0
VERTEX
8
0
10
-0.895000
20
1.587000
0
SEQEND
8
0
0
POLYLINE
8
0
66
1
40
0.008000
41
0.008000
0
VERTEX
8
0
10
-0.095000
20
1.552000
0
VERTEX
8
0
10
-0.095000
20
1.570000
0
SEQEND
8
0
0
POLYLINE
8
0
66
1
40
0.008000
41
0.008000
0
VERTEX
8
0
10
-0.063000
20
1.552000
0
VERTEX
8
0
10
-0.063000
20
1.570000
0
SEQEND
8
0
0
POLYLINE
8
0
66
1
40
0.008000
41
0.008000
0
VERTEX
8
0
10
-0.427000
20
1.573000
0
VERTEX
8
0
10
-0.427000
20
1.600000
0
SEQEND
8
0
0
POLYLINE
8
0
66
1
40
0.008000
41
0.008000
0
VERTEX
8
0
10
-0.379000
20
1.573000
0
VERTEX
8
0
10
-0.379000
20
1.601000
0
SEQEND
8
0
0
POLYLINE
8
0
66
1
40
0.008000
41
0.008000
0
VERTEX
8
0
10
-0.221000
20
1.566000
0
VERTEX
8
0
10
-0.221000
20
1.584000
0
SEQEND
8
0
0
POLYLINE
8
0
66
1
40
0.008000
41
0.008000
0
VERTEX
8
0
10
-0.189000
20
1.566000
0
VERTEX
8
0
10
-0.189000
20
1.584000
0
SEQEND
8
0
0
POLYLINE
8
0
66
1
40
0.008000
41
0.008000
0
VERTEX
8
0
10
-0.145000
20
-2.710000
0
VERTEX
8
0
10
-0.145000
20
-2.728000
0
SEQEND
8
0
0
POLYLINE
8
0
66
1
40
0.008000
41
0.008000
0
VERTEX
8
0
10
-0.177000
20
-2.710000
0
VERTEX
8
0
10
-0.177000
20
-2.728000
0
SEQEND
8
0
0
POLYLINE
8
0
66
1
40
0.008000
41
0.008000
0
VERTEX
8
0
10
-0.673000
20
1.579000
0
VERTEX
8
0
10
-0.673000
20
1.597000
0
SEQEND
8
0
0
POLYLINE
8
0
66
1
40
0.008000
41
0.008000
0
VERTEX
8
0
10
-0.641000
20
1.579000
0
VERTEX
8
0
10
-0.641000
20
1.597000
0
SEQEND
8
0
0
POLYLINE
8
0
66
1
40
0.008000
41
0.008000
0
VERTEX
8
0
10
1.111000
20
2.286000
0
VERTEX
8
0
10
1.111000
20
2.304000
0
SEQEND
8
0
0
POLYLINE
8
0
66
1
40
0.008000
41
0.008000
0
VERTEX
8
0
10
1.143000
20
2.286000
0
VERTEX
8
0
10
1.143000
20
2.304000
0
SEQEND
8
0
0
POLYLINE
8
0
66
1
40
0.008000
41
0.008000
0
VERTEX
8
0
10
-1.142000
20
1.648000
0
VERTEX
8
0
10
-1.160000
20
1.648000
0
SEQEND
8
0
0
POLYLINE
8
0
66
1
40
0.008000
41
0.008000
0
VERTEX
8
0
10
-1.142000
20
1.680000
0
VERTEX
8
0
10
-1.160000
20
1.680000
0
SEQEND
8
0
0
POLYLINE
8
0
66
1
40
0.008000
41
0.008000
0
VERTEX
8
0
10
1.936000
20
1.391000
0
VERTEX
8
0
10
1.954000
20
1.391000
0
SEQEND
8
0
0
POLYLINE
8
0
66
1
40
0.008000
41
0.008000
0
VERTEX
8
0
10
1.936000
20
1.359000
0
VERTEX
8
0
10
1.954000
20
1.359000
0
SEQEND
8
0
0
POLYLINE
8
0
66
1
40
0.008000
41
0.008000
0
VERTEX
8
0
10
0.052000
20
1.128000
0
VERTEX
8
0
10
0.052000
20
1.146000
0
SEQEND
8
0
0
POLYLINE
8
0
66
1
40
0.008000
41
0.008000
0
VERTEX
8
0
10
0.084000
20
1.128000
0
VERTEX
8
0
10
0.084000
20
1.146000
0
SEQEND
8
0
0
CIRCLE
8
12632256
10
0.030000
20
2.219000
40
0.623000
0
POLYLINE
8
0
66
1
40
0.008000
41
0.008000
0
VERTEX
8
0
10
-0.162000
20
2.581000
0
VERTEX
8
0
10
0.237000
20
2.581000
0
VERTEX
8
0
10
0.237000
20
2.681000
0
VERTEX
8
0
10
-0.162000
20
2.681000
0
VERTEX
8
0
10
-0.162000
20
2.581000
0
SEQEND
8
0
0
POLYLINE
8
0
66
1
40
0.008000
41
0.008000
0
VERTEX
8
0
10
-0.162000
20
2.681000
0
VERTEX
8
0
10
0.237000
20
2.681000
0
VERTEX
8
0
10
0.237000
20
2.781000
0
VERTEX
8
0
10
-0.162000
20
2.781000
0
VERTEX
8
0
10
-0.162000
20
2.681000
0
SEQEND
8
0
0
TEXT
8
12632256
10
0.712000
20
2.094000
40
0.048000
41
1.041667
50
90.000000
1
RATON
0
CIRCLE
8
12632256
10
0.852000
20
-2.775000
40
0.004000
0
POLYLINE
8
0
66
1
40
0.007000
41
0.007000
0
VERTEX
8
0
10
0.878000
20
-2.782000
0
VERTEX
8
0
10
0.878000
20
-2.756000
0
VERTEX
8
0
10
1.177000
20
-2.756000
0
VERTEX
8
0
10
1.177000
20
-2.782000
0
SEQEND
8
0
0
POLYLINE
8
0
66
1
40
0.007000
41
0.007000
0
VERTEX
8
0
10
0.878000
20
-2.910000
0
VERTEX
8
0
10
0.878000
20
-2.937000
0
VERTEX
8
0
10
1.177000
20
-2.937000
0
VERTEX
8
0
10
1.177000
20
-2.910000
0
SEQEND
8
0
0
TEXT
8
12632256
10
0.915000
20
-2.801000
40
0.048000
41
1.041667
1
C1
0
CIRCLE
8
12632256
10
0.084000
20
-2.005000
40
0.004000
0
POLYLINE
8
0
66
1
40
0.007000
41
0.007000
0
VERTEX
8
0
10
0.077000
20
-2.031000
0
VERTEX
8
0
10
0.103000
20
-2.031000
0
VERTEX
8
0
10
0.103000
20
-2.330000
0
VERTEX
8
0
10
0.077000
20
-2.330000
0
SEQEND
8
0
0
POLYLINE
8
0
66
1
40
0.007000
41
0.007000
0
VERTEX
8
0
10
-0.050000
20
-2.031000
0
VERTEX
8
0
10
-0.077000
20
-2.031000
0
VERTEX
8
0
10
-0.077000
20
-2.330000
0
VERTEX
8
0
10
-0.050000
20
-2.330000
0
SEQEND
8
0
0
TEXT
8
12632256
10
0.106000
20
-2.167000
40
0.048000
41
1.041667
50
90.000000
1
C2
0
CIRCLE
8
12632256
10
-1.961000
20
-2.789000
40
0.004000
0
POLYLINE
8
0
66
1
40
0.007000
41
0.007000
0
VERTEX
8
0
10
-1.935000
20
-2.796000
0
VERTEX
8
0
10
-1.935000
20
-2.769000
0
VERTEX
8
0
10
-1.636000
20
-2.769000
0
VERTEX
8
0
10
-1.636000
20
-2.796000
0
SEQEND
8
0
0
POLYLINE
8
0
66
1
40
0.007000
41
0.007000
0
VERTEX
8
0
10
-1.935000
20
-2.924000
0
VERTEX
8
0
10
-1.935000
20
-2.950000
0
VERTEX
8
0
10
-1.636000
20
-2.950000
0
VERTEX
8
0
10
-1.636000
20
-2.924000
0
SEQEND
8
0
0
TEXT
8
12632256
10
-1.899000
20
-2.815000
40
0.048000
41
1.041667
1
C3
0
CIRCLE
8
12632256
10
-1.557000
20
2.330000
40
0.004000
0
POLYLINE
8
0
66
1
40
0.007000
41
0.007000
0
VERTEX
8
0
10
-1.532000
20
2.323000
0
VERTEX
8
0
10
-1.532000
20
2.349000
0
VERTEX
8
0
10
-1.233000
20
2.349000
0
VERTEX
8
0
10
-1.233000
20
2.323000
0
SEQEND
8
0
0
POLYLINE
8
0
66
1
40
0.007000
41
0.007000
0
VERTEX
8
0
10
-1.532000
20
2.195000
0
VERTEX
8
0
10
-1.532000
20
2.168000
0
VERTEX
8
0
10
-1.233000
20
2.168000
0
VERTEX
8
0
10
-1.233000
20
2.195000
0
SEQEND
8
0
0
CIRCLE
8
12632256
10
1.234000
20
2.724000
40
0.004000
0
POLYLINE
8
0
66
1
40
0.007000
41
0.007000
0
VERTEX
8
0
10
1.259000
20
2.717000
0
VERTEX
8
0
10
1.259000
20
2.743000
0
VERTEX
8
0
10
1.559000
20
2.743000
0
VERTEX
8
0
10
1.559000
20
2.717000
0
SEQEND
8
0
0
POLYLINE
8
0
66
1
40
0.007000
41
0.007000
0
VERTEX
8
0
10
1.259000
20
2.589000
0
VERTEX
8
0
10
1.259000
20
2.562000
0
VERTEX
8
0
10
1.559000
20
2.562000
0
VERTEX
8
0
10
1.559000
20
2.589000
0
SEQEND
8
0
0
TEXT
8
12632256
10
1.296000
20
2.698000
40
0.048000
41
1.041667
1
C7
0
CIRCLE
8
12632256
10
1.726000
20
1.423000
40
0.004000
0
POLYLINE
8
0
66
1
40
0.007000
41
0.007000
0
VERTEX
8
0
10
1.719000
20
1.397000
0
VERTEX
8
0
10
1.745000
20
1.397000
0
VERTEX
8
0
10
1.745000
20
1.098000
0
VERTEX
8
0
10
1.719000
20
1.098000
0
SEQEND
8
0
0
POLYLINE
8
0
66
1
40
0.007000
41
0.007000
0
VERTEX
8
0
10
1.591000
20
1.397000
0
VERTEX
8
0
10
1.564000
20
1.397000
0
VERTEX
8
0
10
1.564000
20
1.098000
0
VERTEX
8
0
10
1.591000
20
1.098000
0
SEQEND
8
0
0
POLYLINE
8
0
66
1
40
0.008000
41
0.008000
0
VERTEX
8
0
10
-0.107000
20
0.349000
0
VERTEX
8
0
10
-0.134000
20
0.349000
0
SEQEND
8
0
0
POLYLINE
8
0
66
1
40
0.008000
41
0.008000
0
VERTEX
8
0
10
-0.107000
20
0.397000
0
VERTEX
8
0
10
-0.135000
20
0.397000
0
SEQEND
8
0
0
POLYLINE
8
0
66
1
40
0.008000
41
0.008000
0
VERTEX
8
0
10
-0.109000
20
0.437000
0
VERTEX
8
0
10
-0.136000
20
0.437000
0
SEQEND
8
0
0
POLYLINE
8
0
66
1
40
0.008000
41
0.008000
0
VERTEX
8
0
10
-0.109000
20
0.485000
0
VERTEX
8
0
10
-0.137000
20
0.485000
0
SEQEND
8
0
0
POLYLINE
8
0
66
1
40
0.008000
41
0.008000
0
VERTEX
8
0
10
-2.042000
20
2.038000
0
VERTEX
8
0
10
-1.842000
20
2.038000
0
VERTEX
8
0
10
-1.842000
20
2.538000
0
VERTEX
8
0
10
-2.042000
20
2.538000
0
VERTEX
8
0
10
-2.042000
20
2.038000
0
SEQEND
8
0
0
POLYLINE
8
0
66
1
40
0.008000
41
0.008000
0
VERTEX
8
0
10
2.376000
20
-0.897000
0
VERTEX
8
0
10
2.576000
20
-0.897000
0
VERTEX
8
0
10
2.576000
20
-0.397000
0
VERTEX
8
0
10
2.376000
20
-0.397000
0
VERTEX
8
0
10
2.376000
20
-0.897000
0
SEQEND
8
0
0
TEXT
8
12632256
10
2.366000
20
-0.897000
40
0.048000
41
1.041667
50
90.000000
1
USBASP_SLV
0
ENDSEC
0
EOF

