  0
SECTION
  2
HEADER
  9
$ACADVER
  1
AC1009
  9
$INSBASE
 10
0.0
 20
0.0
 30
0.0
  9
$EXTMIN
 10
0.0
 20
0.0
 30
0.0
  9
$EXTMAX
 10
0.0
 20
0.0
 30
0.0
  0
ENDSEC
  0
SECTION
  2
TABLES
  0
TABLE
  2
VPORT
 70
0
  0
ENDTAB
  0
TABLE
  2
LTYPE
 70
1
  0
LTYPE
  2
CONTINUOUS
 70
0
  3
Solid line
 72
65
 73
0
 40
0.0
  0
ENDTAB
  0
TABLE
  2
LAYER
 70
1
  0
LAYER
  2
PYDXF
 70
64
 62
7
  6
continuous
  0
ENDTAB
  0
TABLE
  2
STYLE
 70
1
  0
STYLE
  2
STANDARD
 70
0
 40
0
 41
1.0
 50
0.0
 71
0
 42
1
 3
ARIAL.TTF
 4

  0
ENDTAB
  0
TABLE
  2
VIEW
 70
0
  0
ENDTAB
  0
ENDSEC
  0
SECTION
  2
BLOCKS
  0
BLOCK
  8
0
  2
SKETCH004
 70
0
 10
0.0
 20
0.0
 30
0.0
  3
SKETCH004
  0
POLYLINE
  8
0
 62
7
 70
1
 66
1
 10
0.0
 20
0.0
 30
0.0
  0
VERTEX
  8
0
 10
195.0
 20
1.0
  0
VERTEX
  8
0
 10
195.0
 20
191.0
  0
VERTEX
  8
0
 10
65.0
 20
191.0
  0
VERTEX
  8
0
 10
65.0
 20
161.0
  0
VERTEX
  8
0
 10
0.0
 20
161.0
  0
VERTEX
  8
0
 10
0.0
 20
31.0
  0
VERTEX
  8
0
 10
65.0
 20
31.0
  0
VERTEX
  8
0
 10
65.0
 20
1.0
  0
SEQEND
  8
0
  0
CIRCLE
  8
0
 62
7
 10
57.0
 20
135.0
 30
0.0
 40
1.5
  0
CIRCLE
  8
0
 62
7
 10
57.0
 20
95.0
 30
0.0
 40
1.5
  0
CIRCLE
  8
0
 62
7
 10
57.0
 20
55.0
 30
0.0
 40
1.5
  0
CIRCLE
  8
0
 62
7
 10
97.0
 20
55.0
 30
0.0
 40
1.5
  0
CIRCLE
  8
0
 62
7
 10
97.0
 20
95.0
 30
0.0
 40
1.5
  0
CIRCLE
  8
0
 62
7
 10
97.0
 20
135.0
 30
0.0
 40
1.5
  0
POLYLINE
  8
0
 62
7
 70
1
 66
1
 10
0.0
 20
0.0
 30
0.0
  0
VERTEX
  8
0
 10
169.5
 20
183.0
  0
VERTEX
  8
0
 10
177.0
 20
183.0
  0
VERTEX
  8
0
 10
177.0
 20
175.5
  0
VERTEX
  8
0
 10
169.5
 20
175.5
  0
SEQEND
  8
0
  0
POLYLINE
  8
0
 62
7
 70
1
 66
1
 10
0.0
 20
0.0
 30
0.0
  0
VERTEX
  8
0
 10
169.5
 20
16.5
  0
VERTEX
  8
0
 10
177.0
 20
16.5
  0
VERTEX
  8
0
 10
177.0
 20
9.0
  0
VERTEX
  8
0
 10
169.5
 20
9.0
  0
SEQEND
  8
0
  0
POLYLINE
  8
0
 62
7
 70
1
 66
1
 10
0.0
 20
0.0
 30
0.0
  0
VERTEX
  8
0
 10
162.5
 20
183.0
  0
VERTEX
  8
0
 10
155.0
 20
183.0
  0
VERTEX
  8
0
 10
155.0
 20
175.5
  0
VERTEX
  8
0
 10
162.5
 20
175.5
  0
SEQEND
  8
0
  0
POLYLINE
  8
0
 62
7
 70
1
 66
1
 10
0.0
 20
0.0
 30
0.0
  0
VERTEX
  8
0
 10
162.5
 20
16.5
  0
VERTEX
  8
0
 10
155.0
 20
16.5
  0
VERTEX
  8
0
 10
155.0
 20
9.0
  0
VERTEX
  8
0
 10
162.5
 20
9.0
  0
SEQEND
  8
0
  0
CIRCLE
  8
0
 62
7
 10
100.0
 20
159.0
 30
0.0
 40
1.5
  0
CIRCLE
  8
0
 62
7
 10
100.0
 20
31.0
 30
0.0
 40
1.5
  0
CIRCLE
  8
0
 62
7
 10
152.0
 20
31.0
 30
0.0
 40
1.5
  0
CIRCLE
  8
0
 62
7
 10
152.0
 20
159.0
 30
0.0
 40
1.5
  0
CIRCLE
  8
0
 62
7
 10
127.5
 20
168.0
 30
0.0
 40
1.5
  0
CIRCLE
  8
0
 62
7
 10
127.5
 20
22.0
 30
0.0
 40
1.5
  0
CIRCLE
  8
0
 62
7
 10
188.0
 20
160.5
 30
0.0
 40
1.5
  0
CIRCLE
  8
0
 62
7
 10
188.0
 20
141.5
 30
0.0
 40
1.5
  0
CIRCLE
  8
0
 62
7
 10
188.0
 20
50.5
 30
0.0
 40
1.5
  0
CIRCLE
  8
0
 62
7
 10
188.0
 20
31.5
 30
0.0
 40
1.5
  0
CIRCLE
  8
0
 62
7
 10
188.0
 20
104.5
 30
0.0
 40
1.5
  0
CIRCLE
  8
0
 62
7
 10
188.0
 20
85.5
 30
0.0
 40
1.5
  0
CIRCLE
  8
0
 62
7
 10
80.0
 20
170.0
 30
0.0
 40
1.5
  0
CIRCLE
  8
0
 62
7
 10
102.0
 20
170.0
 30
0.0
 40
1.5
  0
POLYLINE
  8
0
 62
7
 70
1
 66
1
 10
0.0
 20
0.0
 30
0.0
  0
VERTEX
  8
0
 10
5.0
 20
153.0
  0
VERTEX
  8
0
 10
12.5
 20
153.0
  0
VERTEX
  8
0
 10
12.5
 20
145.5
  0
VERTEX
  8
0
 10
5.0
 20
145.5
  0
SEQEND
  8
0
  0
POLYLINE
  8
0
 62
7
 70
1
 66
1
 10
0.0
 20
0.0
 30
0.0
  0
VERTEX
  8
0
 10
5.0
 20
46.5
  0
VERTEX
  8
0
 10
12.5
 20
46.5
  0
VERTEX
  8
0
 10
12.5
 20
39.0
  0
VERTEX
  8
0
 10
5.0
 20
39.0
  0
SEQEND
  8
0
  0
POLYLINE
  8
0
 62
7
 70
1
 66
1
 10
0.0
 20
0.0
 30
0.0
  0
VERTEX
  8
0
 10
18.12
 20
38.11
  0
VERTEX
  8
0
 10
18.12
 20
38.11
  0
SEQEND
  8
0
  0
CIRCLE
  8
0
 62
7
 10
16.62
 20
44.46
 30
0.0
 40
1.5
  0
CIRCLE
  8
0
 62
7
 10
16.62
 20
50.81
 30
0.0
 40
1.5
  0
CIRCLE
  8
0
 62
7
 10
16.62
 20
57.16
 30
0.0
 40
1.5
  0
CIRCLE
  8
0
 62
7
 10
16.62
 20
63.51
 30
0.0
 40
1.5
  0
CIRCLE
  8
0
 62
7
 10
16.62
 20
69.86
 30
0.0
 40
1.5
  0
CIRCLE
  8
0
 62
7
 10
16.62
 20
76.21
 30
0.0
 40
1.5
  0
CIRCLE
  8
0
 62
7
 10
48.37
 20
38.11
 30
0.0
 40
1.5
  0
CIRCLE
  8
0
 62
7
 10
48.37
 20
44.46
 30
0.0
 40
1.5
  0
CIRCLE
  8
0
 62
7
 10
48.37
 20
50.81
 30
0.0
 40
1.5
  0
CIRCLE
  8
0
 62
7
 10
48.37
 20
57.16
 30
0.0
 40
1.5
  0
CIRCLE
  8
0
 62
7
 10
48.37
 20
63.51
 30
0.0
 40
1.5
  0
CIRCLE
  8
0
 62
7
 10
48.37
 20
69.86
 30
0.0
 40
1.5
  0
CIRCLE
  8
0
 62
7
 10
48.37
 20
76.21
 30
0.0
 40
1.5
  0
CIRCLE
  8
0
 62
7
 10
16.62
 20
115.79
 30
0.0
 40
1.5
  0
CIRCLE
  8
0
 62
7
 10
16.62
 20
122.14
 30
0.0
 40
1.5
  0
CIRCLE
  8
0
 62
7
 10
16.62
 20
128.49
 30
0.0
 40
1.5
  0
CIRCLE
  8
0
 62
7
 10
16.62
 20
134.84
 30
0.0
 40
1.5
  0
CIRCLE
  8
0
 62
7
 10
16.62
 20
141.19
 30
0.0
 40
1.5
  0
CIRCLE
  8
0
 62
7
 10
16.62
 20
147.54
 30
0.0
 40
1.5
  0
CIRCLE
  8
0
 62
7
 10
16.62
 20
153.89
 30
0.0
 40
1.5
  0
CIRCLE
  8
0
 62
7
 10
48.37
 20
115.79
 30
0.0
 40
1.5
  0
CIRCLE
  8
0
 62
7
 10
48.37
 20
122.14
 30
0.0
 40
1.5
  0
CIRCLE
  8
0
 62
7
 10
48.37
 20
128.49
 30
0.0
 40
1.5
  0
CIRCLE
  8
0
 62
7
 10
48.37
 20
134.84
 30
0.0
 40
1.5
  0
CIRCLE
  8
0
 62
7
 10
48.37
 20
141.19
 30
0.0
 40
1.5
  0
CIRCLE
  8
0
 62
7
 10
48.37
 20
147.54
 30
0.0
 40
1.5
  0
CIRCLE
  8
0
 62
7
 10
48.37
 20
153.89
 30
0.0
 40
1.5
  0
CIRCLE
  8
0
 62
7
 10
170.0
 20
41.0
 30
0.0
 40
1.5
  0
CIRCLE
  8
0
 62
7
 10
170.0
 20
95.0
 30
0.0
 40
1.5
  0
CIRCLE
  8
0
 62
7
 10
170.0
 20
68.0
 30
0.0
 40
1.5
  0
CIRCLE
  8
0
 62
7
 10
170.0
 20
124.0
 30
0.0
 40
1.5
  0
CIRCLE
  8
0
 62
7
 10
170.0
 20
151.0
 30
0.0
 40
1.5
  0
ENDBLK
  0
ENDSEC
  0
SECTION
  2
ENTITIES
  0
INSERT
  2
SKETCH004
  8
0
 10
0.0
 20
0.0
 30
0.0
  0
ENDSEC
  0
EOF
